<svg id="Layer_1" data-name="Layer 1" xmlns="http://www.w3.org/2000/svg" xmlns:xlink="http://www.w3.org/1999/xlink" viewBox="0 0 978.18 804.37"><defs><style>.cls-1{fill:url(#linear-gradient);}.cls-2{fill:#fffef5;}.cls-3{fill:#cdc9bd;}.cls-4{fill:#e9e6db;}.cls-5{opacity:0.8;}.cls-6,.cls-65{fill:#fff;}.cls-7{fill:#f5f0e4;}.cls-8{fill:#6981c0;}.cls-9{fill:#3b52a2;}.cls-10,.cls-17{fill:#224698;}.cls-11{fill:#4763ac;}.cls-12{fill:#5079bc;}.cls-13{fill:#214184;}.cls-14{fill:#24499b;}.cls-15{fill:#8196cc;}.cls-16{fill:#5977b2;}.cls-17{opacity:0.38;}.cls-18,.cls-19{fill:#1d2251;}.cls-18{opacity:0.72;}.cls-20,.cls-21{fill:#cbebf3;}.cls-20{opacity:0.66;}.cls-22{fill:none;}.cls-23{fill:#5d3b7f;}.cls-24,.cls-27,.cls-37,.cls-59{fill:#131735;}.cls-25{fill:url(#linear-gradient-2);}.cls-26{fill:url(#linear-gradient-3);}.cls-27{opacity:0.3;}.cls-28{fill:#f28082;}.cls-29{fill:url(#linear-gradient-4);}.cls-30{opacity:0.52;fill:url(#linear-gradient-5);}.cls-31{fill:#4298ac;}.cls-31,.cls-35{opacity:0.4;}.cls-32,.cls-58{opacity:0.14;}.cls-32{fill:url(#linear-gradient-6);}.cls-33{fill:url(#linear-gradient-7);}.cls-34{fill:#51b7db;}.cls-35{fill:#64c9e8;}.cls-36,.cls-44{opacity:0.58;}.cls-36{fill:url(#linear-gradient-8);}.cls-37{opacity:0.31;}.cls-38{fill:url(#linear-gradient-9);}.cls-39,.cls-40,.cls-41,.cls-42,.cls-84,.cls-85,.cls-86,.cls-87,.cls-88,.cls-89,.cls-90{opacity:0.21;}.cls-39{fill:url(#linear-gradient-10);}.cls-40{fill:url(#linear-gradient-11);}.cls-41{fill:url(#linear-gradient-12);}.cls-42{fill:url(#linear-gradient-13);}.cls-43{fill:#010101;opacity:0.26;}.cls-44{fill:url(#linear-gradient-14);}.cls-45{fill:url(#linear-gradient-15);}.cls-46{fill:url(#linear-gradient-16);}.cls-47{fill:#ffc614;}.cls-48{fill:url(#linear-gradient-17);}.cls-49{fill:#fcf49c;}.cls-50{opacity:0.28;fill:url(#linear-gradient-18);}.cls-51,.cls-54{fill:#1d224c;}.cls-52{opacity:0.43;fill:url(#linear-gradient-19);}.cls-53{fill:url(#linear-gradient-20);}.cls-54{opacity:0.63;}.cls-55{fill:url(#linear-gradient-21);}.cls-56,.cls-61{opacity:0.74;}.cls-56{fill:url(#linear-gradient-22);}.cls-57{opacity:0.47;fill:url(#linear-gradient-23);}.cls-58{fill:url(#linear-gradient-24);}.cls-59{opacity:0.64;}.cls-60,.cls-78,.cls-96{opacity:0.54;}.cls-60{fill:url(#linear-gradient-25);}.cls-61{fill:url(#linear-gradient-26);}.cls-62{fill:url(#linear-gradient-27);}.cls-63,.cls-66{opacity:0.33;}.cls-63{fill:url(#linear-gradient-28);}.cls-64{fill:url(#linear-gradient-29);}.cls-65{opacity:0.09;}.cls-66{fill:url(#linear-gradient-30);}.cls-67{fill:#342b52;}.cls-68{fill:url(#linear-gradient-31);}.cls-69{fill:#af1e47;}.cls-70,.cls-72{fill:#721634;}.cls-70{opacity:0.51;}.cls-71{fill:url(#linear-gradient-32);}.cls-73{fill:url(#linear-gradient-33);}.cls-74{fill:url(#linear-gradient-34);}.cls-75{fill:#36121f;}.cls-76{fill:url(#linear-gradient-35);}.cls-77{fill:url(#linear-gradient-36);}.cls-78{fill:url(#linear-gradient-37);}.cls-79{fill:#f38083;}.cls-80{fill:url(#linear-gradient-38);}.cls-81{fill:url(#linear-gradient-39);}.cls-82{fill:url(#linear-gradient-40);}.cls-83{fill:url(#linear-gradient-41);}.cls-84{fill:url(#linear-gradient-42);}.cls-85{fill:url(#linear-gradient-43);}.cls-86{fill:url(#linear-gradient-44);}.cls-87{fill:url(#linear-gradient-45);}.cls-88{fill:url(#linear-gradient-46);}.cls-89{fill:url(#linear-gradient-47);}.cls-90{fill:url(#linear-gradient-48);}.cls-91{fill:#ffc713;}.cls-92{fill:url(#linear-gradient-49);}.cls-93{fill:#fee091;}.cls-94{fill:url(#linear-gradient-50);}.cls-95{opacity:0.41;fill:url(#linear-gradient-51);}.cls-96{fill:url(#linear-gradient-52);}.cls-97{fill:url(#linear-gradient-53);}.cls-98{fill:url(#linear-gradient-54);}.cls-99{fill:url(#linear-gradient-55);}.cls-100{fill:url(#linear-gradient-56);}.cls-101{fill:url(#linear-gradient-57);}.cls-102{fill:url(#linear-gradient-58);}.cls-103{fill:url(#linear-gradient-59);}.cls-104{fill:url(#linear-gradient-60);}</style><linearGradient id="linear-gradient" x1="-201.36" y1="1568.55" x2="874.49" y2="-294.88" gradientUnits="userSpaceOnUse"><stop offset="0.06" stop-color="#2d387e"/><stop offset="0.18" stop-color="#36397e"/><stop offset="0.39" stop-color="#503a7f"/><stop offset="0.48" stop-color="#5d3b7f"/><stop offset="0.52" stop-color="#694082"/><stop offset="0.6" stop-color="#884c8b"/><stop offset="0.71" stop-color="#bb6199"/><stop offset="0.8" stop-color="#eb74a6"/><stop offset="1" stop-color="#e3a1c0"/></linearGradient><linearGradient id="linear-gradient-2" x1="179.38" y1="677.08" x2="446.03" y2="677.08" gradientUnits="userSpaceOnUse"><stop offset="0" stop-color="#1d224c"/><stop offset="1" stop-color="#2c326e"/></linearGradient><linearGradient id="linear-gradient-3" x1="179.38" y1="806.4" x2="239.91" y2="806.4" gradientUnits="userSpaceOnUse"><stop offset="0.1" stop-color="#ae1e47"/><stop offset="1" stop-color="#4c1025"/></linearGradient><linearGradient id="linear-gradient-4" x1="274.62" y1="367.81" x2="503.62" y2="367.81" gradientUnits="userSpaceOnUse"><stop offset="0.05" stop-color="#51b7db"/><stop offset="1" stop-color="#fff"/></linearGradient><linearGradient id="linear-gradient-5" x1="276.07" y1="429.4" x2="319.61" y2="429.4" gradientUnits="userSpaceOnUse"><stop offset="0.41" stop-color="#1d224c"/><stop offset="1" stop-color="#2c326e"/></linearGradient><linearGradient id="linear-gradient-6" x1="278.72" y1="429.05" x2="351.79" y2="429.05" xlink:href="#linear-gradient-5"/><linearGradient id="linear-gradient-7" x1="233.85" y1="444.14" x2="303.56" y2="444.14" xlink:href="#linear-gradient-4"/><linearGradient id="linear-gradient-8" x1="259.65" y1="346.01" x2="358.81" y2="346.01" gradientUnits="userSpaceOnUse"><stop offset="0.1" stop-color="#1d224c"/><stop offset="0.42" stop-color="#2c326e"/></linearGradient><linearGradient id="linear-gradient-9" x1="291.62" y1="766.46" x2="349.71" y2="766.46" xlink:href="#linear-gradient-3"/><linearGradient id="linear-gradient-10" x1="488.62" y1="183.63" x2="503.83" y2="183.63" xlink:href="#linear-gradient-8"/><linearGradient id="linear-gradient-11" x1="492.62" y1="185.02" x2="510.99" y2="185.02" xlink:href="#linear-gradient-8"/><linearGradient id="linear-gradient-12" x1="497.62" y1="189.39" x2="512.98" y2="189.39" xlink:href="#linear-gradient-8"/><linearGradient id="linear-gradient-13" x1="503.62" y1="194.23" x2="513.33" y2="194.23" xlink:href="#linear-gradient-8"/><linearGradient id="linear-gradient-14" x1="369.12" y1="340.01" x2="392.92" y2="340.01" xlink:href="#linear-gradient-8"/><linearGradient id="linear-gradient-15" x1="370.62" y1="332.06" x2="392.9" y2="332.06" gradientUnits="userSpaceOnUse"><stop offset="0.24" stop-color="#1d224c"/><stop offset="0.73" stop-color="#2c326e"/></linearGradient><linearGradient id="linear-gradient-16" x1="383.01" y1="248.77" x2="399.78" y2="248.77" gradientUnits="userSpaceOnUse"><stop offset="0" stop-color="#63c6d2"/><stop offset="1" stop-color="#342b52"/></linearGradient><linearGradient id="linear-gradient-17" x1="271.55" y1="442.3" x2="278.56" y2="442.3" gradientTransform="translate(-132.07 260.53) rotate(-50.12)" gradientUnits="userSpaceOnUse"><stop offset="0.34" stop-color="#f78e20"/><stop offset="1" stop-color="#ffc614"/></linearGradient><linearGradient id="linear-gradient-18" x1="338.41" y1="329.86" x2="368.75" y2="329.86" xlink:href="#linear-gradient-8"/><linearGradient id="linear-gradient-19" x1="356.63" y1="316.67" x2="371.57" y2="316.67" xlink:href="#linear-gradient-8"/><linearGradient id="linear-gradient-20" x1="4.62" y1="469.88" x2="357.52" y2="469.88" xlink:href="#linear-gradient-15"/><linearGradient id="linear-gradient-21" x1="238.2" y1="397.51" x2="250.16" y2="397.51" gradientTransform="matrix(0.5, -0.87, 0.87, 0.5, -126.96, 352.14)" xlink:href="#linear-gradient-17"/><linearGradient id="linear-gradient-22" x1="4.62" y1="451.87" x2="330.54" y2="451.87" gradientUnits="userSpaceOnUse"><stop offset="0" stop-color="#63c6d2"/><stop offset="0.83" stop-color="#342b52"/></linearGradient><linearGradient id="linear-gradient-23" x1="328.3" y1="233.09" x2="384.51" y2="233.09" xlink:href="#linear-gradient-16"/><linearGradient id="linear-gradient-24" x1="399.29" y1="355.33" x2="467.23" y2="355.33" xlink:href="#linear-gradient-5"/><linearGradient id="linear-gradient-25" x1="337.52" y1="289.93" x2="346.12" y2="289.93" gradientUnits="userSpaceOnUse"><stop offset="0.49" stop-color="#b53c66"/><stop offset="1" stop-color="#342b52" stop-opacity="0"/></linearGradient><linearGradient id="linear-gradient-26" x1="328.3" y1="234.09" x2="384.51" y2="234.09" gradientUnits="userSpaceOnUse"><stop offset="0" stop-color="#63c6d2"/><stop offset="0.18" stop-color="#61c1ce"/><stop offset="1" stop-color="#342b52"/></linearGradient><linearGradient id="linear-gradient-27" x1="308.62" y1="224.11" x2="346.7" y2="224.11" xlink:href="#linear-gradient-26"/><linearGradient id="linear-gradient-28" x1="303.07" y1="249.45" x2="333.12" y2="249.45" gradientUnits="userSpaceOnUse"><stop offset="0.64" stop-color="#ef4679"/><stop offset="1" stop-color="#342b52" stop-opacity="0"/></linearGradient><linearGradient id="linear-gradient-29" x1="376.39" y1="279.31" x2="383.3" y2="279.31" gradientUnits="userSpaceOnUse"><stop offset="0.56" stop-color="#b53c66"/><stop offset="1" stop-color="#342b52" stop-opacity="0"/></linearGradient><linearGradient id="linear-gradient-30" x1="309.22" y1="286.85" x2="342.32" y2="286.85" xlink:href="#linear-gradient-28"/><linearGradient id="linear-gradient-31" x1="820.2" y1="521.06" x2="985.75" y2="521.06" gradientTransform="matrix(1, 0.05, -0.05, 1, 26.41, -36.6)" gradientUnits="userSpaceOnUse"><stop offset="0" stop-color="#63c7d3"/><stop offset="0.88" stop-color="#342b52"/></linearGradient><linearGradient id="linear-gradient-32" x1="651.2" y1="292.74" x2="741.48" y2="292.74" gradientTransform="matrix(0.99, 0.12, -0.12, 0.99, 59.4, -90)" xlink:href="#linear-gradient-31"/><linearGradient id="linear-gradient-33" x1="703.55" y1="327.72" x2="740.6" y2="327.72" gradientTransform="matrix(1, 0.05, -0.05, 1, 26.41, -36.6)" gradientUnits="userSpaceOnUse"><stop offset="0.1" stop-color="#371722"/><stop offset="1" stop-color="#721634"/></linearGradient><linearGradient id="linear-gradient-34" x1="750.42" y1="370.06" x2="750.42" y2="782.27" xlink:href="#linear-gradient-33"/><linearGradient id="linear-gradient-35" x1="595.61" y1="638.73" x2="788.23" y2="638.73" gradientTransform="matrix(1, 0.05, -0.05, 1, 26.41, -36.6)" xlink:href="#linear-gradient-2"/><linearGradient id="linear-gradient-36" x1="550.38" y1="358.18" x2="747.5" y2="358.18" gradientTransform="matrix(1, 0.05, -0.05, 1, 26.41, -36.6)" gradientUnits="userSpaceOnUse"><stop offset="0" stop-color="#fff"/><stop offset="0.85" stop-color="#eb97c1"/></linearGradient><linearGradient id="linear-gradient-37" x1="664.81" y1="417.19" x2="745.89" y2="417.19" gradientTransform="matrix(1, 0.05, -0.05, 1, 26.41, -36.6)" gradientUnits="userSpaceOnUse"><stop offset="0.36" stop-color="#662a7d"/><stop offset="1" stop-color="#342b52" stop-opacity="0"/></linearGradient><linearGradient id="linear-gradient-38" x1="681.39" y1="339.23" x2="695.47" y2="339.23" gradientTransform="matrix(0.99, 0.12, -0.12, 0.99, 59.4, -90)" gradientUnits="userSpaceOnUse"><stop offset="0.01" stop-color="#b73d67"/><stop offset="1" stop-color="#342b52" stop-opacity="0"/></linearGradient><linearGradient id="linear-gradient-39" x1="712.78" y1="481.22" x2="783.87" y2="358.09" gradientTransform="matrix(1, 0.05, -0.05, 1, 26.41, -36.6)" gradientUnits="userSpaceOnUse"><stop offset="0" stop-color="#fff"/><stop offset="1" stop-color="#eb97c1"/></linearGradient><linearGradient id="linear-gradient-40" x1="675.29" y1="777.72" x2="675.29" y2="700.05" gradientTransform="matrix(1, 0.05, -0.05, 1, 26.41, -36.6)" gradientUnits="userSpaceOnUse"><stop offset="0.12" stop-color="#e90e8b"/><stop offset="0.86" stop-color="#fff"/></linearGradient><linearGradient id="linear-gradient-41" x1="770.09" y1="797.37" x2="770.09" y2="720.76" xlink:href="#linear-gradient-40"/><linearGradient id="linear-gradient-42" x1="603.8" y1="211.84" x2="616.11" y2="211.84" gradientTransform="matrix(-0.99, -0.12, -0.12, 0.99, 1206.53, 47.61)" xlink:href="#linear-gradient-8"/><linearGradient id="linear-gradient-43" x1="607.04" y1="212.96" x2="621.9" y2="212.96" gradientTransform="matrix(-0.99, -0.12, -0.12, 0.99, 1206.53, 47.61)" xlink:href="#linear-gradient-8"/><linearGradient id="linear-gradient-44" x1="611.08" y1="216.5" x2="623.51" y2="216.5" gradientTransform="matrix(-0.99, -0.12, -0.12, 0.99, 1206.53, 47.61)" xlink:href="#linear-gradient-8"/><linearGradient id="linear-gradient-45" x1="615.93" y1="220.41" x2="623.79" y2="220.41" gradientTransform="matrix(-0.99, -0.12, -0.12, 0.99, 1206.53, 47.61)" xlink:href="#linear-gradient-8"/><linearGradient id="linear-gradient-46" x1="676.53" y1="487.69" x2="688.74" y2="487.69" gradientTransform="matrix(1, 0.05, -0.05, 1, 26.41, -36.6)" xlink:href="#linear-gradient-8"/><linearGradient id="linear-gradient-47" x1="676.9" y1="493.03" x2="690.83" y2="493.03" gradientTransform="matrix(1, 0.05, -0.05, 1, 26.41, -36.6)" xlink:href="#linear-gradient-8"/><linearGradient id="linear-gradient-48" x1="682.69" y1="494.52" x2="694.68" y2="494.52" gradientTransform="matrix(1, 0.05, -0.05, 1, 26.41, -36.6)" xlink:href="#linear-gradient-8"/><linearGradient id="linear-gradient-49" x1="395.04" y1="403.63" x2="400.16" y2="394.75" gradientTransform="matrix(-0.78, -0.63, -0.63, 0.78, 1275.23, 287.15)" gradientUnits="userSpaceOnUse"><stop offset="0" stop-color="#ffc713"/><stop offset="0.66" stop-color="#f78f20"/></linearGradient><linearGradient id="linear-gradient-50" x1="429.28" y1="417.68" x2="433.46" y2="410.45" xlink:href="#linear-gradient-49"/><linearGradient id="linear-gradient-51" x1="736.57" y1="533.99" x2="970.18" y2="533.99" xlink:href="#linear-gradient-40"/><linearGradient id="linear-gradient-52" x1="717.92" y1="412.48" x2="794.21" y2="412.48" xlink:href="#linear-gradient-37"/><linearGradient id="linear-gradient-53" x1="634.99" y1="279.87" x2="681.82" y2="279.87" gradientTransform="matrix(0.99, 0.12, -0.12, 0.99, 59.4, -90)" xlink:href="#linear-gradient-31"/><linearGradient id="linear-gradient-54" x1="668.5" y1="296.16" x2="694.85" y2="296.16" gradientTransform="matrix(0.99, 0.12, -0.12, 0.99, 59.4, -90)" gradientUnits="userSpaceOnUse"><stop offset="0.56" stop-color="#b73d67"/><stop offset="1" stop-color="#342b52" stop-opacity="0"/></linearGradient><linearGradient id="linear-gradient-55" x1="681.82" y1="297.34" x2="699.85" y2="297.34" xlink:href="#linear-gradient-54"/><linearGradient id="linear-gradient-56" x1="687.05" y1="302.28" x2="698.85" y2="302.28" xlink:href="#linear-gradient-54"/><linearGradient id="linear-gradient-57" x1="640.89" y1="282.28" x2="675.85" y2="282.28" xlink:href="#linear-gradient-54"/><linearGradient id="linear-gradient-58" x1="677.12" y1="319.61" x2="683.12" y2="319.61" gradientTransform="matrix(0.94, 0.34, -0.34, 0.94, 153.3, -226.94)" xlink:href="#linear-gradient-29"/><linearGradient id="linear-gradient-59" x1="698.35" y1="314.5" x2="703.74" y2="314.5" gradientTransform="matrix(0.99, 0.12, -0.12, 0.99, 59.4, -90)" xlink:href="#linear-gradient-29"/><linearGradient id="linear-gradient-60" x1="562.04" y1="328.99" x2="649.81" y2="328.99" xlink:href="#linear-gradient-36"/></defs><title>Untitled-5</title><path class="cls-1" d="M856.61,313.67q-1.62,12-4,24.11c-.58,3.05-1.2,6.09-1.86,9.14-.3,1.39-.6,2.79-.92,4.18-.48,2.14-1,4.29-1.49,6.43-18,75.26-56,149.83-108.17,210.24-.7.82-1.41,1.63-2.12,2.44l-1,1.12h0c-1,1.16-2,2.3-3.07,3.45h0c-.37.42-.74.82-1.12,1.24h0l0,0c-2.37,2.62-4.77,5.22-7.19,7.77s-4.82,5-7.27,7.51Q711,598.88,703.23,606q-8.54,7.85-17.43,15.17l-2.43,2c-1.58,1.28-3.16,2.55-4.76,3.8q-5,4-10.18,7.76c-2.7,2-5.42,3.95-8.16,5.85h0q-12.74,8.91-26.06,16.69c-1.05.62-2.11,1.22-3.16,1.83l-.15.08-.18.1q-1.92,1.1-3.85,2.16c-1.06.59-2.12,1.17-3.19,1.74s-2,1.1-3.06,1.63l-.47.25-2.25,1.17c-1.09.57-2.18,1.12-3.28,1.67l-1.86.93-1.87.92-1.21.59-.41.19c-.85.42-1.71.82-2.56,1.22l-.71.34-.39.18-2.84,1.31-.45.21-.32.14c-1.26.57-2.53,1.14-3.8,1.69l-.24.11-.19.08-2.3,1-.15.06q-8.48,3.63-17.13,6.76h0c-2.26.83-4.53,1.62-6.81,2.39l-3,1-3,.94-2.67.83-.87.26c-1.07.33-2.15.65-3.23,1-1.27.37-2.56.74-3.84,1.09q-2.52.71-5.06,1.35c-1.06.28-2.11.55-3.17.81l-3.33.8-1.19.28-.17,0-1.29.29c-.85.2-1.7.39-2.56.57-2.52.55-5.06,1.07-7.61,1.54l-1.11.22c-1.08.2-2.17.4-3.26.58-.88.16-1.76.32-2.65.45-2.79.48-5.6.9-8.42,1.28l-.3,0-1.5.2c-1.72.23-3.44.44-5.17.64-1.14.12-2.29.25-3.44.36l-.68.07-1.69.16c-1.6.15-3.21.29-4.82.4-.94.08-1.87.15-2.81.21-3.89.26-7.79.46-11.67.61q-3.22.12-6.43.2c-3.71.08-7.41.12-11.11.09h-2c-1.3,0-2.59,0-3.89,0-2.15,0-4.28-.09-6.43-.16h0L450.9,702l-2-.08-.47,0c-1.7-.07-3.4-.15-5.1-.25-2.15-.12-4.3-.25-6.45-.41-1.49-.1-3-.21-4.47-.34q-11.31-.89-22.48-2.37h0q-4.32-.57-8.63-1.22-3.11-.46-6.21-1c-1.51-.24-3-.5-4.53-.77l-.67-.11Q383.41,694.29,377,693q-16.86-3.48-33.3-8.1l-.83-.25h0c-1-.28-2-.57-3.05-.87q-10.35-3-20.49-6.41-3.94-1.32-7.86-2.72h0l-3.64-1.31a515.14,515.14,0,0,1-65-28.9c-1.13-.59-2.26-1.2-3.39-1.8l0,0h0q-9-4.83-17.64-10l-1.73-1C163.11,597.69,96.57,544.3,89.43,471.56v0c-.09-1-.18-2-.25-3v0s0,0,0,0c-1.85-25,3.32-52.25,18.25-81.74q3.95-7.8,8.45-14.95,2.53-4.08,5.26-7.95A184.72,184.72,0,0,1,135.29,346C211.83,261.06,353,259.83,426.52,228.16h0c1-.43,2-.86,2.92-1.3,16.92-7.68,30-17.14,37.39-29.9,22.35-38.41,47.27-82.87,85.81-107.53,36.73-23.5,80.34-33.71,118.93-33.2,75.07,1,128.69,36.86,159,91.35l0,0v0c.67,1.2,1.32,2.41,2,3.64C856.37,196.22,864.71,253.27,856.61,313.67Z" transform="translate(-4.62 -51.28)"/><polygon class="cls-2" points="569.22 320.78 555.18 323.57 542.99 321.72 519.92 327.03 502.23 323.57 496.08 317.19 509.45 313.26 517.55 314.63 532.3 313.26 553.98 319.09 569.22 320.78"/><polygon class="cls-3" points="523.31 323.05 542.99 321.72 519.92 327.03 502.23 323.57 496.08 317.19 507.1 321.28 523.31 323.05"/><polygon class="cls-3" points="569.22 320.78 555.18 323.57 542.99 321.72 551.65 320.84 569.22 320.78"/><polygon class="cls-4" points="553.98 319.09 542.99 320.15 529.87 318.19 543.83 316.36 553.98 319.09"/><polygon class="cls-2" points="248.23 309.71 215.04 316.3 186.23 311.94 131.68 324.48 89.86 316.3 75.33 301.22 106.93 291.93 126.07 295.16 160.94 291.93 212.2 305.71 248.23 309.71"/><polygon class="cls-3" points="139.69 315.06 186.23 311.94 131.68 324.48 89.86 316.3 75.33 301.22 101.36 310.88 139.69 315.06"/><polygon class="cls-3" points="248.23 309.71 215.04 316.3 186.23 311.94 206.68 309.84 248.23 309.71"/><polygon class="cls-4" points="212.2 305.71 186.23 308.21 155.2 303.57 188.19 299.26 212.2 305.71"/><g class="cls-5"><polygon class="cls-2" points="782.56 128.76 763.45 132.56 746.86 130.05 715.45 137.27 691.37 132.56 683 123.88 701.19 118.53 712.22 120.38 732.3 118.53 761.81 126.46 782.56 128.76"/><polygon class="cls-3" points="720.06 131.85 746.86 130.05 715.45 137.27 691.37 132.56 683 123.88 697.99 129.44 720.06 131.85"/><polygon class="cls-3" points="782.56 128.76 763.45 132.56 746.86 130.05 758.63 128.84 782.56 128.76"/><polygon class="cls-4" points="761.81 126.46 746.86 127.9 728.99 125.23 747.99 122.75 761.81 126.46"/></g><path class="cls-6" d="M519.63,282a1.5,1.5,0,0,0,0-3,1.5,1.5,0,0,0,0,3Z" transform="translate(-4.62 -51.28)"/><path class="cls-6" d="M660.37,127a1.5,1.5,0,0,0,0-3,1.5,1.5,0,0,0,0,3Z" transform="translate(-4.62 -51.28)"/><path class="cls-6" d="M590,153a1.5,1.5,0,0,0,0-3,1.5,1.5,0,0,0,0,3Z" transform="translate(-4.62 -51.28)"/><polygon class="cls-2" points="414.71 265.21 429 268.69 452.79 273.84 471.08 269.63 486.79 269.63 503.28 263.25 492.88 251.92 459.12 245.03 437.46 255.33 423.02 257.51 414.71 265.21"/><polygon class="cls-4" points="414.71 265.21 429 268.69 452.79 273.84 471.08 269.63 482.94 269.63 488.3 261.89 469.26 257.66 454 259.43 438.13 264.61 423.02 257.51 414.71 265.21"/><polygon class="cls-3" points="488.3 261.89 471.08 269.63 486.79 269.63 503.28 263.25 488.3 261.89"/><polygon class="cls-3" points="414.71 265.21 429 268.69 452.79 273.84 471.08 269.63 454 265.76 437.53 267.63 427.56 261.89 414.71 265.21"/><polygon class="cls-7" points="454 259.43 438.84 257.51 423.02 257.51 438.13 264.61 454 259.43"/><polygon class="cls-7" points="488.3 251.92 474.5 251.92 469.67 255.33 478.98 256.45 488.3 251.92"/><polygon class="cls-2" points="445.48 380.84 427.89 387.48 401.7 390.61 380.19 384.35 364.56 385.53 375.41 380.84 382.15 374.19 399.06 368.33 420.59 372.23 428.85 378.88 445.48 380.84"/><polygon class="cls-3" points="427.89 387.48 401.7 390.61 380.19 384.35 364.56 385.53 381.63 380.84 401.18 383.18 406.59 386.83 418.59 382.14 427.89 387.48"/><polygon class="cls-4" points="418.59 382.14 445.48 380.84 427.89 387.48 418.59 382.14"/><polygon class="cls-4" points="375.41 380.84 381.63 380.84 364.56 385.53 375.41 380.84"/><polygon class="cls-7" points="401.18 383.18 414.99 378.88 418.59 382.14 406.59 386.83 401.18 383.18"/><polygon class="cls-4" points="428.85 378.88 418.59 376.93 425.69 376.34 428.85 378.88"/><path class="cls-8" d="M745.42,571.67l-.48-.1q-6.23,6.6-12.71,13-3.78,3.74-7.65,7.36l-.59.55q-2.75,2.58-5.53,5.1-4.14,3.78-8.36,7.43t-8.69,7.36q-7,5.82-14.22,11.29l-2.11,1.6q-2.67,2-5.35,4-5.36,3.92-10.76,7.62-4.12,2.84-8.3,5.53-13,8.46-26.24,15.77A382.84,382.84,0,0,1,598,675.76l-.19.09-2.3.95-.15.06q-8.48,3.63-17.13,6.76h0c-2.26.83-4.53,1.62-6.81,2.39l-3,1-3,.94-2.67.83-.87.26c-1.07.33-2.15.65-3.23,1-1.27.37-2.56.74-3.84,1.09q-2.52.71-5.06,1.35c-1.06.28-2.11.55-3.17.81l-3.33.8-1.19.28-.17,0-1.29.29c-.85.2-1.7.39-2.56.57-2.52.55-5.06,1.07-7.61,1.54l-1.11.22c-1.08.2-2.17.4-3.26.58-.88.16-1.76.32-2.65.45-2.79.48-5.6.9-8.42,1.28l-.3,0-1.5.2c-1.72.23-3.44.44-5.17.64-1.14.12-2.29.25-3.44.36l-.68.07-1.69.16c-1.6.15-3.21.29-4.82.4-.94.08-1.87.15-2.81.21-3.89.26-7.79.46-11.67.61q-3.22.12-6.43.2c-3.71.08-7.41.12-11.11.09h-2l-1.61,1.32-10.76-1.38-2.1-.27-.45-.06c-1.7-.07-3.4-.15-5.1-.25-2.15-.12-4.3-.25-6.45-.41-1.49-.1-3-.21-4.47-.34q-11.31-.89-22.48-2.37h0q-4.32-.57-8.63-1.22-3.11-.46-6.21-1c-1.51-.24-3-.5-4.53-.77l-.67-.11Q383.41,694.29,377,693q-16.86-3.48-33.3-8.1l-.83-.25h0l-2.73,0-.32-.91q-10.35-3-20.49-6.41-3.94-1.32-7.86-2.72h0l-3.64-1.31a515.14,515.14,0,0,1-65-28.9c-1.13-.59-2.26-1.2-3.39-1.8l-.18.17.15-.19.39-.46,5.25-6.29.94-1.12.49-.59,59.09-70.73,60.69-31.2,75.13-38.63,5.49-25.85,45.64-50.58,5.5-8.25,29.7-5,25.84,19.8,56.08,91.82,24.74,8.25,7.15,8.25,34.37,5.49,24.47,26.95L710,548.58l10.69-7.71,18.15,25.85,1.4,1,4.27,3.2.6.45Z" transform="translate(-4.62 -51.28)"/><path class="cls-9" d="M688.07,587.62l-10,19.79,7.73,13.75,1,1.79.38.67-2.11,1.6q-2.67,2-5.35,4l-.34-.69-.78-1.54-12.37-24.49-4.36-17.59-15.71-36.29-4.68-16.5,14.3,11,.55,13.19L694.46,575Z" transform="translate(-4.62 -51.28)"/><path class="cls-10" d="M557,541.43l13.48-20.9-16-19.79-11.82-23.1,4.16-16.49-5-18.7L529.51,415l24,8.8,9.84,44,11.34,17.59,1.66,20.9,21.41,25.84,13.85,25.26,29.87,19.83,8,36.29,16.71,12.65,2.19,8.6.34,1.31.2.78q-4.12,2.84-8.3,5.53-13,8.46-26.24,15.77A382.84,382.84,0,0,1,598,675.76v0c0-.25,0-.51,0-.77.18-10.44.32-25.27-.2-28C597,642.86,583,624,581.22,621.67l-.07-.1-.1-.14Z" transform="translate(-4.62 -51.28)"/><path class="cls-11" d="M597.77,646.93v28.92l-2.3.95-.15.06q-8.48,3.63-17.13,6.76h0c-2.26.83-4.53,1.62-6.81,2.39l-3,1-3,.94-2.67.83-.87.26c-1.07.33-2.15.65-3.23,1-1.27.37-2.56.74-3.84,1.09q-2.52.71-5.06,1.35c-1.06.28-2.11.55-3.17.81l.2-.41.42-.87,1.28-2.67,1.91-4,1-2,.05-.11,1.28-2.66.26-.54,1.25-2.61h0l1-2.16,25.86-53.82.1.14.07.1Z" transform="translate(-4.62 -51.28)"/><polygon class="cls-12" points="546.74 631.95 551.1 564.92 535.15 525.61 537.35 492.89 531.3 476.4 549.78 449.45 565.82 469.25 552.33 490.14 576.43 570.15 546.74 631.95"/><path class="cls-13" d="M487.53,446.3,469.94,465l-7.7,35.74-2.48,15.7-2.47,15.64,2.2,27.49-13.28,33-.33.82-.34.84-.45,1.12h0l-3.4,8.44-1.44,3.58,1.64,14.52v0l.65,5.84,3.78,33.51L450,694.09l.49,4.37h0l.25,2.14.08.75,0,.34,0,.29,0,.23-2.1-.27-.45-.06c-1.7-.07-3.4-.15-5.1-.25-2.15-.12-4.3-.25-6.45-.41-1.49-.1-3-.21-4.47-.34q-11.31-.89-22.48-2.37h0q-4.32-.57-8.63-1.22-3.11-.46-6.21-1c-1.51-.24-3-.5-4.53-.77l-.67-.11Q383.41,694.29,377,693q-16.86-3.48-33.3-8.1l-.83-.25h0l-2.73,0-.32-.91-.49-1.42-1.59-4.64h0l-.3-.9h0l-3.56-10.33-3.73-10.82-1-2.85L322,632.15l63.23-24.74L388,562.32l58.89-30.24-3-20.79-2.55-17.7L471,463.28Z" transform="translate(-4.62 -51.28)"/><polygon class="cls-11" points="383.39 511.04 344.53 569.33 380.64 556.13 383.39 511.04"/><path class="cls-11" d="M311.58,598.34l-34.46,23.09-24.46,16.39-.68.46-9.19,6.15c-1.13-.59-2.26-1.2-3.39-1.8l-.18.17.15-.19h0l.38-.46,3.2-3.84,2-2.45.94-1.12.49-.59,59.09-70.73L308.06,578Z" transform="translate(-4.62 -51.28)"/><polygon class="cls-9" points="306.96 547.05 344.53 569.33 272.5 570.15 306.96 547.05"/><polygon class="cls-14" points="306.96 547.05 363.96 501.69 383.39 511.04 344.53 569.33 306.96 547.05"/><polygon class="cls-15" points="661.62 551.18 636.88 525.89 628.05 498.39 607 486.29 604.98 464.3 629.73 472.55 636.88 480.8 641.55 497.29 657.26 533.58 661.62 551.18"/><polygon class="cls-15" points="740.8 520.39 740.32 520.29 739.46 520.12 733.48 518.93 732.95 518.82 732.55 518.74 734.2 515.44 735.6 516.49 739.87 519.69 740.47 520.14 740.8 520.39"/><polygon class="cls-15" points="705.36 497.3 710 497.85 713.58 502.52 734.2 515.44 716.05 489.59 705.36 497.3"/><polygon class="cls-15" points="695.71 513.24 689.85 523.69 670.14 491.52 636.88 480.8 671.24 486.29 695.71 513.24"/><polygon class="cls-15" points="604.98 464.3 590.41 455.5 576.43 436.53 575.02 426.64 561.82 410.69 548.9 372.48 604.98 464.3"/><polygon class="cls-15" points="548.9 372.48 523.06 352.68 524.89 363.68 548.9 372.48"/><polygon class="cls-15" points="493.36 357.63 515.35 362.58 523.06 352.68 493.36 357.63"/><polygon class="cls-15" points="524.89 363.68 510.41 378.52 508.21 411.24 513.98 424.99 524.89 363.68"/><polygon class="cls-15" points="482.92 395.02 504.08 372.48 482.92 383.75 465.32 413.71 482.92 395.02"/><polygon class="cls-15" points="493.36 357.63 493.36 366.15 487.86 365.88 484.7 372.48 442.22 416.46 493.36 357.63"/><polygon class="cls-15" points="439.28 460.01 361.6 480.94 436.73 442.31 439.28 460.01"/><polygon class="cls-15" points="361.6 480.94 332.8 508.56 300.91 512.14 361.6 480.94"/><polygon class="cls-16" points="513.98 424.99 531.3 476.4 511.51 467.05 504.08 430.76 508.21 411.24 513.98 424.99"/><polygon class="cls-16" points="537.12 391.17 531.3 416.46 537.96 426.36 542.13 409.87 537.12 391.17"/><polygon class="cls-16" points="504.08 372.48 510.41 378.52 508.21 411.24 490.4 387.04 504.08 372.48"/><polygon class="cls-16" points="576.43 436.53 558.75 416.46 561.82 410.69 575.02 426.64 576.43 436.53"/><polygon class="cls-16" points="515.35 362.58 493.36 372.48 493.36 357.63 515.35 362.58"/><polygon class="cls-16" points="482.92 383.75 442.22 416.46 452.12 418.39 482.92 383.75"/><polygon class="cls-15" points="504.08 430.76 467.79 455.69 467.79 536.34 504.08 489.59 511.51 467.05 504.08 430.76"/><path class="cls-13" d="M684.6,624.64l.48.58q-2.67,2-5.35,4l-.34-.69-.78-1.54-12.37-24.49,17.13,20.69Z" transform="translate(-4.62 -51.28)"/><path class="cls-16" d="M555.72,616.21,552,673.56l-.15,2.23-.17,2.68-.1,1.56-.21,3.2-.05.11-1,2-1.91,4L547.16,692l-.42.87-.2.41-3.33.8-1.19.28-.17,0-1.29.29-.2-.3-.44-.66-1.1-1.66-8.94-13.54-2.18-3.29-.3-.45.18-1.1,1.07-6.41,0-.1,1.89-11.32h0l.4-2.45L537,617,515,553l24.74,23.92Z" transform="translate(-4.62 -51.28)"/><polygon class="cls-16" points="713.58 502.52 673.46 556.13 705.36 497.3 710 497.85 713.58 502.52"/><polygon class="cls-16" points="732.55 518.74 719.78 538.17 726.17 510.41 734.2 515.44 732.55 518.74"/><path class="cls-16" d="M724.58,591.89l-.59.55.16-1.19.25-1.8.11,1.47Z" transform="translate(-4.62 -51.28)"/><polygon class="cls-13" points="511.51 467.05 510.41 501.69 467.79 536.34 504.08 489.59 511.51 467.05"/><path class="cls-15" d="M503.86,700.62l-1.69.16c-1.6.15-3.21.29-4.82.4-.94.08-1.87.15-2.81.21-3.89.26-7.79.46-11.67.61q-3.22.12-6.43.2l0-.1-.13-.75-1.11-6.27-1-5.74L471.1,672l-1.63-9.23h0l-1.71-9.69h0l-.57-3.2.36-4.31,1.16-13.82.13-1.59,0-.45,3.53-42.1,9.29,49.08h0l1.15,6.09,1,2.72,8.66,23.84h0l8,22.1,3,8.24.26.73Z" transform="translate(-4.62 -51.28)"/><polygon class="cls-13" points="607 506.06 644.91 562.17 636.88 525.89 607 506.06"/><path class="cls-13" d="M543.21,694.06l-1.19.28-.17,0-1.29.29-.2-.3-.44-.66-1.1-1.66-8.94-13.54-2.18-3.29-.3-.45.18-1.1,1.07-6.41,0-.1,1.89-11.32h0l.4-2.45L537,617l3.84,47.74v0l.17,2.14.35,4.32v0l.65,8.18.46,5.7v0l.33,4.07v0l.3,3.68.06.75Z" transform="translate(-4.62 -51.28)"/><polygon class="cls-15" points="303.44 526.72 243.02 583.59 242.45 584.13 234.78 591.35 234.6 591.52 234.75 591.33 234.76 591.33 235.14 590.87 240.39 584.58 241.33 583.46 241.82 582.87 300.91 512.14 303.44 526.72"/><path class="cls-13" d="M718.2,553.8l-15,52.19-1.45,5-.37,1.29q-7,5.82-14.22,11.29l-.38-.67-1-1.79-7.73-13.75Z" transform="translate(-4.62 -51.28)"/><path class="cls-17" d="M718.46,597.54q-4.14,3.78-8.36,7.43t-8.69,7.36q-7,5.82-14.22,11.29l-.38-.67-1-1.79-7.73-13.75L718.2,553.8l.22,37.56,0,5.17Z" transform="translate(-4.62 -51.28)"/><path class="cls-18" d="M634.43,658.1A382.84,382.84,0,0,1,598,675.76l-.19.09V646.93l-16.55-25.26-.07-.1-.1-.14-24.1-80,13.48-20.9,10.23,7.15-.36,13.19-.43,15.68,29.73,67.67,21,19.16,3.63,13.88,0,.09Z" transform="translate(-4.62 -51.28)"/><polygon class="cls-18" points="576.04 476.4 591.22 489.59 617.53 545.7 575.68 489.59 576.04 476.4"/><path class="cls-19" d="M684.6,624.64l.48.58q-2.67,2-5.35,4l-.34-.69-.78-1.54-12.37-24.49,17.13,20.69Z" transform="translate(-4.62 -51.28)"/><polygon class="cls-13" points="673.46 556.13 655.69 517.91 683.46 536.34 673.46 556.13"/><path class="cls-19" d="M540.56,694.67c-.85.2-1.7.39-2.56.57-2.52.55-5.06,1.07-7.61,1.54l-1.11.22c-1.08.2-2.17.4-3.26.58-.88.16-1.76.32-2.65.45-2.79.48-5.6.9-8.42,1.28l-.3,0-1.5.2c-1.72.23-3.44.44-5.17.64-1.14.12-2.29.25-3.44.36l-.07-.17-.32-.73-3.6-8.17-8-22.1h0l-8.66-23.84-1-2.72,1.83-3.8,21.13-44L515,553,537,617,531,653.38l-.4,2.45h0l-1.89,11.32,0,.1-1.07,6.41-.18,1.1.3.45,2.18,3.29,8.94,13.54,1.1,1.66.44.66Z" transform="translate(-4.62 -51.28)"/><polygon class="cls-10" points="508.21 411.24 482.92 422 467.79 455.69 504.08 430.76 508.21 411.24"/><polygon class="cls-13" points="470.56 643.8 467.79 643.56 460.7 649.35 460.7 649.36 460.54 649.48 459.91 650 459.9 650 459.02 650.73 458.69 651 458.68 651 457.07 652.32 448.36 650.79 448.35 650.79 446.25 650.42 446.36 650.09 446.61 649.37 447.55 646.61 450.91 636.74 450.91 636.73 452.14 633.12 454.72 625.53 449.16 585.69 447.53 574 449.49 570.36 451.28 567.03 451.98 565.73 453.18 563.51 454.1 561.79 467.79 536.34 464.26 578.44 464.22 578.89 464.09 580.48 462.93 594.3 462.57 598.61 463.14 601.81 463.14 601.82 464.85 611.51 464.85 611.52 466.48 620.75 469.54 638.06 469.55 638.06 470.56 643.8"/><polygon class="cls-19" points="454.79 650.95 457.07 652.32 446.31 650.94 444.21 650.67 443.76 650.61 442.28 650.42 442.14 649.77 441.98 649.01 440.58 642.32 439.28 640.9 431.88 632.8 434.8 625.53 431.88 620.16 430.23 619.67 426.24 618.51 426.24 618.5 423.53 617.71 422.15 611.72 418.17 608.32 414.16 604.89 413.08 603.97 409.38 604.89 409.7 603.44 417.5 568.6 417.59 568.19 417.78 560.96 417.9 556.22 417.94 554.55 418.37 538.25 418.37 538.17 420.92 534.84 425.52 528.81 426.27 527.83 426.48 527.56 426.58 527.42 446.25 501.69 446.25 486.94 452.67 480.8 449.51 452.73 465.32 413.72 453.3 451.12 455.14 465.16 456.27 473.79 453.46 483.55 454.87 508.29 441.59 541.32 441.26 542.14 440.92 542.98 440.47 544.1 440.47 544.11 437.07 552.55 435.63 556.13 437.22 558.14 439.77 561.37 440.12 570.3 440.35 575.9 441.05 593.68 441.17 596.72 441.17 596.74 441.7 610.02 439.94 623.61 445.39 642.81 446.25 645.83 446.47 645.96 447.55 646.61 452.77 649.74 454.11 650.55 454.12 650.55 454.79 650.95"/><polygon class="cls-20" points="548.9 372.48 565.85 409.79 604.98 464.3 548.9 372.48"/><polygon class="cls-20" points="604.98 464.3 614.02 478.38 625.01 480.8 628.53 489.54 633.3 489.59 644.91 521.49 661.62 551.18 657.26 533.58 641.55 497.29 636.88 480.8 629.73 472.55 604.98 464.3"/><polygon class="cls-20" points="734.2 515.44 713.58 502.52 710 497.85 716.05 489.59 734.2 515.44"/><path class="cls-20" d="M738.82,566.72l-1.25,3.38-.46,1.23-4.27,11.55-.61,1.65q-3.78,3.74-7.65,7.36l-.07-1-.11-1.47,8.5-13.4Z" transform="translate(-4.62 -51.28)"/><polygon class="cls-20" points="689.85 523.69 670.14 491.52 636.88 480.8 671.24 486.29 695.71 513.24 689.85 523.69"/><path class="cls-20" d="M668.77,636l.2.78q-4.12,2.84-8.3,5.53l-.17-.77-.23-1L657,626.15,634.58,611l-23-53.61,37.91,56.12,16.71,12.65,2.19,8.6Z" transform="translate(-4.62 -51.28)"/><polygon class="cls-20" points="524.89 363.68 539.01 382.45 546.5 408.77 544.52 424.99 555.4 449.45 565.82 469.25 549.78 449.45 537.96 426.36 542.13 409.87 536.71 395.02 524.89 363.68"/><polygon class="cls-20" points="508.21 411.24 511.51 439.75 531.3 476.4 511.51 467.05 504.08 430.76 508.21 411.24"/><polygon class="cls-20" points="523.06 352.68 517.69 367.37 493.36 372.48 515.35 362.58 523.06 352.68"/><polygon class="cls-21" points="548.9 372.48 528.35 360.31 523.06 352.68 548.9 372.48"/><polygon class="cls-20" points="482.92 445.3 467.79 536.34 467.79 455.69 482.92 445.3"/><polygon class="cls-20" points="510.41 501.69 531.3 540.18 532.4 565.75 510.41 501.69"/><polygon class="cls-20" points="442.22 416.46 442.22 430.76 436.73 442.31 442.22 416.46"/><path class="cls-8" d="M561.84,689.05c-1.07.33-2.15.65-3.23,1-1.27.37-2.56.74-3.84,1.09q-2.52.71-5.06,1.35c-1.06.28-2.11.55-3.17.81l-3.33.8-1.19.28-.17,0-1.29.29c-.85.2-1.7.39-2.56.57-2.52.55-5.06,1.07-7.61,1.54l-1.11.22c-1.08.2-2.17.4-3.26.58-.88.16-1.76.32-2.65.45-2.79.48-5.6.9-8.42,1.28l-.3,0-1.5.2c-1.72.23-3.44.44-5.17.64-1.14.12-2.29.25-3.44.36l-.68.07-1.69.16c-1.6.15-3.21.29-4.82.4-.94.08-1.87.15-2.81.21-3.89.26-7.79.46-11.67.61q-3.22.12-6.43.2c-3.71.08-7.41.12-11.11.09h-2l-1.61,1.32-10.76-1.38-2.1-.27-.45-.06c-1.7-.07-3.4-.15-5.1-.25-2.15-.12-4.3-.25-6.45-.41-1.49-.1-3-.21-4.47-.34q-11.31-.89-22.48-2.37h0q-4.32-.57-8.63-1.22-3.11-.46-6.21-1c-1.51-.24-3-.5-4.53-.77l-.67-.11Q383.41,694.29,377,693q-16.86-3.48-33.3-8.1l-.83-.25h0l-2.73,0-.32-.91q-10.35-3-20.49-6.41-3.94-1.32-7.86-2.72h0l-3.64-1.31,4.42-5.3.5-.6h0l9.05-10.84,7.35-3.78,22.42-11.53,36.85-18.95,2.7-12.68,22.39-24.81,2.69-4.05,14.57-2.42.43.33,12.25,9.38,2.76,4.52,12.51,20.47h0l10.16,16.64,2.08,3.4,10.74,3.58h0l1.39.47,1.59,1.83v0l1.9,2.19h0l16.85,2.7,12,13.22,4.73-7.82,5.25-3.78,5.51,7.85,3.39,4.83,3.23,2.42,3.28,4.14v0l5.83,7.38h0l5,6.29L552.9,680l.87,1.1,7.22,7.08.6.59Z" transform="translate(-4.62 -51.28)"/><path class="cls-15" d="M578.18,683.62c-2.26.83-4.53,1.62-6.81,2.39l-3,1-3,.94-2.67.83-.87.26c-1.07.33-2.15.65-3.23,1-1.27.37-2.56.74-3.84,1.09q-2.52.71-5.06,1.35c-1.06.28-2.11.55-3.17.81l-3.33.8-1.19.28-.17,0,.06-.36q.09-.4.15-.81a.14.14,0,0,1,0-.06v-.07c.24-1.3.49-2.57.73-3.8v0c.68-3.39,1.36-6.46,1.95-9.07.13-.57.25-1.11.37-1.62h0c.05-.24.11-.46.16-.69s.14-.59.2-.86c.72-3,1.19-4.83,1.19-4.83l5.3,1.39,1.78.47,1.42,1.22,6.87,5.88,14.15,2.18,1.56.24h0Z" transform="translate(-4.62 -51.28)"/><path class="cls-9" d="M508,700.19V700l0-.76-.21-5.68-9-17.8-2.13-8.63-7.71-17.8-2.29-8.1h0l7,5.39.27,6.47,18.7,9.17-3.13,6.21-4.91,9.71,8,14.29,2,5.89.25.72.08.24-.3,0-1.5.2C511.43,699.78,509.71,700,508,700.19Z" transform="translate(-4.62 -51.28)"/><path class="cls-10" d="M465.16,697.55c-.38-2-7.28-11.25-8.13-12.39l-.06-.08,0,0-.19-.65-5.59-18.54L445.79,648v0l-.66-2.2.54-.84,6.08-9.41L445,627.18l-1.09-1.34-2-3.89v0l-3.81-7.42,2.05-8.09-2.46-9.17-6-13.49,11.78,4.32,1.64,7.3h0l3.19,14.26,5.56,8.64.27,3.35.55,6.9,10.5,12.67,2.39,4.37,4.4,8,14.66,9.72,3.94,17.8,8.19,6.21,3.2,12.54.19.74,0,.16c-1.6.15-3.21.29-4.82.4-.94.08-1.87.15-2.81.21-3.89.26-7.79.46-11.67.61q-3.22.12-6.43.2c-3.71.08-7.41.12-11.11.09a1,1,0,0,0,0-.24c0-.26,0-.51,0-.75s0-.45,0-.66h0A28.61,28.61,0,0,0,465.16,697.55Z" transform="translate(-4.62 -51.28)"/><path class="cls-11" d="M465.16,697.55v4.74H463.3l-1.61,1.32-10.76-1.38-2.1-.27,0,0,.32-.67.35-.72,1-2h0l.59-1.22,4.44-9.22h0l1.42-3,0,0,.06.08Z" transform="translate(-4.62 -51.28)"/><path class="cls-12" d="M457,685.05l-1.42,3h0l-4.44,9.22-.59,1.23-1,2-.35.72-.32.67,0,0-.45-.06c-1.7-.07-3.4-.15-5.1-.25l.06-.88.05-.74.51-7.84.63-9.7L436.7,663.2l1.08-16.05-3-8.09,7.72-11.27,1.34-1.95,1.09,1.34,6.78,8.37L445.67,645l-.54.84.66,2.2h0l5.38,17.85,5.59,18.54Z" transform="translate(-4.62 -51.28)"/><path class="cls-13" d="M411.08,599.13l-8.63,9.18-3.78,17.53-1.22,7.7-1.21,7.67,1.08,13.49-9.44,23.47,1.51,13.43h0l.08.79.35,3Q383.41,694.29,377,693q-16.86-3.48-33.3-8.1l7.18-2.81h0l1.12-.44,8.86-3.47,1.35-22.12,28.89-14.84-2.73-18.88L403,607.45Z" transform="translate(-4.62 -51.28)"/><polygon class="cls-11" points="357.64 604.77 338.58 633.36 356.29 626.89 357.64 604.77"/><path class="cls-11" d="M324.76,673.72l-5.43,3.64q-3.94-1.32-7.86-2.72h0l-3.64-1.31,4.42-5.3.5-.6h0l9.05-10.84,1.24,7.15,1.44,8.34.14.86h0Z" transform="translate(-4.62 -51.28)"/><path class="cls-9" d="M343.2,684.64h-.33l-2.73,0-.32-.91q-10.35-3-20.49-6.41l5.43-3.64,14.57,8.63Z" transform="translate(-4.62 -51.28)"/><polygon class="cls-14" points="320.14 622.43 348.11 600.18 357.64 604.77 338.58 633.36 320.14 622.43"/><polygon class="cls-15" points="494.13 624.46 481.99 612.05 477.66 598.56 467.33 592.63 466.34 581.84 478.48 585.89 481.99 589.93 484.28 598.02 491.99 615.83 494.13 624.46"/><polygon class="cls-15" points="549.15 629.85 532.97 609.35 538.36 624.46 549.15 629.85"/><polygon class="cls-15" points="532.97 609.35 529.73 606.93 528.92 608.54 532.97 609.35"/><polygon class="cls-15" points="515.58 598.03 517.86 598.29 519.62 600.59 529.73 606.93 520.83 594.25 515.58 598.03"/><polygon class="cls-15" points="510.85 605.85 507.97 610.97 498.31 595.19 481.99 589.93 498.85 592.63 510.85 605.85"/><polygon class="cls-15" points="466.34 581.84 459.19 577.52 452.33 568.22 451.64 563.36 445.17 555.54 438.83 536.79 466.34 581.84"/><polygon class="cls-15" points="438.83 536.79 426.15 527.08 427.05 532.48 438.83 536.79"/><polygon class="cls-15" points="411.59 529.51 422.37 531.94 426.15 527.08 411.59 529.51"/><polygon class="cls-15" points="427.05 532.48 419.95 539.76 418.87 555.81 421.7 562.55 427.05 532.48"/><polygon class="cls-15" points="406.46 547.85 416.85 536.79 406.46 542.32 397.83 557.02 406.46 547.85"/><polygon class="cls-15" points="411.59 529.51 411.59 533.69 408.89 533.56 407.34 536.79 386.5 558.37 411.59 529.51"/><polygon class="cls-15" points="385.06 579.74 346.95 590 383.8 571.05 385.06 579.74"/><polygon class="cls-15" points="346.95 590 332.82 603.55 317.18 605.31 346.95 590"/><polygon class="cls-16" points="421.7 562.55 430.2 587.77 420.49 583.19 416.85 565.39 418.87 555.81 421.7 562.55"/><polygon class="cls-16" points="433.05 545.97 430.2 558.37 433.46 563.23 435.51 555.14 433.05 545.97"/><polygon class="cls-16" points="416.85 536.79 419.95 539.76 418.87 555.81 410.13 543.94 416.85 536.79"/><polygon class="cls-16" points="452.33 568.22 443.66 558.37 445.17 555.54 451.64 563.36 452.33 568.22"/><polygon class="cls-16" points="422.37 531.94 411.59 536.79 411.59 529.51 422.37 531.94"/><polygon class="cls-16" points="406.46 542.32 386.5 558.37 391.36 559.32 406.46 542.32"/><polygon class="cls-15" points="416.85 565.39 399.04 577.61 399.04 617.18 416.85 594.25 420.49 583.19 416.85 565.39"/><path class="cls-11" d="M549.71,692.45c-1.06.28-2.11.55-3.17.81l-3.33.8-1.19.28-.17,0-1.29.29c-.85.2-1.7.39-2.56.57l.1-.36.2-.81.52-2,3.21-12.6,1-3.71,1.79,4.44,3.67,9.13.86,2.13.28.7Z" transform="translate(-4.62 -51.28)"/><path class="cls-13" d="M508,700.19V700l0-.76-.21-5.68-9-17.8,13.85,16.72,2,5.89.25.72.08.24-.3,0-1.5.2C511.43,699.78,509.71,700,508,700.19Z" transform="translate(-4.62 -51.28)"/><path class="cls-16" d="M444.53,682.48l-.63,9.7-.51,7.84-.05.74-.06.88c-2.15-.12-4.3-.25-6.45-.41-1.49-.1-3-.21-4.47-.34l.21-1.24.12-.73,2.67-16-4.5-13.1h0l-6.29-18.32L436.7,663.2Z" transform="translate(-4.62 -51.28)"/><polygon class="cls-16" points="519.62 600.59 499.93 626.89 515.58 598.03 517.86 598.29 519.62 600.59"/><polygon class="cls-16" points="528.92 608.54 522.66 618.07 525.79 604.46 529.73 606.93 528.92 608.54"/><path class="cls-16" d="M529.28,697c-1.08.2-2.17.4-3.26.58-.88.16-1.76.32-2.65.45l0-.29.1-.78,1-6.92v0l2.81-20.65.31,4.31.12,1.55,1.5,20.71,0,.75Z" transform="translate(-4.62 -51.28)"/><polygon class="cls-13" points="420.49 583.19 419.95 600.18 399.04 617.18 416.85 594.25 420.49 583.19"/><path class="cls-15" d="M409.87,698.52q-4.32-.57-8.63-1.22l.21-2.44.06-.75,2.15-25.65,5.11,27,0,.09.26.73h0Z" transform="translate(-4.62 -51.28)"/><polygon class="cls-13" points="467.33 602.32 485.93 629.85 481.99 612.05 467.33 602.32"/><path class="cls-13" d="M436.83,701.23c-1.49-.1-3-.21-4.47-.34l.21-1.24.12-.73,2.67-16,1.32,16.47.06.76Z" transform="translate(-4.62 -51.28)"/><path class="cls-15" d="M323,663.74l-5.84,5.5-.6.57h0l-5.12,4.83h0l-3.64-1.31,4.42-5.3.5-.6h0l9.05-10.84Z" transform="translate(-4.62 -51.28)"/><polygon class="cls-13" points="507.97 641.18 519.62 600.59 499.93 626.89 507.97 641.18"/><path class="cls-17" d="M523.37,698c-2.79.48-5.6.9-8.42,1.28l-.3,0-.07-.24-.22-.73-1.77-5.92-8-14.29,19.68-26.3.23,38.14v0l1.35,6.52.15.73.06.29C525.14,697.74,524.26,697.9,523.37,698Z" transform="translate(-4.62 -51.28)"/><path class="cls-13" d="M562.44,688.55l.27.24-.87.26c-1.07.33-2.15.65-3.23,1-1.27.37-2.56.74-3.84,1.09q-2.52.71-5.06,1.35l-.13-.31-.28-.7-.86-2.13-3.67-9.13L543,675.74,545.5,677l6.07,3,1.07.54,1.13.56,8,6.85h0Z" transform="translate(-4.62 -51.28)"/><path class="cls-9" d="M568.33,687l-3,.94-2.67.83-.27-.24-.67-.57h0l-8-6.85,13.08,5.29,1.07.43Z" transform="translate(-4.62 -51.28)"/><path class="cls-18" d="M476.44,702.2c-3.71.08-7.41.12-11.11.09h-.17v-4.74L457,685.16l-.06-.08,0,0-.19-.65-5.59-18.54L445.79,648v0l-.66-2.2.54-.84,6.08-9.41,2,1.42,3,2.09-.17,6.47-.21,7.69L471,686.41l3.2,2.93h0l7.08,6.47,1.41,5.38.19.74,0,.07Q479.65,702.12,476.44,702.2Z" transform="translate(-4.62 -51.28)"/><polygon class="cls-18" points="452.15 587.77 459.59 594.25 472.5 621.77 451.97 594.25 452.15 587.77"/><path class="cls-19" d="M508,700.19V700l0-.76-.21-5.68-9-17.8,13.85,16.72.48,6.1.06.76,0,.23C511.43,699.78,509.71,700,508,700.19Z" transform="translate(-4.62 -51.28)"/><path class="cls-19" d="M549.71,692.45c-1.06.28-2.11.55-3.17.81l-3.33.8-1.19.28,0-.35,0-.78v-.13l.4-7.9v0l.49-9.41,1.79,4.44,3.67,9.13.86,2.13.28.7Z" transform="translate(-4.62 -51.28)"/><path class="cls-19" d="M565.38,688l-2.67.83-.27-.24-.67-.57h0l-8-6.85,10.4,6.12.86.51Z" transform="translate(-4.62 -51.28)"/><polygon class="cls-13" points="499.93 626.89 491.22 608.14 504.84 617.18 499.93 626.89"/><path class="cls-19" d="M432.36,700.89q-11.31-.89-22.48-2.37h0l-.81-2.26h0l-.26-.73,0-.08,11.22-23.37,2.74-12.48,1.78-8.14,6.29,18.32h0l4.5,13.1-2.67,16-.12.73Z" transform="translate(-4.62 -51.28)"/><polygon class="cls-10" points="418.87 555.81 406.46 561.09 399.04 577.61 416.85 565.39 418.87 555.81"/><path class="cls-13" d="M403.66,668.46l-2.15,25.65-.06.75-.21,2.44q-3.11-.46-6.21-1l-.39-2.81-.11-.79-.81-5.78Z" transform="translate(-4.62 -51.28)"/><path class="cls-19" d="M398,637.78l-1.38,4.78.69,12.14-9.44,23.47,2,2.57.44,11.08,0,.77.11,2.95-.67-.11Q383.41,694.29,377,693l.75-3.35.16-.73,1.08-4.83.39-14.72,13.67-17.9v-7.23l3.15-3-1.55-13.77,7.76-19.13-5.9,18.34.9,6.89Z" transform="translate(-4.62 -51.28)"/><polygon class="cls-20" points="438.83 536.79 447.14 555.1 466.34 581.84 438.83 536.79"/><polygon class="cls-20" points="466.34 581.84 470.77 588.75 476.17 589.93 477.89 594.22 480.23 594.25 485.93 609.9 494.13 624.46 491.99 615.83 484.28 598.02 481.99 589.93 478.48 585.89 466.34 581.84"/><polygon class="cls-20" points="529.73 606.93 519.62 600.59 517.86 598.29 520.83 594.25 529.73 606.93"/><path class="cls-20" d="M578.18,683.62c-2.26.83-4.53,1.62-6.81,2.39l-.31-.17h0l-.9-.47h0l-8.08-4.24,14.15,2.18,1.56.24h0Z" transform="translate(-4.62 -51.28)"/><polygon class="cls-20" points="542.07 620.88 539.28 620.88 532.97 609.35 542.07 620.88"/><polygon class="cls-20" points="557.44 629.85 551.42 627.46 542.07 620.88 549.15 622.75 557.44 629.85"/><path class="cls-20" d="M533.74,659.87l-4.08,11,.22,7.63.48,17.2,0,.76v.31l-1.11.22,0-.32,0-.75-1.5-20.71-.12-1.55-.31-4.31,1.4-2.2,5.68-8.95Z" transform="translate(-4.62 -51.28)"/><polygon class="cls-20" points="507.97 610.97 498.31 595.19 481.99 589.93 498.85 592.63 510.85 605.85 507.97 610.97"/><path class="cls-20" d="M558.34,689.76l.27.25c-1.27.37-2.56.74-3.84,1.09l-.22-.29-.48-.63h0l-3.71-4.84-5.21-6.78h0L543,675.74l2.32,2.12,6,5.48,6.38,5.83.64.59Z" transform="translate(-4.62 -51.28)"/><path class="cls-20" d="M502.13,700.62l0,.16c-1.6.15-3.21.29-4.82.4l0-.11-.17-.75-2.93-13-11-7.45L472,653.61l18.6,27.52,8.19,6.21,3.2,12.54Z" transform="translate(-4.62 -51.28)"/><polygon class="cls-20" points="427.05 532.48 433.98 541.69 437.65 554.6 436.68 562.55 442.02 574.56 447.13 584.27 439.26 574.56 433.46 563.23 435.51 555.14 432.85 547.85 427.05 532.48"/><polygon class="cls-20" points="418.87 555.81 420.49 569.79 430.2 587.77 420.49 583.19 416.85 565.39 418.87 555.81"/><polygon class="cls-20" points="426.15 527.08 423.52 534.29 411.59 536.79 422.37 531.94 426.15 527.08"/><polygon class="cls-21" points="438.83 536.79 428.75 530.82 426.15 527.08 438.83 536.79"/><polygon class="cls-20" points="406.46 572.52 399.04 617.18 399.04 577.61 406.46 572.52"/><polygon class="cls-20" points="419.95 600.18 430.2 619.06 430.74 631.61 419.95 600.18"/><polygon class="cls-20" points="386.5 558.37 386.5 565.39 383.8 571.05 386.5 558.37"/><path class="cls-22" d="M856.61,313.67q-1.62,12-4,24.11c-.58,3.05-1.2,6.09-1.86,9.14-.3,1.39-.6,2.79-.92,4.18-.48,2.14-1,4.29-1.49,6.43-18,75.26-56,149.83-108.17,210.24-.7.82-1.41,1.63-2.12,2.44l-1,1.12h0c-1,1.16-2,2.3-3.07,3.45h0c-.37.42-.74.82-1.12,1.24h0l0,0c-2.37,2.62-4.77,5.22-7.19,7.77s-4.82,5-7.27,7.51Q711,598.88,703.23,606q-8.54,7.85-17.43,15.17l-2.43,2c-1.58,1.28-3.16,2.55-4.76,3.8q-5,4-10.18,7.76c-2.7,2-5.42,3.95-8.16,5.85h0q-12.74,8.91-26.06,16.69c-1.05.62-2.11,1.22-3.16,1.83l-.15.08-.18.1q-1.92,1.1-3.85,2.16c-1.06.59-2.12,1.17-3.19,1.74s-2,1.1-3.06,1.63l-.47.25-2.25,1.17c-1.09.57-2.18,1.12-3.28,1.67l-1.86.93-1.87.92-1.21.59-.41.19c-.85.42-1.71.82-2.56,1.22l-.71.34-.39.18-2.84,1.31-.45.21-.32.14c-1.26.57-2.53,1.14-3.8,1.69l-.24.11-.19.08-2.3,1-.15.06q-8.48,3.63-17.13,6.76h0c-2.26.83-4.53,1.62-6.81,2.39l-3,1-3,.94-2.67.83-.87.26c-1.07.33-2.15.65-3.23,1-1.27.37-2.56.74-3.84,1.09q-2.52.71-5.06,1.35c-1.06.28-2.11.55-3.17.81l-3.33.8-1.19.28-.17,0-1.29.29c-.85.2-1.7.39-2.56.57-2.52.55-5.06,1.07-7.61,1.54l-1.11.22c-1.08.2-2.17.4-3.26.58-.88.16-1.76.32-2.65.45-2.79.48-5.6.9-8.42,1.28l-.3,0-1.5.2c-1.72.23-3.44.44-5.17.64-1.14.12-2.29.25-3.44.36l-.68.07-1.69.16c-1.6.15-3.21.29-4.82.4-.94.08-1.87.15-2.81.21-3.89.26-7.79.46-11.67.61q-3.22.12-6.43.2c-3.71.08-7.41.12-11.11.09h-2c-1.3,0-2.59,0-3.89,0-2.15,0-4.28-.09-6.43-.16h0L450.9,702l-2-.08-.47,0c-1.7-.07-3.4-.15-5.1-.25-2.15-.12-4.3-.25-6.45-.41-1.49-.1-3-.21-4.47-.34q-11.31-.89-22.48-2.37h0q-4.32-.57-8.63-1.22-3.11-.46-6.21-1c-1.51-.24-3-.5-4.53-.77l-.67-.11Q383.41,694.29,377,693q-16.86-3.48-33.3-8.1l-.83-.25h0c-1-.28-2-.57-3.05-.87q-10.35-3-20.49-6.41-3.94-1.32-7.86-2.72h0l-3.64-1.31a515.14,515.14,0,0,1-65-28.9c-1.13-.59-2.26-1.2-3.39-1.8l0,0h0q-9-4.83-17.64-10l-1.73-1C163.11,597.69,96.57,544.3,89.43,471.56v0c-.09-1-.18-2-.25-3v0s0,0,0,0c-1.85-25,3.32-52.25,18.25-81.74q3.95-7.8,8.45-14.95,2.53-4.08,5.26-7.95A184.72,184.72,0,0,1,135.29,346C211.83,261.06,353,259.83,426.52,228.16h0c1-.43,2-.86,2.92-1.3,16.92-7.68,30-17.14,37.39-29.9,22.35-38.41,47.27-82.87,85.81-107.53,36.73-23.5,80.34-33.71,118.93-33.2,75.07,1,128.69,36.86,159,91.35l0,0v0c.67,1.2,1.32,2.41,2,3.64C856.37,196.22,864.71,253.27,856.61,313.67Z" transform="translate(-4.62 -51.28)"/><path class="cls-23" d="M686.81,623c-.73.57-1.47,1.13-2.21,1.69l.48.58,2.11-1.6ZM660.5,641.56q-13,8.46-26.27,15.79l-3.18,1.74-.15.08-.18.1Q614.55,668,598,675l-.2.09q-4.53,1.9-9.08,3.68-6.23,2.43-12.48,4.59c-2,.71-4,1.39-6.06,2.06h0l-3.29,1-2.68.83-2.4.73.67.57c.86-.25,1.72-.51,2.59-.79s1.93-.59,2.89-.91,2.08-.66,3.13-1h0c2.24-.73,4.47-1.5,6.71-2.29h0q5.6-2,11.18-4.14,3.19-1.24,6.36-2.55l.15-.06,2.3-.95.19-.09a382.84,382.84,0,0,0,36.47-17.66q13.27-7.3,26.24-15.77ZM598,675l-.2.09q-4.53,1.9-9.08,3.68-6.23,2.43-12.48,4.59c-2,.71-4,1.39-6.06,2.06h0l-3.29,1-2.68.83-2.4.73.67.57c.86-.25,1.72-.51,2.59-.79s1.93-.59,2.89-.91,2.08-.66,3.13-1h0c2.24-.73,4.47-1.5,6.71-2.29h0q5.6-2,11.18-4.14,3.19-1.24,6.36-2.55l.15-.06,2.3-1,.19-.08.24-.11c1.27-.55,2.54-1.12,3.8-1.69l.32-.14.45-.21,2.84-1.31.39-.18.71-.34c.85-.4,1.71-.8,2.56-1.22l.41-.19,1.21-.59,1.87-.92,1.86-.93c1.1-.55,2.19-1.1,3.28-1.67l2.25-1.17.47-.25c1-.53,2-1.08,3.06-1.63s2.13-1.15,3.19-1.74q1.93-1.06,3.85-2.16Q614.55,668,598,675Zm0,0-.2.09q-4.53,1.9-9.08,3.68-6.23,2.43-12.48,4.59c-2,.71-4,1.39-6.06,2.06h0l-3.29,1-2.68.83-2.4.73.67.57c.86-.25,1.72-.51,2.59-.79s1.93-.59,2.89-.91,2.08-.66,3.13-1h0c2.24-.73,4.47-1.5,6.71-2.29h0q5.6-2,11.18-4.14,3.19-1.24,6.36-2.55l.15-.06,2.3-1,.19-.08.24-.11c1.27-.55,2.54-1.12,3.8-1.69l.32-.14.45-.21,2.84-1.31.39-.18.71-.34c.85-.4,1.71-.8,2.56-1.22l.41-.19,1.21-.59,1.87-.92,1.86-.93c1.1-.55,2.19-1.1,3.28-1.67l2.25-1.17.47-.25c1-.53,2-1.08,3.06-1.63s2.13-1.15,3.19-1.74q1.93-1.06,3.85-2.16Q614.55,668,598,675Zm0,0-.2.09q-4.53,1.9-9.08,3.68-6.23,2.43-12.48,4.59c-2,.71-4,1.39-6.06,2.06h0l-3.29,1-2.68.83-2.4.73.67.57c.86-.25,1.72-.51,2.59-.79s1.93-.59,2.89-.91,2.08-.66,3.13-1h0c2.24-.73,4.47-1.5,6.71-2.29h0q5.6-2,11.18-4.14,3.19-1.24,6.36-2.55l.15-.06,2.3-1,.19-.08.24-.11c1.27-.55,2.54-1.12,3.8-1.69l.32-.14.45-.21,2.84-1.31.39-.18.71-.34c.85-.4,1.71-.8,2.56-1.22l.41-.19,1.21-.59,1.87-.92,1.86-.93c1.1-.55,2.19-1.1,3.28-1.67l2.25-1.17.47-.25c1-.53,2-1.08,3.06-1.63s2.13-1.15,3.19-1.74q1.93-1.06,3.85-2.16Q614.55,668,598,675Zm0,0-.2.09q-4.53,1.9-9.08,3.68-6.23,2.43-12.48,4.59c-2,.71-4,1.39-6.06,2.06h0l-3.29,1-2.68.83-2.4.73.67.57c.86-.25,1.72-.51,2.59-.79s1.93-.59,2.89-.91,2.08-.66,3.13-1h0c2.24-.73,4.47-1.5,6.71-2.29h0q5.6-2,11.18-4.14,3.19-1.24,6.36-2.55l.15-.06,2.3-1,.19-.08.24-.11c1.27-.55,2.54-1.12,3.8-1.69l.32-.14.45-.21,2.84-1.31.39-.18.71-.34c.85-.4,1.71-.8,2.56-1.22l.41-.19,1.21-.59,1.87-.92,1.86-.93c1.1-.55,2.19-1.1,3.28-1.67l2.25-1.17.47-.25c1-.53,2-1.08,3.06-1.63s2.13-1.15,3.19-1.74q1.93-1.06,3.85-2.16Q614.55,668,598,675Zm0,0-.2.09q-4.53,1.9-9.08,3.68-6.23,2.43-12.48,4.59c-2,.71-4,1.39-6.06,2.06h0l-3.29,1-2.68.83-2.4.73.67.57c.86-.25,1.72-.51,2.59-.79s1.93-.59,2.89-.91,2.08-.66,3.13-1h0c2.24-.73,4.47-1.5,6.71-2.29h0q5.6-2,11.18-4.14,3.19-1.24,6.36-2.55l.15-.06,2.3-1,.19-.08.24-.11c1.27-.55,2.54-1.12,3.8-1.69l.32-.14.45-.21,2.84-1.31.39-.18.71-.34c.85-.4,1.71-.8,2.56-1.22l.41-.19,1.21-.59,1.87-.92,1.86-.93c1.1-.55,2.19-1.1,3.28-1.67l2.25-1.17.47-.25c1-.53,2-1.08,3.06-1.63s2.13-1.15,3.19-1.74q1.93-1.06,3.85-2.16Q614.55,668,598,675Zm0,0-.2.09q-4.53,1.9-9.08,3.68-6.23,2.43-12.48,4.59c-2,.71-4,1.39-6.06,2.06h0l-3.29,1-2.68.83-2.4.73.67.57c.86-.25,1.72-.51,2.59-.79s1.93-.59,2.89-.91,2.08-.66,3.13-1h0c2.24-.73,4.47-1.5,6.71-2.29h0q5.6-2,11.18-4.14,3.19-1.24,6.36-2.55l.15-.06,2.3-1,.19-.08.24-.11c1.27-.55,2.54-1.12,3.8-1.69l.32-.14.45-.21,2.84-1.31.39-.18.71-.34c.85-.4,1.71-.8,2.56-1.22l.41-.19,1.21-.59,1.87-.92,1.86-.93c1.1-.55,2.19-1.1,3.28-1.67l2.25-1.17.47-.25c1-.53,2-1.08,3.06-1.63s2.13-1.15,3.19-1.74q1.93-1.06,3.85-2.16Q614.55,668,598,675Zm0,0-.2.09q-4.53,1.9-9.08,3.68-6.23,2.43-12.48,4.59c-2,.71-4,1.39-6.06,2.06h0l-3.29,1-2.68.83-2.4.73.67.57c.86-.25,1.72-.51,2.59-.79s1.93-.59,2.89-.91,2.08-.66,3.13-1h0c2.24-.73,4.47-1.5,6.71-2.29h0q5.6-2,11.18-4.14,3.19-1.24,6.36-2.55l.15-.06,2.3-1,.19-.08.24-.11c1.27-.55,2.54-1.12,3.8-1.69l.32-.14.45-.21,2.84-1.31.39-.18.71-.34c.85-.4,1.71-.8,2.56-1.22l.41-.19,1.21-.59,1.87-.92,1.86-.93c1.1-.55,2.19-1.1,3.28-1.67l2.25-1.17.47-.25c1-.53,2-1.08,3.06-1.63s2.13-1.15,3.19-1.74q1.93-1.06,3.85-2.16Q614.55,668,598,675ZM842.48,163.73a172,172,0,0,0-11.86-16.12v0l0,0C802.68,114,762.88,92.64,714.29,85.35c-41.35-6.2-86,0-122.54,16.86-40.08,18.55-70.15,57.14-96.68,91.19l-3,3.86c-12.44,16-34.66,24.32-62.58,29.59-20.86,4-44.89,6.16-70.42,8.5-42.67,3.92-91,8.37-135.15,22.23C173.2,273.51,136,299.39,110.25,336.72q-2.93,4.25-5.56,8.51Q100.48,352,97,358.84q-1.94,3.81-3.63,7.62c-15.29,34.38-16.63,69.56-4,105.08v0q2.49,7,5.71,14c16.72,36.46,48.23,73.32,93.64,109.54l1.58,1.25A517.9,517.9,0,0,0,246,634.74l1.12.67q2.44,1.46,4.91,2.87A498.9,498.9,0,0,0,312.24,668l4.35,1.78h0q4,1.61,8,3.13h0l.75.28h0c4.11,1.56,8.21,3.06,12.34,4.49h0q4.11,1.42,8.23,2.78l4.57,1.47.38.12h0q13.38,4.2,26.86,7.56,5.83,1.47,11.69,2.75l.91.2c1.42.31,2.83.62,4.25.91,2.27.47,4.54.93,6.81,1.36,2.53.49,5.06.95,7.6,1.4h0q11.76,2,23.51,3.39c1.39.17,2.78.33,4.17.47,2.2.23,4.4.45,6.6.64,1.14.11,2.28.21,3.42.29.81.07,1.61.14,2.41.19l1.66.12H451l.6,0c2.38.16,4.77.3,7.15.41h0c1.64.07,3.26.13,4.9.18l1.52,0h.17c2.24.05,4.49.08,6.73.08,1.45,0,2.91,0,4.36,0,2.14,0,4.29-.09,6.43-.17q7.23-.25,14.47-.86l4.81-.45,1.67-.17.67-.07L508,700c1.71-.2,3.43-.42,5.15-.66l1.45-.21a1.55,1.55,0,0,0,.29,0q4.26-.6,8.54-1.33,1.27-.21,2.55-.45c1.1-.19,2.19-.4,3.29-.61l1.13-.21q3.86-.75,7.72-1.59l2.26-.51,1.55-.35.13,0,1.14-.28c1.19-.27,2.37-.56,3.56-.86,1-.23,1.89-.46,2.84-.71,1.66-.42,3.31-.86,5-1.33,1.26-.33,2.52-.69,3.78-1h0l3.25-1c.28-.07.56-.16.85-.25.86-.25,1.72-.51,2.59-.79s1.93-.59,2.89-.91,2.08-.66,3.13-1h0c2.24-.73,4.47-1.5,6.71-2.29h0q5.6-2,11.18-4.14,3.19-1.24,6.36-2.55l.15-.06,2.3-.95.19-.09a382.84,382.84,0,0,0,36.47-17.66q13.27-7.3,26.24-15.77,4.17-2.7,8.3-5.53,5.41-3.7,10.76-7.62,2.68-1.95,5.35-4l2.11-1.6q7.17-5.46,14.22-11.29,4.37-3.62,8.69-7.36t8.36-7.43q2.79-2.52,5.53-5.1l.59-.55q3.87-3.63,7.65-7.36,6.48-6.35,12.71-13l.15-.15c55.54-58.72,97.62-131.52,118-205.51q1.5-5.46,2.8-10.89.75-3,1.41-6.09c.21-.91.4-1.82.59-2.72C882.57,277.22,873.61,211.6,842.48,163.73Zm24.68,182.39c-.2.95-.4,1.9-.62,2.85q-.7,3.18-1.47,6.37-1.26,5.18-2.69,10.37C842,439.61,800,512.33,744.49,571c-.13.15-.27.29-.41.43q-5.52,5.83-11.24,11.48-4.11,4.08-8.33,8l-.36.33c-1.88,1.79-3.79,3.55-5.7,5.28q-4.38,4-8.84,7.87-3.9,3.38-7.83,6.64-7.41,6.16-15,11.91c-.73.57-1.47,1.13-2.21,1.69-1.73,1.3-3.47,2.59-5.21,3.85q-5.28,3.87-10.62,7.53-4.11,2.84-8.27,5.54-13,8.46-26.27,15.79l-3.18,1.74-.15.08-.18.1Q614.55,668,598,675l-.2.09q-4.53,1.9-9.08,3.68-6.23,2.43-12.48,4.59c-2,.71-4,1.39-6.06,2.06h0l-3.29,1-2.68.83-2.4.73h0l-.77.23-3.3,1c-1.21.35-2.41.68-3.62,1h0c-1.59.44-3.17.86-4.76,1.26-.71.19-1.43.37-2.14.54-1.34.34-2.69.67-4,1l-1,.25h0l-2.14.5-1.62.36c-2.65.58-5.29,1.13-7.94,1.64l-1.16.22q-1.69.33-3.39.63l-2.3.4c-3,.51-5.93,1-8.89,1.39a1.15,1.15,0,0,1-.26,0q-.65.11-1.29.18c-1.7.24-3.41.46-5.12.66-1.27.16-2.53.3-3.8.43l-.61.07-1.6.16c-1.6.16-3.2.31-4.79.44q-7.25.61-14.49.87c-2.12.08-4.25.13-6.37.16-3.66,0-7.31,0-11-.05h-.16l-.63,0h0c-2.38,0-4.75-.14-7.13-.26-1.92-.09-3.83-.21-5.75-.34l-.41,0-.48,0-1.23-.09c-1-.06-1.94-.14-2.92-.23s-2.14-.17-3.21-.27c-2.24-.2-4.47-.41-6.71-.66-1.33-.13-2.66-.28-4-.44q-11.93-1.38-23.86-3.47h-.06q-3.63-.63-7.26-1.33t-7-1.4c-1.39-.29-2.78-.58-4.17-.89l-1-.22h0q-5.73-1.25-11.44-2.69-13-3.23-25.9-7.27l-.34-.11q-2.65-.82-5.31-1.69c-3-1-6-2-9-3h0q-5.7-2-11.36-4.13c-.53-.19-1.05-.39-1.58-.6q-3.64-1.38-7.28-2.84-2.24-.88-4.45-1.81h0a500.72,500.72,0,0,1-60.08-29.61q-2.52-1.46-5-3l-1.2-.72a516.73,516.73,0,0,1-55.62-38.37l-1.57-1.25c-45.32-36.16-76.75-72.92-93.43-109.27a167.45,167.45,0,0,1-6.65-16.75v0s0,0,0,0C77.66,434.17,79.27,400.24,94,367q1.76-4,3.77-7.94,3.61-7.12,8-14.19,2.43-3.89,5.1-7.76c25.68-37.19,62.73-63,113.27-78.86,44.05-13.83,92.37-18.27,135-22.19,24.28-2.23,47.23-4.34,67.39-7.94h0c29.51-5.27,53.06-13.73,66.09-30.43l3-3.86c26.48-34,56.49-72.49,96.4-91,36.4-16.85,80.9-23,122.12-16.8,49.92,7.49,90.54,29.91,118.41,65.16q4.9,6.18,9.26,12.89C872.88,211.86,881.8,277.31,867.16,346.12ZM598,675l-.2.09q-4.53,1.9-9.08,3.68-6.23,2.43-12.48,4.59c-2,.71-4,1.39-6.06,2.06h0l-3.29,1-2.68.83-2.4.73.67.57c.86-.25,1.72-.51,2.59-.79s1.93-.59,2.89-.91,2.08-.66,3.13-1h0c2.24-.73,4.47-1.5,6.71-2.29h0q5.6-2,11.18-4.14,3.19-1.24,6.36-2.55l.15-.06,2.3-1,.19-.08.24-.11c1.27-.55,2.54-1.12,3.8-1.69l.32-.14.45-.21,2.84-1.31.39-.18.71-.34c.85-.4,1.71-.8,2.56-1.22l.41-.19,1.21-.59,1.87-.92,1.86-.93c1.1-.55,2.19-1.1,3.28-1.67l2.25-1.17.47-.25c1-.53,2-1.08,3.06-1.63s2.13-1.15,3.19-1.74q1.93-1.06,3.85-2.16Q614.55,668,598,675Zm0,0-.2.09q-4.53,1.9-9.08,3.68-6.23,2.43-12.48,4.59c-2,.71-4,1.39-6.06,2.06h0l-3.29,1-2.68.83-2.4.73.67.57c.86-.25,1.72-.51,2.59-.79s1.93-.59,2.89-.91,2.08-.66,3.13-1h0c2.24-.73,4.47-1.5,6.71-2.29h0q5.6-2,11.18-4.14,3.19-1.24,6.36-2.55l.15-.06,2.3-1,.19-.08.24-.11c1.27-.55,2.54-1.12,3.8-1.69l.32-.14.45-.21,2.84-1.31.39-.18.71-.34c.85-.4,1.71-.8,2.56-1.22l.41-.19,1.21-.59,1.87-.92,1.86-.93c1.1-.55,2.19-1.1,3.28-1.67l2.25-1.17.47-.25c1-.53,2-1.08,3.06-1.63s2.13-1.15,3.19-1.74q1.93-1.06,3.85-2.16Q614.55,668,598,675Zm0,0-.2.09q-4.53,1.9-9.08,3.68-6.23,2.43-12.48,4.59c-2,.71-4,1.39-6.06,2.06h0l-3.29,1-2.68.83-2.4.73.67.57c.86-.25,1.72-.51,2.59-.79s1.93-.59,2.89-.91,2.08-.66,3.13-1h0c2.24-.73,4.47-1.5,6.71-2.29h0q5.6-2,11.18-4.14,3.19-1.24,6.36-2.55l.15-.06,2.3-1,.19-.08.24-.11c1.27-.55,2.54-1.12,3.8-1.69l.32-.14.45-.21,2.84-1.31.39-.18.71-.34c.85-.4,1.71-.8,2.56-1.22l.41-.19,1.21-.59,1.87-.92,1.86-.93c1.1-.55,2.19-1.1,3.28-1.67l2.25-1.17.47-.25c1-.53,2-1.08,3.06-1.63s2.13-1.15,3.19-1.74q1.93-1.06,3.85-2.16Q614.55,668,598,675Zm0,0-.2.09q-4.53,1.9-9.08,3.68-6.23,2.43-12.48,4.59c-2,.71-4,1.39-6.06,2.06h0l-3.29,1-2.68.83-2.4.73.67.57c.86-.25,1.72-.51,2.59-.79s1.93-.59,2.89-.91,2.08-.66,3.13-1h0c2.24-.73,4.47-1.5,6.71-2.29h0q5.6-2,11.18-4.14,3.19-1.24,6.36-2.55l.15-.06,2.3-1,.19-.08.24-.11c1.27-.55,2.54-1.12,3.8-1.69l.32-.14.45-.21,2.84-1.31.39-.18.71-.34c.85-.4,1.71-.8,2.56-1.22l.41-.19,1.21-.59,1.87-.92,1.86-.93c1.1-.55,2.19-1.1,3.28-1.67l2.25-1.17.47-.25c1-.53,2-1.08,3.06-1.63s2.13-1.15,3.19-1.74q1.93-1.06,3.85-2.16Q614.55,668,598,675Zm0,0-.2.09q-4.53,1.9-9.08,3.68-6.23,2.43-12.48,4.59c-2,.71-4,1.39-6.06,2.06h0l-3.29,1-2.68.83-2.4.73.67.57c.86-.25,1.72-.51,2.59-.79s1.93-.59,2.89-.91,2.08-.66,3.13-1h0c2.24-.73,4.47-1.5,6.71-2.29h0q5.6-2,11.18-4.14,3.19-1.24,6.36-2.55l.15-.06,2.3-1,.19-.08.24-.11c1.27-.55,2.54-1.12,3.8-1.69l.32-.14.45-.21,2.84-1.31.39-.18.71-.34c.85-.4,1.71-.8,2.56-1.22l.41-.19,1.21-.59,1.87-.92,1.86-.93c1.1-.55,2.19-1.1,3.28-1.67l2.25-1.17.47-.25c1-.53,2-1.08,3.06-1.63s2.13-1.15,3.19-1.74q1.93-1.06,3.85-2.16Q614.55,668,598,675Zm0,0-.2.09q-4.53,1.9-9.08,3.68-6.23,2.43-12.48,4.59c-2,.71-4,1.39-6.06,2.06h0l-3.29,1-2.68.83-2.4.73.67.57c.86-.25,1.72-.51,2.59-.79s1.93-.59,2.89-.91,2.08-.66,3.13-1h0c2.24-.73,4.47-1.5,6.71-2.29h0q5.6-2,11.18-4.14,3.19-1.24,6.36-2.55l.15-.06,2.3-1,.19-.08.24-.11c1.27-.55,2.54-1.12,3.8-1.69l.32-.14.45-.21,2.84-1.31.39-.18.71-.34c.85-.4,1.71-.8,2.56-1.22l.41-.19,1.21-.59,1.87-.92,1.86-.93c1.1-.55,2.19-1.1,3.28-1.67l2.25-1.17.47-.25c1-.53,2-1.08,3.06-1.63s2.13-1.15,3.19-1.74q1.93-1.06,3.85-2.16Q614.55,668,598,675Zm0,0-.2.09q-4.53,1.9-9.08,3.68-6.23,2.43-12.48,4.59c-2,.71-4,1.39-6.06,2.06h0l-3.29,1-2.68.83-2.4.73.67.57c.86-.25,1.72-.51,2.59-.79s1.93-.59,2.89-.91,2.08-.66,3.13-1h0c2.24-.73,4.47-1.5,6.71-2.29h0q5.6-2,11.18-4.14,3.19-1.24,6.36-2.55l.15-.06,2.3-1,.19-.08.24-.11c1.27-.55,2.54-1.12,3.8-1.69l.32-.14.45-.21,2.84-1.31.39-.18.71-.34c.85-.4,1.71-.8,2.56-1.22l.41-.19,1.21-.59,1.87-.92,1.86-.93c1.1-.55,2.19-1.1,3.28-1.67l2.25-1.17.47-.25c1-.53,2-1.08,3.06-1.63s2.13-1.15,3.19-1.74q1.93-1.06,3.85-2.16Q614.55,668,598,675Z" transform="translate(-4.62 -51.28)"/><polygon class="cls-2" points="879.55 296.84 859.65 304.35 830.02 307.89 805.71 300.81 788.02 302.14 800.29 296.84 807.92 289.32 827.04 282.69 851.39 287.11 860.73 294.62 879.55 296.84"/><polygon class="cls-3" points="859.65 304.35 830.02 307.89 805.71 300.81 788.02 302.14 807.33 296.84 829.43 299.49 835.55 303.61 849.13 298.31 859.65 304.35"/><polygon class="cls-4" points="849.13 298.31 879.55 296.84 859.65 304.35 849.13 298.31"/><polygon class="cls-4" points="800.29 296.84 807.33 296.84 788.02 302.14 800.29 296.84"/><polygon class="cls-7" points="829.43 299.49 845.06 294.62 849.13 298.31 835.55 303.61 829.43 299.49"/><polygon class="cls-4" points="860.73 294.62 849.13 292.41 857.17 291.75 860.73 294.62"/><path class="cls-24" d="M348.62,313.51s-47.1-8-78.05,2.51,87.05,25.49,87.05,25.49Z" transform="translate(-4.62 -51.28)"/><path class="cls-24" d="M115.2,621.65s33.42-21.14,75.42,4.86,85,34,119,5,136,23,136,23,34-39,10-89-64-189-60-202-92,58-92,58l-10-100s-122,81-142,190S115.2,621.65,115.2,621.65Z" transform="translate(-4.62 -51.28)"/><path class="cls-25" d="M445.62,640.51c-4.26,21.31-62.52,79-95.91,110.55-13.61,12.89-23.09,21.45-23.09,21.45a111.39,111.39,0,0,1,1.23,37.1,3.41,3.41,0,0,1-5.93,1.8c-1.15-1.31-2.47-2.85-3.89-4.58-9.49-11.57-23.78-31.94-26.41-52.32L320,720.35l30.69-37h0l38.91-46.85,0,0-35-55s-.19.77-.53,2.18l-.07.3c-3.21,13.09-18.48,74.26-27.4,88.52-7.28,11.65-59.08,74.71-86.71,108.15-10.34,12.49-17.29,20.85-17.29,20.85s14,44,8,53c-3.91,5.87-19.75-12.09-32.22-28.62-6.65-8.81-12.34-17.21-14.78-21.38,0,0-7-8-3-12,1.5-1.5,11.28-16.48,23.45-35.36,20.32-31.51,47.3-73.89,53.55-82.64,10-14,23-44,23-44l-3-101,14-12,9-1.74,89-17.26S451.62,610.51,445.62,640.51Z" transform="translate(-4.62 -51.28)"/><path class="cls-26" d="M222.62,801.51s14,44,8,53-40-38-47-50c0,0-7-8-3-12,1.5-1.5,11.28-16.48,23.45-35.36,3.79,7.35,13.2,18.8,35.84,23.51C229.57,793.15,222.62,801.51,222.62,801.51Z" transform="translate(-4.62 -51.28)"/><path class="cls-27" d="M298.12,640c-13,31-65,68-73,102s-45,39-32,71c2,5,3.76,9.22,5.28,12.88-6.65-8.81-12.34-17.21-14.78-21.38,0,0-7-8-3-12,1.5-1.5,11.28-16.48,23.45-35.36,20.32-31.51,47.3-73.89,53.55-82.64,10-14,23-44,23-44l-3-101,14-12,9-1.74C302.61,535.76,309.4,613.11,298.12,640Z" transform="translate(-4.62 -51.28)"/><path class="cls-28" d="M308.62,560.51a33,33,0,0,1-.62,6.91,10.35,10.35,0,0,1-2.38,5.09c-3,3-17,4-22,2-3.16-1.26-8.32-11.31-11.68-18.54-2-4.21-3.32-7.46-3.32-7.46l.79-.83c3.16-3.3,14.9-15.31,19.21-16.17,1.65-.33,3.94.86,6.39,2.72,5,3.76,10.6,10.27,12.61,12.28C310.62,549.51,308.62,558.51,308.62,560.51Z" transform="translate(-4.62 -51.28)"/><path class="cls-29" d="M503.62,225.51s-12.74,51-20.74,76.81c-2.27,7.33-4.15,12.64-5.26,14.19s-4.84,4.87-10.28,9.45l-.11.09c-21.41,18-67.61,53.46-67.61,53.46l-.33,5.09-.51,7.87v.12l-7.16,110.92a107.87,107.87,0,0,1-17.91,9,138.16,138.16,0,0,1-21.92,6.77,126.1,126.1,0,0,1-32.18,2.86,117.59,117.59,0,0,1-28-4.59s-9-51-6-95c1.9-27.91-3-49-6.9-60.66l-.15-.44c-.94-2.81-1.81-5.05-2.5-6.69-.88-2.11-1.45-3.21-1.45-3.21s0-5.48,6.9-9.55a20.38,20.38,0,0,1,1.93-1,33.35,33.35,0,0,1,8.17-2.44l7.55-1.4L300,337l2.91-.54,2-.37,83.75-15.54,58-33,36-74S503.62,211.51,503.62,225.51Z" transform="translate(-4.62 -51.28)"/><path class="cls-30" d="M319.61,522.1a117.59,117.59,0,0,1-28-4.59s-9-51-6-95c1.9-27.91-3-49-6.9-60.66l-.15-.44c-.94-2.81-1.81-5.05-2.5-6.69l23.1-17.61.55-.42.24.27c2.23,2.62,19.46,24.22,9.16,56.05C299.09,424,279.08,488.27,319.61,522.1Z" transform="translate(-4.62 -51.28)"/><path class="cls-31" d="M373.71,512.47a138.16,138.16,0,0,1-21.92,6.77,121.4,121.4,0,0,1-60.17-1.73s-9-51-6-95c1.9-27.91-3-49-6.9-60.66l-.15-.44c1.09-7.41,2.1-14,2.95-19.45,1.56-9.9,2.6-15.95,2.6-15.95l20.75,10,10.25,5s20,22,18,47S305.3,465.93,373.71,512.47Z" transform="translate(-4.62 -51.28)"/><path class="cls-27" d="M295,534.23A23.22,23.22,0,0,1,290.12,547c-5.69,7.11-13.91,8.66-18.18,9-2-4.21-3.32-7.46-3.32-7.46l.79-.83c3.16-3.3,14.9-15.31,19.21-16.17C290.27,531.18,292.56,532.37,295,534.23Z" transform="translate(-4.62 -51.28)"/><path class="cls-27" d="M308,567.42a10.35,10.35,0,0,1-2.38,5.09c-3,3-17,4-22,2s-15-26-15-26l.79-.83a5.78,5.78,0,0,1,3.09,1S277.12,570,286.12,573,306.89,568.83,308,567.42Z" transform="translate(-4.62 -51.28)"/><path class="cls-32" d="M351.79,519.24a121.4,121.4,0,0,1-60.17-1.73s-9-51-6-95c1.9-27.91-3-49-6.9-60.66l4.73-20.9c.43-1.86.67-2.94.67-2.94l18.75-1.59,6.4-.54S337.12,365,318.12,407C301.37,444,308.71,503.6,351.79,519.24Z" transform="translate(-4.62 -51.28)"/><path class="cls-33" d="M302.62,384.51c-1,18-25,72-25,76s16,71,16,71a22.49,22.49,0,0,1-6.5,11.54,19,19,0,0,1-3.73,2.69,25.72,25.72,0,0,1-14.77,2.77s-24-40-32-63,3-57,12-99c5.71-26.63,19.62-38.35,29-43.36a37.34,37.34,0,0,1,8.45-3.34c.6-.16.93-.21.93-.21C307.46,345.69,303.62,366.51,302.62,384.51Z" transform="translate(-4.62 -51.28)"/><path class="cls-34" d="M353.12,349l11,11c2,2,12,6,17,2,0,0-5,7-14,2s-14-9-18-10S353.12,349,353.12,349Z" transform="translate(-4.62 -51.28)"/><path class="cls-35" d="M287.12,543.05a19,19,0,0,1-3.73,2.69,25.72,25.72,0,0,1-14.77,2.77s-24-40-32-63,3-57,12-99c5.71-26.63,19.62-38.35,29-43.36,1,3.31-.79,9.26-6.24,17.45C255.71,384.2,245.12,437,252.12,480S287.12,543.05,287.12,543.05Z" transform="translate(-4.62 -51.28)"/><path class="cls-34" d="M283.39,545.74a25.72,25.72,0,0,1-14.77,2.77s-24-40-32-63,3-57,12-99c8.05-37.56,32.43-45.46,37.49-46.7l1,.2s-38,42-41,84,3,50,2,64C247.26,500,264.07,543.69,283.39,545.74Z" transform="translate(-4.62 -51.28)"/><path class="cls-36" d="M259.65,359.6s17.28-18.82,46.87-12.2S346.12,363,353.12,360s7-12.63,3-15.31-58-16.5-73-12.59S259.65,359.6,259.65,359.6Z" transform="translate(-4.62 -51.28)"/><path class="cls-37" d="M252.42,373.55S271.12,349,305.12,352s36,14,49,11,3.71-22.26-4.65-27.13S306.12,329,287.12,333,252.72,369.09,252.42,373.55Z" transform="translate(-4.62 -51.28)"/><path class="cls-24" d="M399.62,245.51c-2,5-13.23,22-13.23,22l-.08-.79-.69-7.18-11.91-10.13,1.91-9.87,7.39-7.86,1.5-1.59S401.62,240.51,399.62,245.51Z" transform="translate(-4.62 -51.28)"/><path class="cls-38" d="M326.62,772.51a111.39,111.39,0,0,1,1.23,37.1,3.41,3.41,0,0,1-5.93,1.8c-8.83-10-27.28-33.47-30.3-56.9L320,720.35c4.59,8.24,14.09,22.07,29.72,30.71C336.1,764,326.62,772.51,326.62,772.51Z" transform="translate(-4.62 -51.28)"/><path class="cls-28" d="M488.62,192.51s7-15,13-19-2,9-3,11-4,10-4,10Z" transform="translate(-4.62 -51.28)"/><path class="cls-28" d="M493.62,197.51l-1-2s11-19,16-23,1,5-2,10-8,16-8,16Z" transform="translate(-4.62 -51.28)"/><path class="cls-28" d="M497.62,199.51s10-21,14-23-2,11-3,14-3,8-3,11S497.62,199.51,497.62,199.51Z" transform="translate(-4.62 -51.28)"/><path class="cls-28" d="M503.62,204.51s6-20,9-22-4.5,23.55-4.5,23.55Z" transform="translate(-4.62 -51.28)"/><path class="cls-39" d="M488.62,192.51s7-15,13-19-2,9-3,11-4,10-4,10Z" transform="translate(-4.62 -51.28)"/><path class="cls-40" d="M493.62,197.51l-1-2s11-19,16-23,1,5-2,10-8,16-8,16Z" transform="translate(-4.62 -51.28)"/><path class="cls-41" d="M497.62,199.51s10-21,14-23-2,11-3,14-3,8-3,11S497.62,199.51,497.62,199.51Z" transform="translate(-4.62 -51.28)"/><path class="cls-42" d="M503.62,204.51s6-20,9-22-4.5,23.55-4.5,23.55Z" transform="translate(-4.62 -51.28)"/><path class="cls-43" d="M399.62,643.51s-4.79-3.2-10-7l0,0-35-55s-.19.77-.53,2.18l8.53-37.18s0,34,19,60S399.62,643.51,399.62,643.51Z" transform="translate(-4.62 -51.28)"/><path class="cls-44" d="M379.12,343s7,5,12,5-2-16-2-16h-20Z" transform="translate(-4.62 -51.28)"/><path class="cls-37" d="M390.56,333s6.56,15,2.56,18-16-9-16-9l-1-9Z" transform="translate(-4.62 -51.28)"/><polygon class="cls-43" points="395 592.24 316 669.24 385 585.24 395 592.24"/><path class="cls-45" d="M370.62,318.68s14,5.83,19,12.83,6,21.08-9.5,9.54l-9.5-12.54Z" transform="translate(-4.62 -51.28)"/><path class="cls-24" d="M380.67,336.69S375.12,326,363.12,324c0,0,9,1,15,3a19.69,19.69,0,0,1,9,6Z" transform="translate(-4.62 -51.28)"/><path class="cls-46" d="M399.62,245.51c-2,5-13.23,22-13.23,22l-.08-.79C390,261,397.12,249.44,397.12,245s-9.26-10.49-14.11-13.36l1.5-1.59S401.62,240.51,399.62,245.51Z" transform="translate(-4.62 -51.28)"/><path class="cls-28" d="M482.62,213.51s-1-28-2-32-1-7,3-3,6,12,6,12,15,6,18,10-4.48,21.63-4.48,21.63Z" transform="translate(-4.62 -51.28)"/><path class="cls-47" d="M387.71,332.15c1.87,2.55,1.64,5.43-.51,6.44s-5.42-.24-7.29-2.79a5.89,5.89,0,0,1-1.26-3.6,3.08,3.08,0,0,1,1.78-2.84C382.58,328.36,385.84,329.6,387.71,332.15Z" transform="translate(-4.62 -51.28)"/><path class="cls-48" d="M387.71,332.15c2.59,5.3-2.64,5.66-5.7,3.87s-3.36-3.81-3.36-3.81h0a3.08,3.08,0,0,1,1.78-2.84C382.58,328.36,385.84,329.6,387.71,332.15Z" transform="translate(-4.62 -51.28)"/><path class="cls-49" d="M384.16,331.47c.39-.18.44-.71.1-1.17a1.39,1.39,0,0,0-.85-.55.74.74,0,0,0-.47.05c-.39.18-.44.7-.1,1.16A1.18,1.18,0,0,0,384.16,331.47Z" transform="translate(-4.62 -51.28)"/><path class="cls-49" d="M382.64,332.65c.25-.12.28-.46.06-.76a.88.88,0,0,0-.55-.35.44.44,0,0,0-.3,0c-.25.11-.28.45-.06.75A.76.76,0,0,0,382.64,332.65Z" transform="translate(-4.62 -51.28)"/><path class="cls-28" d="M370.62,328.51s14,16,14,23c0,5.55-6.28,11.1-15.86,6.19h0a33.08,33.08,0,0,1-8.13-6.18c-14-14-21-22-22-22-.69,0,.52-14.74,1.34-23.89.37-4.12.66-7.11.66-7.11s-14-5-15-17,25-33,25-33l15-6,20,17,3,31-9,21-8,.89h0l-.95.11Z" transform="translate(-4.62 -51.28)"/><path class="cls-50" d="M368.75,357.69a33.08,33.08,0,0,1-8.13-6.18c-14-14-21-22-22-22-.69,0,.52-14.74,1.34-23.89,2.23-2,4-3.46,4.15-3.59-.23.64-6.8,19.14,4,28C359.12,339,357.38,350.36,368.75,357.69Z" transform="translate(-4.62 -51.28)"/><path class="cls-51" d="M381.62,242.51c-4.17,5.84-27.13,19.33-34.63,23.65-1.49.86-2.37,1.35-2.37,1.35l0,.1,4,22.9c-7-14-15-10-15-5s8,10,10,13,1,3,1,3L340.77,308l-.8,1.35-.11.18a.69.69,0,0,0-.08-.2c-.37-.6-2.17-2.54-11.16-5.81-11-4-16-12-19-20-2.58-6.88,8.15-16.72,11.21-19.34h0c.48-.42.77-.65.77-.65s-11.32.87-16.89-3.07a9.26,9.26,0,0,1-1.11-.93c-5-5,26-21,26-21l-.27,0c-1.86-.29-12.86-2.12-18-5.85-1.64-1.17-2.69-2.54-2.69-4.11,0-6.52,27.77-12.17,31.57-12.92l.43-.08a91.26,91.26,0,0,1-8.08-9.45,44,44,0,0,1-2.66-4.05,24.42,24.42,0,0,1-1.26-2.5c-3-7,16-1,22,0s33,21,33,21S386.62,235.51,381.62,242.51Z" transform="translate(-4.62 -51.28)"/><path class="cls-52" d="M371.57,312.4l-.95.11v12.3c-7.94-4.4-13.77-15.85-14-16.29C361.63,310.51,371.57,312.4,371.57,312.4Z" transform="translate(-4.62 -51.28)"/><path class="cls-53" d="M356.62,352.51c-1.66,2-3,3.43-5.41,3.94-4.43,1-12.53-1.13-33-8.53l-6.61-2.41c-38-14-81,44-81,44s-19,23-35,58-19,161-87,176a121.82,121.82,0,0,1-17.76,2.59,104.31,104.31,0,0,1-31.77-2.57,100.29,100.29,0,0,1-21.81-8,104.92,104.92,0,0,1-24.52-17.17,81.7,81.7,0,0,1-7.57-8.08c-.38-.48-.57-.74-.57-.74,49-7,77-39,143-159s138-123,168-114a91.14,91.14,0,0,1,14.92,5.94l.07,0C350.76,332.68,360.71,347.61,356.62,352.51Z" transform="translate(-4.62 -51.28)"/><path class="cls-24" d="M332.49,342.74S328.12,332,309.12,326s-34-3-34-3,20-7,41-1,28,11,30,14-7,4-7,4Z" transform="translate(-4.62 -51.28)"/><path class="cls-54" d="M351.21,356.45c-4.43,1-12.53-1.13-33-8.53l-6.61-2.41c-38-14-81,44-81,44s-19,23-35,58-19,161-87,176c-19.05,4.2-35.59,3.38-49.53,0a103.47,103.47,0,0,1-46.33-25.2c11.58-.71,25.86-3.41,43.36-9.32,71-24,117-180,157-220s85-39,103-28A146.15,146.15,0,0,0,351.21,356.45Z" transform="translate(-4.62 -51.28)"/><path class="cls-47" d="M345.83,335.75c3.89,3.73,4.36,8.64,1,11s-9.17,1.2-13.06-2.53a10.07,10.07,0,0,1-3.19-5.67,5.26,5.26,0,0,1,2.15-5.3C336.08,330.9,341.93,332,345.83,335.75Z" transform="translate(-4.62 -51.28)"/><path class="cls-55" d="M345.83,335.75c5.91,8.15-2.76,10.3-8.45,8.19s-6.76-5.41-6.76-5.41h0a5.26,5.26,0,0,1,2.15-5.3C336.08,330.9,341.93,332,345.83,335.75Z" transform="translate(-4.62 -51.28)"/><path class="cls-49" d="M339.66,335.66c.6-.42.52-1.31-.19-2a2.36,2.36,0,0,0-1.59-.68,1.37,1.37,0,0,0-.78.22c-.6.43-.51,1.32.19,2A2,2,0,0,0,339.66,335.66Z" transform="translate(-4.62 -51.28)"/><path class="cls-49" d="M337.45,338.09c.39-.27.34-.85-.12-1.29a1.53,1.53,0,0,0-1-.43.77.77,0,0,0-.5.14c-.39.27-.34.85.12,1.28A1.3,1.3,0,0,0,337.45,338.09Z" transform="translate(-4.62 -51.28)"/><path class="cls-51" d="M318.23,347.92l-6.61-2.41c-38-14-81,44-81,44s-19,23-35,58-19,161-87,176a121.82,121.82,0,0,1-17.76,2.59,104.31,104.31,0,0,1-31.77-2.57C129.61,595.54,148,517.07,177.77,451a303.18,303.18,0,0,1,20.32-38.65c2.87-4.53,5.9-8.91,9.11-13.1.3-.41.61-.81.92-1.21C270.27,318.11,317,347.12,318.23,347.92Z" transform="translate(-4.62 -51.28)"/><path class="cls-56" d="M330.54,322.45C294,306.89,263.12,313,208.12,360s-83,154-133,200c-28.7,26.4-53.78,31.06-69.93,30.24-.38-.48-.57-.74-.57-.74,49-7,77-39,143-159s138-123,168-114A91.14,91.14,0,0,1,330.54,322.45Z" transform="translate(-4.62 -51.28)"/><path class="cls-57" d="M381.62,242.51c-4.17,5.84-27.13,19.33-34.63,23.65-6.44,2.21-11.28,3.85-11.28,3.85s32.41-21,33.41-40c.91-17.26-25.41-27.09-39.24-28a24.42,24.42,0,0,1-1.26-2.5c-3-7,16-1,22,0s33,21,33,21S386.62,235.51,381.62,242.51Z" transform="translate(-4.62 -51.28)"/><path class="cls-31" d="M482.88,302.32c-2.27,7.33-4.15,12.64-5.26,14.19-5,7-78,63-78,63l-.84,13L400.12,352S448.64,342.62,482.88,302.32Z" transform="translate(-4.62 -51.28)"/><path class="cls-58" d="M467.23,326.05c-21.41,18-67.61,53.46-67.61,53.46l-.33,5.09.58-25S422.33,362.1,467.23,326.05Z" transform="translate(-4.62 -51.28)"/><path class="cls-27" d="M348.4,693.43S299.12,746,302.12,759s2,24,11,38a43.42,43.42,0,0,1,4.91,9.82c-9.49-11.57-23.78-31.94-26.41-52.32L320,720.35l30.69-37h0C354.2,682.75,354.94,684.88,348.4,693.43Z" transform="translate(-4.62 -51.28)"/><path class="cls-59" d="M226.09,368.06c-.56.82-8.32,12.4-18.89,31.16-14.86,26.37-35.28,66.93-49.08,111.79-17.29,56.2-44.45,96.31-67.26,115.09a104.31,104.31,0,0,1-31.77-2.57,100.29,100.29,0,0,1-21.81-8c27.21-9.76,84.4-38.13,115.74-110.82,8.8-20.4,17.11-38.25,24.75-53.71,7.47-15.1,14.3-27.93,20.32-38.65C214.83,382.54,225.36,369,226.09,368.06Z" transform="translate(-4.62 -51.28)"/><path class="cls-60" d="M346.12,293s-3-8-6-9-3,3-2,4c0,0-1-2,1-2,0,0-1,2,2,4a17.9,17.9,0,0,1,5,6Z" transform="translate(-4.62 -51.28)"/><path class="cls-61" d="M381.62,242.51c-5,7-37,25-37,25l0,.1L332.15,272c1.05-.58,34.94-19.15,42.89-29.49,8.08-10.5,8.08-17.5-.92-24.5s-20-17-31-19-15.16-1.9-10.58,7.05a35.19,35.19,0,0,1-3.92-6.55c-3-7,16-1,22,0s33,21,33,21S386.62,235.51,381.62,242.51Z" transform="translate(-4.62 -51.28)"/><path class="cls-62" d="M340.19,215.59c2.6.53,4.9,1.16,6.51,1.65a24.3,24.3,0,0,0-3.58-.23c-5,0-18,4-27,7s-4.81,8.61-4.81,8.61c-1.64-1.17-2.69-2.54-2.69-4.11C308.62,222,336.39,216.34,340.19,215.59Z" transform="translate(-4.62 -51.28)"/><path class="cls-63" d="M333.12,239s-25.25,13-28.39,21.43a9.26,9.26,0,0,1-1.11-.93c-5-5,26-21,26-21l-.27,0A7.94,7.94,0,0,1,333.12,239Z" transform="translate(-4.62 -51.28)"/><path class="cls-51" d="M356.11,273.57l-1-.11c1-9.37,8-8.95,8-8.94l-.07,1C362.84,265.5,357.05,265.18,356.11,273.57Z" transform="translate(-4.62 -51.28)"/><path class="cls-51" d="M384.15,267.69c-1.47-3.92-2.86-5-3.76-5.19a1.65,1.65,0,0,0-1.42.37l-.71-.71a2.67,2.67,0,0,1,2.33-.64c1.67.37,3.18,2.32,4.49,5.82Z" transform="translate(-4.62 -51.28)"/><ellipse class="cls-51" cx="358.5" cy="222.24" rx="1.5" ry="4"/><ellipse class="cls-51" cx="376.5" cy="218.24" rx="1.13" ry="3"/><path class="cls-64" d="M376.39,271l6.91,11.76-6.22,4.83S384,283.46,376.39,271Z" transform="translate(-4.62 -51.28)"/><path class="cls-51" d="M372.63,295a7.49,7.49,0,0,1-2.19-.32,8.93,8.93,0,0,1-5.27-5l.89-.45a7.14,7.14,0,0,0,10.31,3.79l.49.87A9.3,9.3,0,0,1,372.63,295Z" transform="translate(-4.62 -51.28)"/><path class="cls-65" d="M346.73,255.64a1.48,1.48,0,0,0,2.22,1.9c8.29-7.25,20.81-18.43,22.29-21,2.23-3.91,0-7.27-6.15-4.47C361.08,233.87,352.34,246.82,346.73,255.64Z" transform="translate(-4.62 -51.28)"/><path class="cls-66" d="M342.32,309.52s-.87,0-2.35-.18l-.19,0c-.37-.6-2.17-2.54-11.16-5.81-11-4-16-12-19-20-2.58-6.88,8.15-16.72,11.21-19.34h0c-15.26,15.14-4.72,28.84,3.28,31.84,6.11,2.29,13.5,9,16.65,12C341.75,308.93,342.32,309.52,342.32,309.52Z" transform="translate(-4.62 -51.28)"/><path class="cls-67" d="M973.26,643.38a52,52,0,0,1-14.19,14.78s-153.46-15.22-264.55-58.47-127.2-84.06-82.37-122,42.11-108.14,42.11-108.14,61.19-45.18,108.64-38.95c38.52,5.06,52.88,32.09,72.22,81.4,4.48,11.42,9.23,24,14.6,37.8,28.59,73.42,118.69,94.67,130.52,141.27C986.39,615.32,980.41,632.49,973.26,643.38Z" transform="translate(-4.62 -51.28)"/><path class="cls-68" d="M973.26,643.38c18.26-67.25-42.75-97.23-86.35-132.77-48.21-39.3-60.29-101.94-60.29-101.94l8.5,3.33c4.48,11.42,9.23,24,14.6,37.8,28.59,73.42,118.69,94.67,130.52,141.27C986.39,615.32,980.41,632.49,973.26,643.38Z" transform="translate(-4.62 -51.28)"/><path class="cls-69" d="M938.06,721.69c-8.85,12.57-23.26,23.81-38.58,33.21l-.63.4-.13.07,0,0c-22.44,13.66-46.68,23.41-58.22,27.7l-.73.28-.52.19-.5.18-1,.37-2.05.74c-.43.15-.81.27-1.12.39l-.54.17,0,0-.35.12.33-.41c.12-.18.3-.41.51-.69,7.42-9.7,59-80.83-10.56-96.54-.83-.19-1.68-.37-2.54-.54C742.65,671.76,736,693.12,679.09,656c-26.06-17-52.92-18.68-74.38-15.52a134.84,134.84,0,0,0-40.91,13c-1.58.82-2.42,1.32-2.42,1.32a8.08,8.08,0,0,1-.57-.6c-3.09-3.37-17.25-21.64-6.85-62.76,11.63-45.94,98.49-105.9,115.78-165.24s13.8-97,13.8-97l31.59-11.28S727.64,312,746.07,315q2.71.44,5.6,1.14h0c1.09.26,2.19.56,3.32.9a0,0,0,0,1,0,0c1.27.38,2.55.79,3.86,1.27a81.06,81.06,0,0,1,13.8,6.56,122.1,122.1,0,0,1,16.66,12c24.2,20.59,42.9,51.68,47.18,84.42,5.22,39.92,1.34,63.62,78.24,135.42S964.84,683.64,938.06,721.69Z" transform="translate(-4.62 -51.28)"/><path class="cls-70" d="M770.67,340.14s28.89,5.19,41.43,57.84,7.4,98.45,50.47,140.52,81,64.87,80.14,126.9-88,110.13-88,110.13,79.22-114.55,47-153.1S788.83,510,785.75,468.82,770.67,340.14,770.67,340.14Z" transform="translate(-4.62 -51.28)"/><path class="cls-70" d="M657.44,493.83c-1.09,1.95-26.1,86.88-27.24,89.83-.61,1.57-11.71,33-25.49,56.8a134.84,134.84,0,0,0-40.91,13c-17.87-34.14-3.3-76.33,31.27-110.5a598.21,598.21,0,0,0,63.59-75.1S658.53,491.88,657.44,493.83Z" transform="translate(-4.62 -51.28)"/><path class="cls-67" d="M757.4,360.1l-42.87-41.52-2.81.35s7.56-5.8,9.33-14.59-4.74-3.69-8.8,2.81l1.25-10.72a65.7,65.7,0,0,1-11.26,6s9.5-6.32,14.42-12.65c0,0-9.48,6.3-19.13,8.94.83-.38,14.16-6.54,19.29-14.37-.49.58-8.59,9.74-25.61,11a52.83,52.83,0,0,1-6.89.32,24.23,24.23,0,0,0,5.67-2.32l1.1-.6a36.69,36.69,0,0,1-20.49-1.2c-22.15-8.11-17.73-39.22-5.42-45.9a13.64,13.64,0,0,1,4.64-1.48A19.45,19.45,0,0,1,674,244h0c12.07.79,27.15,10.67,34.78,12.19,9.67,1.94,18.81,6.52,19.51,12.15.37,3.06.09,4.08-.26,4.39,2.82,0,14.4.82,16.24,11.62,1.65,9.65,2.43,29.24,10.23,43.61a35.76,35.76,0,0,0,8.2,10.38C778.33,351.5,757.4,360.1,757.4,360.1Z" transform="translate(-4.62 -51.28)"/><path class="cls-71" d="M754.49,327.93a24.48,24.48,0,0,1-2.29,1.24s-7.71-15-9.33-26.27,1-24.06-7.82-26.17-9.18.87-8.44-5.08-7.44-13-14.51-12.9-17.62-4.21-20.22-7.56c-2.36-3-13-6.27-17.89-7.22,12.07.79,27.15,10.67,34.78,12.19,9.67,1.94,18.81,6.52,19.51,12.15.37,3.06.09,4.08-.26,4.39,2.82,0,14.4.82,16.24,11.62C745.91,294,746.69,313.56,754.49,327.93Z" transform="translate(-4.62 -51.28)"/><path class="cls-72" d="M765,339.26s15.68,3.18,30.68,24.91,14.68,49.74,13.65,71.72a252.51,252.51,0,0,0,1.11,39s-45.56-73.12-46-85.15S765,339.26,765,339.26Z" transform="translate(-4.62 -51.28)"/><path class="cls-73" d="M715.13,317.86s11.28-1.65,18,1.18,17.7,6.57,17.7,6.57l-19,5.23s-17.43,1-18.07-2.06S715.13,317.86,715.13,317.86Z" transform="translate(-4.62 -51.28)"/><path class="cls-74" d="M915.22,718.92c-23.45,39-57.94,57.25-80.77,65.53a159.89,159.89,0,0,0,17.75-29.53,86.13,86.13,0,0,0,7-22.18c3-19.58-4-38.67-37.82-45.37-4.72-.93-9.18-1.74-13.41-2.43-1.75-.28-3.45-.55-5.12-.8-5.09-.76-9.83-1.35-14.26-1.82-49.32-5.21-61.66,4.84-109.47-26.34-2-1.31-4-2.51-6-3.64A101.63,101.63,0,0,0,635.38,640c-27.88-3.42-52.41,4.87-65,10.38a91.38,91.38,0,0,0-9,4.44,8.08,8.08,0,0,1-.57-.6c-2.49-9.55-12.33-60.19,46.74-97.55,24.59-15.55,45.12-38.68,61.28-61.89,26.87-38.59,41.64-77.34,42.78-81.61,1.85-6.83,43.76-45.05,43.76-45.05l19.72,8,5.08,2.08,17.43,7.11s-5.41,74.18,33.7,131.9h0a147.53,147.53,0,0,0,22.46,26.12q1.86,1.71,3.8,3.36C925.13,604.27,953.09,656,915.22,718.92Z" transform="translate(-4.62 -51.28)"/><path class="cls-75" d="M699.66,532.86c-32.94,40.5-26.56,119.48-26.56,119.48A101.63,101.63,0,0,0,635.38,640c-20-36.49,10.88-56.59,23.49-70s70.46-114.82,70.46-114.82S732.59,492.36,699.66,532.86Z" transform="translate(-4.62 -51.28)"/><path class="cls-75" d="M676.73,489.71s-9.6,53.63-65.09,84.06c-38.88,21.33-42.55,57.09-41.27,76.57a91.38,91.38,0,0,0-9,4.44,8.08,8.08,0,0,1-.57-.6c-2.49-9.55-12.33-60.19,46.74-97.55,24.59-15.55,45.12-38.68,61.28-61.89Z" transform="translate(-4.62 -51.28)"/><path class="cls-75" d="M915.22,718.92c-23.45,39-57.94,57.25-80.77,65.53a159.89,159.89,0,0,0,17.75-29.53c21.35-20.87,50.36-54.41,57.41-88.07,7.69-36.74-30.07-91.42-55.84-123.51q1.86,1.71,3.8,3.36C925.13,604.27,953.09,656,915.22,718.92Z" transform="translate(-4.62 -51.28)"/><path class="cls-76" d="M771.92,779.07c-3.79,9.54-8.5,15.38-12,16.67-3.23,1.17-5.46-1.5-5.06-8.67a276.39,276.39,0,0,1,3.74-30.77s-6.51-10.06-15.47-24.18h0c-19.07-30.06-49.23-78.52-51.54-87.71-3-11.85-14.83-72.1-17.68-86.68v0c-.38-2-.61-3.16-.61-3.16l-35.66,53.09s.08.14.22.42c2.1,3.92,18.21,34.69,22.81,58.78,1.76,9.24,5.42,18.82,9.3,27.59,7,15.75,14.7,28.87,13.61,32.61-1.5,5.11-15,32.66-28.7,41.58h0a17.22,17.22,0,0,1-5.86,2.57s-1.62-3.22,4.16-17.62,7.34-27.32,4-32.76c-.62-1-3.1-4.75-6.76-10.37-16.58-25.39-57.31-88.7-57.77-105.26C592,585,651.91,473.37,651.91,473.37l76.47,17.73,10.28,2.38s4.6,65.53-10.29,138.27c0,0,22.83,36,31.12,67.24,2,7.62,4.2,14.55,6.32,20.65h0c6.58,18.9,12.71,30,12.71,30S779.18,760.81,771.92,779.07Z" transform="translate(-4.62 -51.28)"/><path class="cls-27" d="M771.92,779.07c-3.79,9.54-8.5,15.38-12,16.67,10.2-14.77,11.63-45.28,11.63-45.28s-37.64-93.86-46.2-103.27-11.1-19.55-3-42.19c6.38-17.89,6.36-86.07,6.08-113.9l10.28,2.38s4.6,65.53-10.29,138.27c0,0,22.83,36,31.12,67.24,2,7.62,4.2,14.55,6.32,20.65h0c6.58,18.9,12.71,30,12.71,30S779.18,760.81,771.92,779.07Z" transform="translate(-4.62 -51.28)"/><path class="cls-77" d="M757.25,336.07l-.28,1.5c-.07.39-.15.84-.26,1.36l-1.11,6c-.16.87-.34,1.79-.51,2.74-1.3,7-3,16.2-4.64,24.95-2.57,13.88-4.91,26.61-5,27.5-.24,2-7.06,74.69-5.16,84s-3.43,11.67-7.41,11.18c-2.83-.33-37,.12-59.91-6.6-2-.57-3.8-1.18-5.56-1.87-6.57-2.53-11.64-5.86-13.85-10.23l-1.63-3.22s1.1-5.93,2.25-14.67h0c.29-2.19.58-4.54.85-7,0,0,0-.09,0-.27,0,0,0-.08,0-.12a.78.78,0,0,0,0-.16c.49-3.57,3.11-23.77,4-42,.07-1.34.13-2.65.17-3.95.29-8,.16-15.36-.71-20.37a19,19,0,0,0-1.2-4.08h0a41.62,41.62,0,0,0-4.94-8.59c-.09-.12-.19-.25-.27-.38-10.71-14.63-31.72-31.12-43.06-42.34l0,0c-1.08-1.21-2.21-2.36-3.38-3.52l-.06-.06c-3.91-3.9-8.18-7.86-12.44-14.14-.76-1.13-1.52-2.32-2.28-3.6-4.91-8.3-9.73-20.21-13.86-39.17-.13-.6-.26-1.19-.39-1.76q-.78-3.61-1.5-6.91c-8-37.32-9.46-47.11-9.46-47.11s3.19-9.69,18.59-3.78c0,0,32.76,78.52,37.25,83.1s34.1,34.35,41.05,35.2a143.77,143.77,0,0,0,17.91,3.06l.53.07h0l2.63.25c.66.06,1.33.12,2,.16h0c.83.07,1.68.12,2.52.16h0c1,0,2,.1,3,.13,3,.08,6,.06,9.07-.12h0l1.77-.12h0a61.15,61.15,0,0,0,15.42-3.07l.37-.13.14,0,5.78,1.2,3.08.63,2.54.53h0l7.13,1.47,8,1.64L756,335.8h0Z" transform="translate(-4.62 -51.28)"/><path class="cls-78" d="M745.43,400.12c-.24,2-7.06,74.69-5.16,84s-3.43,11.67-7.41,11.18c-3.07-.36-43,.2-65.47-8.47,17.82-7.32,71-32.9,68.05-76.42-3.56-52.23,9.13-76.94,9.13-76.94s4.58,6.22,10.52,14.21C751.72,365.73,745.61,398.67,745.43,400.12Z" transform="translate(-4.62 -51.28)"/><path class="cls-79" d="M696.82,486.94l-9.52,7.4s1.14,4.28,13-5Z" transform="translate(-4.62 -51.28)"/><path class="cls-79" d="M697.31,486.38l-9.15,7.18a20.77,20.77,0,0,1-3.22.56c-3.2.25-2.49-1.26-2.49-1.26l11.91-10.28,2,2.56Z" transform="translate(-4.62 -51.28)"/><path class="cls-70" d="M672.78,342.49s-1.6,7.83,3.35,9.06,13.46-9.38,17.54-11.19,2.24-4.9,2.24-4.9Z" transform="translate(-4.62 -51.28)"/><path class="cls-79" d="M693.62,483.59l-.1.08-10.78,8.89a7.86,7.86,0,0,1-3.58,1.25c-2-.13-.11-3.46,1.26-4.51,1.85-1.41,11.09-10,11.09-10l1.35,2.75.73,1.52Z" transform="translate(-4.62 -51.28)"/><path class="cls-79" d="M691.64,479.13l-1.47,1.35,0,0-5.4,5,0,0-2.45,2.25A14.58,14.58,0,0,1,679,489c-2.65.57-1.9-1.65.3-3.94,2.84-3,11.47-12.68,11.47-12.68.86.1,1.05,1.93,1,3.66C691.81,477.64,691.64,479.13,691.64,479.13Z" transform="translate(-4.62 -51.28)"/><path class="cls-67" d="M725.07,266.54a.54.54,0,0,1-.69.06Z" transform="translate(-4.62 -51.28)"/><path class="cls-69" d="M696.59,336.4c-8.42,3-20.51,19.67-23.52,11.25a9.21,9.21,0,0,1-.39-1.5c-1.34-8,8.54-16.15,8.54-16.15S692,332.82,695,333.18a2.53,2.53,0,0,1,1.36.51C697.44,334.61,696.59,336.4,696.59,336.4Z" transform="translate(-4.62 -51.28)"/><path class="cls-72" d="M679.48,344.69a84.74,84.74,0,0,0,7.39-8.65c5.32-6.76,9.37-7.57,9.37-7.57s-16.77,4.63-20.32,11.27S679.48,344.69,679.48,344.69Z" transform="translate(-4.62 -51.28)"/><path class="cls-72" d="M696.59,336.4c-8.42,3-20.51,19.67-23.52,11.25a9.21,9.21,0,0,1-.39-1.5c3.08,4.9,9.77-1.31,14-5.12a97.61,97.61,0,0,1,9.69-7.34C697.44,334.61,696.59,336.4,696.59,336.4Z" transform="translate(-4.62 -51.28)"/><path class="cls-70" d="M705.75,351.84a35.55,35.55,0,0,1-13.11,10.5s12.22-4.43,15.36-7.29,17.57-24.38,18.91-25.23-3.56-3.08-5.56-3.17a4.39,4.39,0,0,0-3.05.85Z" transform="translate(-4.62 -51.28)"/><path class="cls-75" d="M802.82,684.14c-5.09-.76-9.83-1.35-14.26-1.82,27.55-41,22.14-105.21,22.14-105.21C824,609.93,812.61,655.68,802.82,684.14Z" transform="translate(-4.62 -51.28)"/><path class="cls-75" d="M859.17,732.74c3-19.58-4-38.67-37.82-45.37-4.72-.93-9.18-1.74-13.41-2.43,13.44-25.48,28.78-65.35,15.28-97.23-21.63-51.07-64.47-98.13-48.94-130.44,11.58-24.09,4.93-62.95.81-81.16-1.39-6.07-2.48-9.85-2.53-10,.19.11,3.41,2.13,7.61,12.09,3.83,9.12,8.5,24.89,12.41,51.91C800.89,487.55,818,527.4,857,593.3S859.17,732.74,859.17,732.74Z" transform="translate(-4.62 -51.28)"/><path class="cls-79" d="M721.05,304.34c-1.77,8.79-9.33,14.59-9.33,14.59l2.81-.35,2.2,2.13,1,9.47s-.28,6.29-7,13.7a46.43,46.43,0,0,1-10.29,8.45c-16.71,10.35-22.86,9.12-22.69,3.67.11-3.3,6.22-9.74,11-14.34,3.13-3,5.7-5.16,5.7-5.16l-1.23-3s-8.79-1.77-11.25-3.17-8.07-14.42-8.07-14.42l.89-22.68v-.52a37.64,37.64,0,0,0,16.24,0,28.12,28.12,0,0,1-6.75,2.91,52.54,52.54,0,0,0,6.93-.33c17-1.22,25.06-10.36,25.57-10.94-5.22,7.94-18.89,14.18-19.32,14.36,9.67-2.63,19.16-8.94,19.16-8.94-4.78,6.12-13.83,12.25-14.4,12.63a64.93,64.93,0,0,0,11.24-5.95l-1.24,10.73C716.3,300.66,722.81,295.56,721.05,304.34Z" transform="translate(-4.62 -51.28)"/><path class="cls-69" d="M710.74,343.89a46.55,46.55,0,0,1-10.3,8.44c-16.7,10.36-22.86,9.12-22.68,3.67.11-3.3,6.22-9.75,11-14.34C688.78,341.66,688.49,356.35,710.74,343.89Z" transform="translate(-4.62 -51.28)"/><path class="cls-80" d="M708.2,327.37l-13.72,9.13-1.23-3A42.47,42.47,0,0,0,708.2,327.37Z" transform="translate(-4.62 -51.28)"/><path class="cls-79" d="M715.35,467.93l-24.56,4.47s-2.1,10.51,9.55,16.9c0,0,17.73-2.82,21.19-4.05a13.73,13.73,0,0,0,5.39-3.49Z" transform="translate(-4.62 -51.28)"/><path class="cls-79" d="M703.7,470.05l-17.31-2.32s-2.94,3.78,8.48,5.17S703.7,470.05,703.7,470.05Z" transform="translate(-4.62 -51.28)"/><path class="cls-81" d="M794.65,441.35c-15.38,17.93-68.1,42.72-68.1,42.72a22.62,22.62,0,0,1-5.69-3.67A18.7,18.7,0,0,1,714.41,467s52.47-36,54.41-44.29-24.72-29.41-27.25-55.17,13.36-32.32,13.36-32.32c.5.15,1,.3,1.49.48C791.24,347.76,809.8,423.67,794.65,441.35Z" transform="translate(-4.62 -51.28)"/><path class="cls-70" d="M704.46,354.52s-3.87,9.19,8.07,10.76,16.12-2.25,25.53-10.82,29.56-16.15,38.21-6c0,0-9-10-16.16-11.16s-39,16.33-39,16.33Z" transform="translate(-4.62 -51.28)"/><path class="cls-69" d="M775.23,343.12c-.54-.3-1.08-.57-1.61-.83-21-10.36-33,4.14-45.09,14.47-9.13,7.83-20.06,7.72-23.47,3.28-1.18-1.57-1.43-3.68-.35-6.17,3.1-7.08,15.86-21.23,22.31-28.13a25.1,25.1,0,0,1,9.32-6.32,56.89,56.89,0,0,1,10.89-3.15,18.88,18.88,0,0,1,3.65-.25,6.82,6.82,0,0,1,.79.07h0a12.51,12.51,0,0,1,3.32.9,0,0,0,0,1,0,0c5.33,2.18,10.58,7.31,18.38,9.07a5.66,5.66,0,0,1,4.27,3.21C780,334.35,775.23,343.12,775.23,343.12Z" transform="translate(-4.62 -51.28)"/><path class="cls-43" d="M673.9,557.7c-.39-2-.62-3.16-.62-3.16l-35.66,53.09s-3.37-5.45,9-24.1,21.23-66.93,21.23-66.93Z" transform="translate(-4.62 -51.28)"/><path class="cls-82" d="M683.56,727c-1.72,5.83-19.09,41-34.58,44.15,0,0-1.62-3.22,4.15-17.63s7.35-27.31,4-32.76c-.6-1-3.1-4.74-6.76-10.36,0,0,12-2.59,19.6-16C676.93,710.17,684.66,723.29,683.56,727Z" transform="translate(-4.62 -51.28)"/><path class="cls-83" d="M771.93,779.08c-7.26,18.25-17.91,23-17.09,8a277.69,277.69,0,0,1,3.73-30.77s-6.5-10.06-15.45-24.18h0s9.91,7.88,22.7-12.46c6.58,18.91,12.7,30,12.7,30S779.18,760.82,771.93,779.08Z" transform="translate(-4.62 -51.28)"/><path class="cls-28" d="M580.73,192.22s-4.16-12.73-8.59-16.53.73,7.43,1.34,9.13,2.23,8.42,2.23,8.42Z" transform="translate(-4.62 -51.28)"/><path class="cls-28" d="M576.22,195.75l1-1.51s-7-16.33-10.6-20-1.3,3.92.63,8.22,4.86,13.63,4.86,13.63Z" transform="translate(-4.62 -51.28)"/><path class="cls-28" d="M572.81,197s-6-17.84-9-19.83.53,9,1,11.53,1.63,6.72,1.34,9.13S572.81,197,572.81,197Z" transform="translate(-4.62 -51.28)"/><path class="cls-28" d="M567.51,200.39s-2.87-16.64-5.08-18.54,1.31,19.35,1.31,19.35Z" transform="translate(-4.62 -51.28)"/><path class="cls-84" d="M580.73,192.22s-4.16-12.73-8.59-16.53.73,7.43,1.34,9.13,2.23,8.42,2.23,8.42Z" transform="translate(-4.62 -51.28)"/><path class="cls-85" d="M576.22,195.75l1-1.51s-7-16.33-10.6-20-1.3,3.92.63,8.22,4.86,13.63,4.86,13.63Z" transform="translate(-4.62 -51.28)"/><path class="cls-86" d="M572.81,197s-6-17.84-9-19.83.53,9,1,11.53,1.63,6.72,1.34,9.13S572.81,197,572.81,197Z" transform="translate(-4.62 -51.28)"/><path class="cls-87" d="M567.51,200.39s-2.87-16.64-5.08-18.54,1.31,19.35,1.31,19.35Z" transform="translate(-4.62 -51.28)"/><path class="cls-70" d="M789.37,336.84a77.93,77.93,0,0,0-11.31-6.42,61.2,61.2,0,0,0-14.62-4.8c-14.89-2.7-24.11,1.87-29.57,9.35s-16.38,18.7-16.38,18.7-7.54,2.47-7-3.69,14.54-17.15,29-26.49a33.65,33.65,0,0,1,18.11-5.21h1.28a81.06,81.06,0,0,1,13.8,6.56A122.1,122.1,0,0,1,789.37,336.84Z" transform="translate(-4.62 -51.28)"/><path class="cls-72" d="M715.67,355s9.83-10.18,13.11-16,10.55-11.52,10.55-11.52-22.63,12.95-25,19.85S715.67,355,715.67,355Z" transform="translate(-4.62 -51.28)"/><path class="cls-88" d="M691.64,479.13l-1.47,1.35,0,0a56.05,56.05,0,0,0-5.4,5l0,0-2.45,2.25A14.58,14.58,0,0,1,679,489l12.81-13C691.81,477.64,691.64,479.13,691.64,479.13Z" transform="translate(-4.62 -51.28)"/><path class="cls-89" d="M693.59,483.55a.37.37,0,0,1-.07.12l-10.78,8.89a7.86,7.86,0,0,1-3.58,1.25L692.86,482Z" transform="translate(-4.62 -51.28)"/><path class="cls-90" d="M697.31,486.38l-9.15,7.18a20.77,20.77,0,0,1-3.22.56l11.4-9Z" transform="translate(-4.62 -51.28)"/><path class="cls-28" d="M583.49,209.67s3.54-22.39,4.73-25.5,1.49-5.53-2.11-2.71-6,9.06-6,9.06-12.63,3.35-15.43,6.27,1.48,17.81,1.48,17.81Z" transform="translate(-4.62 -51.28)"/><path class="cls-91" d="M711.65,347.54a8.63,8.63,0,0,0-.58.81,0,0,0,0,0,0,0c-1.65,2.55-1.73,5.45-.09,6.77,1.82,1.46,5.08.43,7.28-2.31A8.36,8.36,0,0,0,720,349a3.84,3.84,0,0,0-1.1-3.79C717.1,343.77,713.85,344.8,711.65,347.54Z" transform="translate(-4.62 -51.28)"/><path class="cls-92" d="M711.65,347.54a8.63,8.63,0,0,0-.58.81,0,0,0,0,0,0,0c-1.87,4,.34,7,4.49,5.58,2.12-.74,3.56-2.95,4.48-4.93a3.84,3.84,0,0,0-1.1-3.79C717.1,343.77,713.85,344.8,711.65,347.54Z" transform="translate(-4.62 -51.28)"/><path class="cls-93" d="M717,347.38c0,.06-.09.12-.13.19h0a1.17,1.17,0,0,0,0,1.51c.41.33,1.14.1,1.63-.51a2,2,0,0,0,.4-.85.86.86,0,0,0-.25-.85C718.23,346.54,717.5,346.77,717,347.38Z" transform="translate(-4.62 -51.28)"/><path class="cls-93" d="M715.06,347.85a.47.47,0,0,0-.06.09h0a.57.57,0,0,0,0,.75c.2.16.56.05.81-.26a1.08,1.08,0,0,0,.2-.42.42.42,0,0,0-.13-.42C715.67,347.43,715.31,347.55,715.06,347.85Z" transform="translate(-4.62 -51.28)"/><path class="cls-91" d="M676.68,338.35a5.91,5.91,0,0,0-.48.67h0c-1.35,2.09-1.41,4.44-.07,5.51s4.13.35,5.92-1.87a6.89,6.89,0,0,0,1.45-3.1,3.13,3.13,0,0,0-.9-3.09C681.12,335.28,678.47,336.12,676.68,338.35Z" transform="translate(-4.62 -51.28)"/><path class="cls-94" d="M676.68,338.35a5.91,5.91,0,0,0-.48.67h0c-1.52,3.29.28,5.74,3.65,4.55,1.72-.61,2.9-2.4,3.65-4a3.13,3.13,0,0,0-.9-3.09C681.12,335.28,678.47,336.12,676.68,338.35Z" transform="translate(-4.62 -51.28)"/><path class="cls-93" d="M681,338.23l-.1.15h0a1,1,0,0,0,0,1.23c.33.27.92.08,1.32-.42a1.51,1.51,0,0,0,.33-.69.71.71,0,0,0-.2-.69C682,337.54,681.44,337.73,681,338.23Z" transform="translate(-4.62 -51.28)"/><path class="cls-93" d="M679.45,338.61l-.05.07h0c-.15.23-.16.49,0,.61s.46,0,.66-.21a.66.66,0,0,0,.16-.34.33.33,0,0,0-.1-.35C680,338.27,679.65,338.36,679.45,338.61Z" transform="translate(-4.62 -51.28)"/><path class="cls-70" d="M773.62,342.29c-21-10.36-33,4.14-45.09,14.47-9.13,7.83-20.06,7.72-23.47,3.28h0s9.4,6.34,19.86-3.18,14.87-18.33,28-20.71C762.47,334.4,770.13,339.42,773.62,342.29Z" transform="translate(-4.62 -51.28)"/><path class="cls-70" d="M756,335.8s9.68-1.49,26.36,10l3,6s-11-12.14-25.22-13.06Z" transform="translate(-4.62 -51.28)"/><path class="cls-95" d="M938.06,721.69c-8.85,12.57-23.26,23.81-38.58,33.21,6.88-4.44,56-37.86,60.31-90.7,4.67-56.85-30.08-84.51-72.15-126.53s-51-64.46-55.78-112.73-26.92-66.34-37.46-82c-3.41-5.07-9.73-9.7-16.7-13.66-12-6.78-25.89-11.55-30.47-13a18.88,18.88,0,0,1,3.65-.25,6.82,6.82,0,0,1,.79.07h0a12.51,12.51,0,0,1,3.32.9,0,0,0,0,1,0,0c1.27.38,2.55.79,3.86,1.27a81.06,81.06,0,0,1,13.8,6.56,122.1,122.1,0,0,1,16.66,12c24.2,20.59,42.9,51.68,47.18,84.42,5.22,39.92,1.34,63.62,78.24,135.42S964.84,683.64,938.06,721.69Z" transform="translate(-4.62 -51.28)"/><path class="cls-27" d="M683.56,727c-1.5,5.11-15,32.66-28.7,41.58,8.67-12.56,20.5-32.3,19.86-45.71-1-21.07-31.82-58.56-30.57-79.52S637.07,608,637.07,608l.77,0c2.1,3.92,18.21,34.69,22.81,58.78,1.76,9.24,5.42,18.82,9.3,27.59C676.93,710.17,684.65,723.29,683.56,727Z" transform="translate(-4.62 -51.28)"/><path class="cls-96" d="M794.65,441.35c-15.38,17.93-68.1,42.72-68.1,42.72a22.62,22.62,0,0,1-5.69-3.67c8.21-3.81,58-27.6,66.7-47.82,9.47-22-2.89-58.22-21.51-80.65-8.91-10.73-10.45-14.84-9.63-16.22C791.24,347.76,809.8,423.67,794.65,441.35Z" transform="translate(-4.62 -51.28)"/><path class="cls-70" d="M678.75,359.69s-1.9-2.1.24-5C679,354.69,675.85,357.55,678.75,359.69Z" transform="translate(-4.62 -51.28)"/><path class="cls-97" d="M690,293.28l1.1-.6a36.69,36.69,0,0,1-20.49-1.2c-22.15-8.11-17.73-39.22-5.42-45.9a13.64,13.64,0,0,1,4.64-1.48c-3.09,1.13-9.19,5-11.55,18-3.22,17.72,10.29,30.49,40.66,29.26A46.58,46.58,0,0,1,690,293.28Z" transform="translate(-4.62 -51.28)"/><path class="cls-98" d="M713.35,281.08s-11.3,12.19-28.35,14.35C685,295.43,693.63,293.74,713.35,281.08Z" transform="translate(-4.62 -51.28)"/><path class="cls-99" d="M718.18,282.69s-2.32,10-20.13,15.75C698.05,298.44,708.51,295.59,718.18,282.69Z" transform="translate(-4.62 -51.28)"/><path class="cls-100" d="M716.32,289.51S715,295.41,702.89,302C702.89,302,713.72,294.23,716.32,289.51Z" transform="translate(-4.62 -51.28)"/><path class="cls-101" d="M693,290.64S672.29,287,664.47,277s0-24.19,0-24.19S653.81,281.71,693,290.64Z" transform="translate(-4.62 -51.28)"/><path class="cls-51" d="M688.52,319.9a7.42,7.42,0,0,1-4.07-1.32l.6-.8a5.57,5.57,0,0,0,8.35-1.95l.83.55a7.18,7.18,0,0,1-4.71,3.44A5.77,5.77,0,0,1,688.52,319.9Z" transform="translate(-4.62 -51.28)"/><path class="cls-102" d="M683.39,301s-4.28,5.89-5.31,8.71,5.29,3,5.29,3S676.46,311.19,683.39,301Z" transform="translate(-4.62 -51.28)"/><ellipse class="cls-51" cx="688" cy="301.09" rx="2.75" ry="1.03" transform="translate(299.45 895.26) rotate(-82.89)"/><ellipse class="cls-51" cx="679.35" cy="298.84" rx="2.06" ry="0.77" transform="translate(294.1 884.7) rotate(-82.89)"/><path class="cls-51" d="M695.83,305.41l-1-.18a6.33,6.33,0,0,0-.77-5,5.88,5.88,0,0,0-3.53-2.18l.14-1a6.69,6.69,0,0,1,4.2,2.57A7.25,7.25,0,0,1,695.83,305.41Z" transform="translate(-4.62 -51.28)"/><path class="cls-51" d="M676.84,299.2l-1-.1c.23-2.13.8-3.54,1.72-4.2a1.75,1.75,0,0,1,1.36-.36l-.2,1a.86.86,0,0,0-.61.22C677.75,296,677.09,296.85,676.84,299.2Z" transform="translate(-4.62 -51.28)"/><path class="cls-103" d="M713,311.78s1.74-5.83,4-7.57,2.73,2.36,1.61,3.23a1,1,0,0,0-.87-1.12s1,.12-1.36,2.85a52.61,52.61,0,0,0-3.59,4.59Z" transform="translate(-4.62 -51.28)"/><path class="cls-104" d="M657.35,380.68a41.62,41.62,0,0,0-4.94-8.59c-.09-.12-.19-.25-.27-.38-10.71-14.63-31.72-31.12-43.06-42.34l0,0c-1.08-1.21-2.21-2.36-3.38-3.52l-.06-.06c-3.91-3.9-8.18-7.86-12.44-14.14-.76-1.13-1.52-2.32-2.28-3.6-4.91-8.3-9.73-20.21-13.86-39.17-.13-.6-.26-1.19-.39-1.76q-.78-3.61-1.5-6.91a15.84,15.84,0,0,1,.9,3.05c4.05,17.68,24.72,51.75,50.71,74C651.87,358.72,657,379.33,657.35,380.68Z" transform="translate(-4.62 -51.28)"/><circle class="cls-2" cx="535.94" cy="58.5" r="58.5"/><path class="cls-3" d="M508.57,158.77a58.55,58.55,0,0,1-25.27-36.93l20.56,14Z" transform="translate(-4.62 -51.28)"/><path class="cls-4" d="M549.12,150.46l-17.84,17.09a58.34,58.34,0,0,1-22.71-8.78l-4.71-22.89Z" transform="translate(-4.62 -51.28)"/><path class="cls-7" d="M594.75,131.85a58.52,58.52,0,0,1-54.14,36.43,57.58,57.58,0,0,1-9.33-.73l17.84-17.09Z" transform="translate(-4.62 -51.28)"/><path class="cls-3" d="M495.89,90.53l-13.84,19.3a58.23,58.23,0,0,1,11.68-35.14h0Z" transform="translate(-4.62 -51.28)"/><polygon class="cls-7" points="563.62 16.9 569.1 16.9 578.37 23.32 565.68 20.11 563.62 16.9"/><polygon class="cls-7" points="569.12 31.98 563.66 54.61 586.97 58.45 590.1 51.84 587.29 38.82 569.12 31.98"/><polygon class="cls-7" points="518.37 13.52 524.54 9.4 527.96 9.4 518.37 13.52"/><polygon class="cls-4" points="535.91 29.95 546.5 38.51 543.08 47.77 537.94 42.98 535.91 29.95"/><polygon class="cls-3" points="507.45 58.52 518.41 55.68 528.02 63.21 507.45 58.52"/></svg>