<svg width="46" height="31" viewBox="0 0 46 31" fill="none" xmlns="http://www.w3.org/2000/svg">
<path d="M36.5289 16.1365L36.6378 16.58L36.9527 16.2493C37.3415 15.8411 37.9547 15.3092 38.7444 14.9772C39.5631 14.633 40.3989 14.5729 41.2357 14.7955C43.572 15.4172 44.8505 17.7992 44.1634 20.3815C43.7955 21.764 42.9312 22.7912 41.603 23.7363C40.2667 24.6872 38.485 25.5388 36.3053 26.5795L36.413 26.8051L36.3053 26.5795C35.5669 26.9321 34.729 27.3321 33.8536 27.764L33.8535 27.764C33.7927 27.794 33.7229 27.801 33.6568 27.7834C33.5907 27.7658 33.5336 27.7251 33.4958 27.6688L33.4957 27.6687C32.951 26.8595 32.423 26.0963 31.958 25.4242L31.9572 25.4229L31.7516 25.5651L31.9572 25.4229C30.5827 23.4363 29.4598 21.8118 28.7728 20.3225C28.0899 18.8422 27.8503 17.5213 28.2182 16.1388C28.9053 13.5565 31.1985 12.1248 33.5349 12.7465C34.3716 12.9691 35.067 13.4367 35.6064 14.1423L35.805 13.9904L35.6064 14.1423C36.1267 14.8228 36.3945 15.5891 36.5289 16.1365Z" fill="#FD435A" stroke="url(#paint0_linear)" stroke-width="0.5"/>
<path d="M9.9035 4.21883L10.1639 4.59392L10.3396 4.17244C10.5919 3.56719 11.037 2.73271 11.7584 2.04143C12.5071 1.3241 13.3938 0.908822 14.3995 0.801809C17.2075 0.503041 19.5936 2.56746 19.9229 5.66249C20.0995 7.32158 19.5863 8.79934 18.5389 10.3763C17.486 11.9616 15.91 13.6233 13.9857 15.6508L14.167 15.8229L13.9857 15.6508C13.3336 16.3379 12.5937 17.1175 11.8264 17.947L11.8263 17.947C11.7666 18.0117 11.6852 18.0526 11.5969 18.062C11.5087 18.0714 11.4205 18.0485 11.3485 17.9979L11.3484 17.9978C10.4244 17.3488 9.53744 16.7426 8.7561 16.2086L8.75484 16.2078L8.61377 16.4142L8.75483 16.2078C6.44671 14.6304 4.55626 13.3375 3.19331 12.0092C1.83747 10.6878 1.0248 9.35114 0.848269 7.69205C0.518956 4.59702 2.41728 2.07673 5.22523 1.77796C6.23099 1.67095 7.18523 1.89034 8.06805 2.43409L8.19915 2.22123L8.06805 2.43409C8.91881 2.95809 9.52951 3.68019 9.9035 4.21883Z" fill="#FD435A" stroke="url(#paint1_linear)" stroke-width="0.5"/>
<defs>
<linearGradient id="paint0_linear" x1="34.2071" y1="12.6666" x2="37.3517" y2="26.9244" gradientUnits="userSpaceOnUse">
<stop stop-color="white"/>
<stop offset="1" stop-color="white" stop-opacity="0"/>
</linearGradient>
<linearGradient id="paint1_linear" x1="5.92306" y1="1.4523" x2="15.2312" y2="15.5629" gradientUnits="userSpaceOnUse">
<stop stop-color="white"/>
<stop offset="1" stop-color="white" stop-opacity="0"/>
</linearGradient>
</defs>
</svg>
