<?xml version="1.0" encoding="utf-8"?>
<!-- Generator: Adobe Illustrator 23.1.0, SVG Export Plug-In . SVG Version: 6.00 Build 0)  -->
<svg version="1.1" id="Layer_1" xmlns="http://www.w3.org/2000/svg" xmlns:xlink="http://www.w3.org/1999/xlink" x="0px" y="0px"
	 viewBox="0 0 300 300" style="enable-background:new 0 0 300 300;" xml:space="preserve">
<style type="text/css">
	.st0{opacity:0.42;fill:url(#SVGID_1_);}
	.st1{opacity:0.28;fill:#6981C0;}
	.st2{fill:#1B3B6C;}
	.st3{fill:url(#SVGID_2_);}
	.st4{fill:#FFFEF5;}
	.st5{fill:#CDC9BD;}
	.st6{fill:url(#SVGID_3_);}
	.st7{opacity:0.42;fill:url(#SVGID_4_);}
	.st8{fill:#00A651;}
	.st9{fill:url(#SVGID_5_);}
	.st10{fill:url(#SVGID_6_);}
	.st11{fill:#6981C0;}
	.st12{fill:#8196CC;}
	.st13{fill:url(#SVGID_7_);}
	.st14{opacity:0.42;fill:url(#SVGID_8_);}
	.st15{fill:url(#SVGID_9_);}
	.st16{opacity:0.42;fill:url(#SVGID_10_);}
	.st17{fill:url(#SVGID_11_);}
	.st18{fill:#FFFFFF;}
	.st19{fill:#214184;}
</style>
<linearGradient id="SVGID_1_" gradientUnits="userSpaceOnUse" x1="151.6722" y1="229.9867" x2="151.6722" y2="57.6345">
	<stop  offset="0.3183" style="stop-color:#51B8DC"/>
	<stop  offset="1" style="stop-color:#FFFFFF"/>
</linearGradient>
<circle class="st0" cx="151.7" cy="143.8" r="86.2"/>
<g>
	<ellipse class="st1" cx="149.6" cy="227.5" rx="122.1" ry="16.5"/>
	<polygon class="st2" points="223.5,182.8 207.3,169.1 190.7,201.9 180.4,205.4 167.5,220.1 193,220.1 199.5,211.4 218.6,216.2 
		237.7,194.6 	"/>
	<linearGradient id="SVGID_2_" gradientUnits="userSpaceOnUse" x1="146.1239" y1="107.5786" x2="146.1239" y2="211.8286">
		<stop  offset="0" style="stop-color:#30377D"/>
		<stop  offset="0.5303" style="stop-color:#5D3A7E"/>
		<stop  offset="1" style="stop-color:#EE74A7"/>
	</linearGradient>
	<rect x="94" y="107.6" class="st3" width="104.2" height="104.2"/>
	<path class="st4" d="M198.2,115.2c0,1.9-0.1,3.8-0.2,5.7c-1.8,24.3-15,45.5-34.5,58.9c-13.5,9.2-30,14.6-47.8,14.6
		c-7.5,0-14.8-1-21.8-2.8c-22.9-6-41.8-21.2-52.2-41.2H94v-42.9h103.9C198.1,110.1,198.2,112.7,198.2,115.2z"/>
	<path class="st5" d="M163.5,179.8c-13.5,9.2-30,14.6-47.8,14.6c-7.5,0-14.8-1-21.8-2.8c-22.9-6-41.8-21.2-52.2-41.2h81.5
		C123.3,150.4,126.2,176.4,163.5,179.8z"/>
	<linearGradient id="SVGID_3_" gradientUnits="userSpaceOnUse" x1="146.1239" y1="107.5786" x2="146.1239" y2="120.9386">
		<stop  offset="0" style="stop-color:#30377D"/>
		<stop  offset="0.5303" style="stop-color:#5D3A7E"/>
		<stop  offset="1" style="stop-color:#EE74A7"/>
	</linearGradient>
	<path class="st6" d="M198.2,115.2c0,1.9-0.1,3.8-0.2,5.7H94v-13.4h103.9C198.1,110.1,198.2,112.7,198.2,115.2z"/>
	<linearGradient id="SVGID_4_" gradientUnits="userSpaceOnUse" x1="144.3742" y1="130.1019" x2="144.3742" y2="169.4772">
		<stop  offset="3.794483e-02" style="stop-color:#51B8DC"/>
		<stop  offset="1" style="stop-color:#FFFFFF"/>
	</linearGradient>
	<circle class="st7" cx="144.4" cy="149.8" r="19.7"/>
	<polygon class="st8" points="144.2,163.5 130.2,154.7 133.4,149.6 142.1,155.1 152.3,137.6 157.5,140.6 	"/>
	<linearGradient id="SVGID_5_" gradientUnits="userSpaceOnUse" x1="111.261" y1="104.8097" x2="120.0388" y2="104.8097">
		<stop  offset="0.3371" style="stop-color:#F78F20"/>
		<stop  offset="1" style="stop-color:#FFC713"/>
	</linearGradient>
	<path class="st9" d="M115.6,116.7L115.6,116.7c-2.4,0-4.4-2-4.4-4.4v-15c0-2.4,2-4.4,4.4-4.4h0c2.4,0,4.4,2,4.4,4.4v15
		C120,114.7,118.1,116.7,115.6,116.7z"/>
	<linearGradient id="SVGID_6_" gradientUnits="userSpaceOnUse" x1="171.5509" y1="104.8097" x2="180.3287" y2="104.8097">
		<stop  offset="0.3371" style="stop-color:#F78F20"/>
		<stop  offset="1" style="stop-color:#FFC713"/>
	</linearGradient>
	<path class="st10" d="M175.9,116.7L175.9,116.7c-2.4,0-4.4-2-4.4-4.4v-15c0-2.4,2-4.4,4.4-4.4h0c2.4,0,4.4,2,4.4,4.4v15
		C180.3,114.7,178.4,116.7,175.9,116.7z"/>
	<polygon class="st11" points="47.9,240.1 137.2,240.1 127.4,224.9 118.9,222.7 118.9,217.5 103,207.5 89.6,189.3 75.2,182.8 
		72.6,203.2 	"/>
	<polygon class="st11" points="190.7,234.4 231.6,234.4 256.4,205.4 233.4,178 223.5,178 226.4,195.8 212.5,206.2 207.3,220.5 	"/>
	<polygon class="st12" points="75.2,182.8 82,194.6 103,207.5 89.6,189.3 	"/>
	<polygon class="st2" points="118.9,217.5 105.6,217.5 89.1,207.5 82,194.6 103,207.5 	"/>
	<polygon class="st12" points="118.9,222.7 107.8,231.4 127.4,224.9 	"/>
	<linearGradient id="SVGID_7_" gradientUnits="userSpaceOnUse" x1="237.7006" y1="151.0086" x2="252.2526" y2="151.0086">
		<stop  offset="0.3371" style="stop-color:#F78F20"/>
		<stop  offset="1" style="stop-color:#FFC713"/>
	</linearGradient>
	<polygon class="st13" points="247.7,134 237.7,156.1 247.7,168.1 252.3,151 	"/>
	<linearGradient id="SVGID_8_" gradientUnits="userSpaceOnUse" x1="244.9766" y1="151.0086" x2="252.2526" y2="151.0086">
		<stop  offset="3.794483e-02" style="stop-color:#51B8DC"/>
		<stop  offset="1" style="stop-color:#FFFFFF"/>
	</linearGradient>
	<polygon class="st14" points="247.7,134 245,151 247.7,168.1 252.3,151 	"/>
	<linearGradient id="SVGID_9_" gradientUnits="userSpaceOnUse" x1="53.3352" y1="121.7014" x2="86.2772" y2="121.7014">
		<stop  offset="0.3371" style="stop-color:#F78F20"/>
		<stop  offset="1" style="stop-color:#FFC713"/>
	</linearGradient>
	<polygon class="st15" points="53.3,106.9 66.1,135.8 86.3,136.5 73.8,117.3 	"/>
	<linearGradient id="SVGID_10_" gradientUnits="userSpaceOnUse" x1="53.3352" y1="121.7014" x2="86.2772" y2="121.7014">
		<stop  offset="3.794483e-02" style="stop-color:#51B8DC"/>
		<stop  offset="1" style="stop-color:#FFFFFF"/>
	</linearGradient>
	<polygon class="st16" points="53.3,106.9 67.4,124.3 86.3,136.5 73.8,117.3 	"/>
	<linearGradient id="SVGID_11_" gradientUnits="userSpaceOnUse" x1="190.6544" y1="55.0269" x2="190.6544" y2="75.8596">
		<stop  offset="5.949491e-02" style="stop-color:#5D3A7E"/>
		<stop  offset="1" style="stop-color:#EE74A7"/>
	</linearGradient>
	<circle class="st17" cx="190.7" cy="65.4" r="10.4"/>
	<circle class="st18" cx="223.5" cy="114.3" r="7.4"/>
	<circle class="st18" cx="131.8" cy="85.9" r="3.4"/>
	<polygon class="st2" points="190.7,234.4 206.5,227.1 214.3,222.7 207.3,220.5 	"/>
	<polygon class="st19" points="214.3,222.7 217.4,208.6 212.5,206.2 207.3,220.5 	"/>
	<polygon class="st12" points="217.4,208.6 230.9,206.2 230.9,199.5 226.4,195.8 212.5,206.2 	"/>
	<polygon class="st19" points="223.5,178 230.9,186.2 230.9,199.5 226.4,195.8 	"/>
	<polygon class="st12" points="230.9,186.2 237.7,188.7 256.4,205.4 233.4,178 223.5,178 	"/>
</g>
</svg>
