<?xml version="1.0" encoding="utf-8"?>
<!-- Generator: Adobe Illustrator 23.1.0, SVG Export Plug-In . SVG Version: 6.00 Build 0)  -->
<svg version="1.1" id="Layer_1" xmlns="http://www.w3.org/2000/svg" xmlns:xlink="http://www.w3.org/1999/xlink" x="0px" y="0px"
	 viewBox="0 0 300 300" style="enable-background:new 0 0 300 300;" xml:space="preserve">
<style type="text/css">
	.st0{opacity:0.42;fill:url(#SVGID_1_);}
	.st1{opacity:0.28;fill:#6981C0;}
	.st2{fill:#1B3B6C;}
	.st3{fill:url(#SVGID_2_);}
	.st4{fill:#151A32;}
	.st5{fill:#1D224C;}
	.st6{fill:url(#SVGID_3_);}
	.st7{fill:#F38083;}
	.st8{fill:#AF1E47;}
	.st9{opacity:0.43;fill:url(#SVGID_4_);}
	.st10{fill:none;stroke:#1D224C;stroke-miterlimit:10;}
	.st11{fill:url(#SVGID_5_);}
	.st12{fill:url(#SVGID_6_);}
	.st13{fill:#A2DBE1;}
	.st14{fill:#FFFFFF;}
	.st15{opacity:0.42;fill:url(#SVGID_7_);}
	.st16{fill:url(#SVGID_8_);}
	.st17{fill:url(#SVGID_9_);}
	.st18{fill:url(#SVGID_10_);}
	.st19{fill:#6981C0;}
	.st20{fill:#214184;}
	.st21{fill:#8196CC;}
	.st22{fill:url(#SVGID_11_);}
	.st23{fill:url(#SVGID_12_);}
	.st24{opacity:0.13;fill:url(#SVGID_13_);}
	.st25{opacity:0.33;fill:url(#SVGID_14_);}
	.st26{fill:url(#SVGID_15_);}
	.st27{opacity:0.33;fill:url(#SVGID_16_);}
	.st28{opacity:0.74;fill:url(#SVGID_17_);}
</style>
<linearGradient id="SVGID_1_" gradientUnits="userSpaceOnUse" x1="150.6017" y1="204.5543" x2="150.6017" y2="47.437">
	<stop  offset="0.3183" style="stop-color:#51B8DC"/>
	<stop  offset="1" style="stop-color:#FFFFFF"/>
</linearGradient>
<circle class="st0" cx="150.6" cy="126" r="78.6"/>
<g>
	<ellipse class="st1" cx="180.4" cy="241.7" rx="111.3" ry="15"/>
	<polygon class="st2" points="276.4,220.7 257.4,217.4 240.4,186.8 223.9,174.5 215.5,197.9 203.2,204.2 189.4,227.1 231.9,235.1 
		290.6,235.1 	"/>
	<linearGradient id="SVGID_2_" gradientUnits="userSpaceOnUse" x1="198.7288" y1="201.897" x2="198.7288" y2="84.5366">
		<stop  offset="0" style="stop-color:#F78F20"/>
		<stop  offset="1" style="stop-color:#FFC713"/>
	</linearGradient>
	<path class="st3" d="M257.1,149.4c-0.8,7.4-2.9,14.4-6.1,20.7c-1.8,3.4-3.8,6.6-6.2,9.6c-0.3,0.4-0.6,0.8-0.9,1.1
		c-12.1,14.6-31,23-51.3,20.8c-6.8-0.7-13.2-2.6-19-5.3c-4.2-2-8.1-4.5-11.6-7.3c-0.5-0.4-0.9-0.8-1.4-1.2
		c-14.1-12.1-22.2-30.8-20.1-50.6c0.8-8,3.3-15.5,6.9-22.2c8.8-16,24.8-27.2,43.2-29.8c4.7-0.7,9.5-0.7,14.3-0.2
		C237.1,88.3,260.5,117.1,257.1,149.4z"/>
	<path class="st4" d="M164.6,131.4c0,0-1.7,13.4,5.5,20.8c7.2,7.4,13.1-6.9,13.1-6.9l-3.8-13.6L164.6,131.4z"/>
	<path class="st5" d="M250.9,170c-0.5,0.9-1,1.8-1.5,2.7c-1.7,2.8-3.5,5.5-5.6,8c-12.1,14.6-30.9,20.9-51.1,18.8
		c-6.8-0.7-12.3-3.2-18.2-6c-4.2-2-9.1-1.8-12.7-4.6c-2.7-11.4,10-19.4,15.5-29.4c0.2-0.4,0.5-0.9,0.7-1.4c0-0.1,0.1-0.1,0.1-0.2
		c1-2.2,1.7-4.6,1.7-7.1c0-0.3,0-0.5,0-0.8c-0.4-8.9-2.2-12.9-4-14.6c-1.9-1.9-3.9-1.2-3.9-1.2s-3.2-0.9-7.4-3
		c-5.9-2.9-13.8-8.1-17.3-16.5c-1.4-3.2-2.1-6.9-1.8-11.1c0.4-4.9,1.6-9.2,3.6-12.8c0,0,0.1-0.1,0.2-0.4c6.8-11.9,22-15.6,41.1-5.5
		c1.5,0.8,3.1,1.7,4.7,2.7c27.4,17.1,25.3,14.1,32.7,16.6c7.4,2.5,11.1,11.9,8.3,16.2c-2.8,4.2,4.2-2.6,8.8,10
		c4.6,12.6-8.5,24.8,1.2,34.9C247.7,167.1,249.3,168.6,250.9,170z"/>
	<linearGradient id="SVGID_3_" gradientUnits="userSpaceOnUse" x1="202.616" y1="201.897" x2="202.616" y2="174.2778">
		<stop  offset="0" style="stop-color:#FFFFFF"/>
		<stop  offset="0.8464" style="stop-color:#EB97C1"/>
	</linearGradient>
	<path class="st6" d="M244.8,179.6c-0.3,0.4-0.6,0.8-0.9,1.1c-12.1,14.6-31,23-51.3,20.8c-6.8-0.7-13.2-2.6-19-5.3
		c-4.2-2-8.1-4.5-11.6-7.3c-0.5-0.4-0.9-0.8-1.4-1.2c7.6-4.1,20.8-10.3,32.4-12c7.1-1,15.4-1.6,24.6-1.3c7.2,0.3,16.2,0.5,23.9,3.7
		C242.7,178.7,243.9,179.2,244.8,179.6z"/>
	<path class="st7" d="M217.3,184.8c-0.5,5.7-2.2,12.7-7.6,13c-8.9,0.4-14.8-10.6-15-11c0,0,0,0,0,0l-2.4-10.3l-1-4.2l24.8-1.5
		l0.9,4.8l0.3,1.9C217.4,177.5,217.6,180.9,217.3,184.8z"/>
	<path class="st8" d="M209.7,197.8c-8.9,0.4-14.8-10.6-15-11c0.4,0.3,12.6,8,22.6-2C216.8,190.5,215.1,197.5,209.7,197.8z"/>
	<linearGradient id="SVGID_4_" gradientUnits="userSpaceOnUse" x1="191.3823" y1="175.6749" x2="217.0731" y2="175.6749">
		<stop  offset="9.725609e-02" style="stop-color:#1D224C"/>
		<stop  offset="0.4203" style="stop-color:#2C326E"/>
	</linearGradient>
	<path class="st9" d="M217.1,175.6c-1.8,1.9-4.3,3.6-7.9,4.4c-6.3,1.5-12.5-1-16.8-3.5l-1-4.2l24.8-1.5L217.1,175.6z"/>
	<path class="st7" d="M225,161.2c-1.8,4-12.2,13.7-17.6,14.8c-5.3,1.2-18-3.6-24.2-8.1c-5-3.7-9.7-25.7-11.3-33.6
		c11.8,4.1,28.6,5.7,48.6-3.9l-16.7,10.4c0.5-0.1,17.1-4.5,20.4-12.4c-0.2,0.8-3.1,14.5-11.2,20.7c0,0,5.9,0.3,13.4-14.9l-3.2,14.3
		l4.7-9.7C227,149.2,225.9,159.4,225,161.2z"/>
	<path class="st7" d="M227.5,144.1c0,0,1.6-7.5,5-6.8s1.3,13-6.5,19.8L227.5,144.1z"/>
	<path class="st7" d="M174.7,146.3c0,0-4.2-4.8-5.7-0.6s3.7,12.1,9.8,14.5L174.7,146.3z"/>
	<path class="st10" d="M190.7,141.3c0,0-7.3-3.4-8.7,8.5"/>
	<ellipse transform="matrix(0.944 -0.3299 0.3299 0.944 -39.2896 71.0363)" class="st5" cx="189.7" cy="151.3" rx="1.9" ry="4.2"/>
	<path class="st10" d="M205.1,138.9c0,0,4.9-6.4,11.7,3.3"/>
	
		<ellipse transform="matrix(0.9876 -0.1573 0.1573 0.9876 -20.5136 34.9759)" class="st5" cx="210.8" cy="147.1" rx="1.9" ry="4.2"/>
	<linearGradient id="SVGID_5_" gradientUnits="userSpaceOnUse" x1="198.0001" y1="155.3754" x2="203.404" y2="155.3754">
		<stop  offset="0.5621" style="stop-color:#B73D67"/>
		<stop  offset="1" style="stop-color:#342B52;stop-opacity:0"/>
	</linearGradient>
	<path class="st11" d="M198,149.9l1,10.4l4.4,0.5C203.4,160.8,197.6,156.2,198,149.9z"/>
	<path class="st10" d="M201.9,167.6c0,0,6.1-0.3,10-6.1"/>
	<linearGradient id="SVGID_6_" gradientUnits="userSpaceOnUse" x1="86.9505" y1="207.3053" x2="181.8281" y2="142.3726">
		<stop  offset="3.645748e-02" style="stop-color:#6981C0"/>
		<stop  offset="0.6738" style="stop-color:#6DB6DE"/>
	</linearGradient>
	<path class="st12" d="M182.7,216.7l-2.1,3.9l-10.3,19c-0.8,1.5-2.5,2.3-4.2,2c-11.7-1.9-40.2-8.6-66.9-38.4
		c-26.8-29.9-30.3-59-30.9-70.7c-0.1-1.7,0.9-3.3,2.5-4l19.2-7.8l5-2c1.9-0.8,4.2-0.1,5.2,1.8l13.4,23.6c0.9,1.7,0.6,3.8-0.9,5.1
		l-4.2,3.8l-5.5,4.9c-1,0.8-1.5,2.1-1.4,3.4c0.3,4.6,2.3,16.1,13,28.1c10.8,12,22,15.2,26.5,16c1.3,0.2,2.5-0.1,3.5-1l5.9-5.3
		l3.8-3.4c1.4-1.3,3.5-1.4,5.1-0.3l22,15.9C183.3,212.5,183.8,214.9,182.7,216.7z"/>
	<path class="st2" d="M112.7,149.2l-4.2,3.8c-5.2-9-13.7-23.6-18.6-32.2l5-2c1.9-0.8,4.2-0.1,5.2,1.8l13.4,23.6
		C114.5,145.8,114.2,147.9,112.7,149.2z"/>
	<path class="st2" d="M182.7,216.7l-2.1,3.9l-30-21.5l3.8-3.4c1.4-1.3,3.5-1.4,5.1-0.3l22,15.9C183.3,212.5,183.8,214.9,182.7,216.7
		z"/>
	<path class="st13" d="M118.9,51.7h-50c-5.7,0-10.3,4.6-10.3,10.3v22.7c0,5.7,4.6,10.3,10.3,10.3H97l18.3,15.9V95h3.6
		c5.7,0,10.3-4.6,10.3-10.3V62C129.1,56.3,124.5,51.7,118.9,51.7z"/>
	<g>
		<path class="st14" d="M77.8,69.9c-1.7,0-3.1,1.4-3.1,3.1c0,1.7,1.4,3.1,3.1,3.1c1.7,0,3.1-1.4,3.1-3.1
			C80.9,71.3,79.5,69.9,77.8,69.9z"/>
		<path class="st14" d="M94.2,69.9c-1.7,0-3.1,1.4-3.1,3.1c0,1.7,1.4,3.1,3.1,3.1c1.7,0,3.1-1.4,3.1-3.1
			C97.3,71.3,95.9,69.9,94.2,69.9z"/>
		<path class="st14" d="M110.6,69.9c-1.7,0-3.1,1.4-3.1,3.1c0,1.7,1.4,3.1,3.1,3.1c1.7,0,3.1-1.4,3.1-3.1
			C113.7,71.3,112.3,69.9,110.6,69.9z"/>
	</g>
	<linearGradient id="SVGID_7_" gradientUnits="userSpaceOnUse" x1="21.934" y1="138.652" x2="43.9907" y2="100.4487">
		<stop  offset="0.3183" style="stop-color:#51B8DC"/>
		<stop  offset="1" style="stop-color:#FFFFFF"/>
	</linearGradient>
	<path class="st15" d="M30.7,98L9.9,118.9c-2.4,2.4-2.4,6.2,0,8.6l9.5,9.5c2.4,2.4,6.2,2.4,8.6,0l11.7-11.8l14.3-1l-6.7-6.6l1.5-1.5
		c2.4-2.4,2.4-6.2,0-8.6L39.3,98C36.9,95.6,33.1,95.6,30.7,98z"/>
	<g>
		<linearGradient id="SVGID_8_" gradientUnits="userSpaceOnUse" x1="20.6968" y1="124.0598" x2="24.3724" y2="124.0598">
			<stop  offset="3.645748e-02" style="stop-color:#6981C0"/>
			<stop  offset="0.6738" style="stop-color:#6DB6DE"/>
		</linearGradient>
		<path class="st16" d="M21.2,122.8c-0.7,0.7-0.7,1.9,0,2.6c0.7,0.7,1.9,0.7,2.6,0c0.7-0.7,0.7-1.9,0-2.6
			C23.1,122,21.9,122,21.2,122.8z"/>
		<linearGradient id="SVGID_9_" gradientUnits="userSpaceOnUse" x1="27.5368" y1="117.1929" x2="31.2124" y2="117.1929">
			<stop  offset="3.645748e-02" style="stop-color:#6981C0"/>
			<stop  offset="0.6738" style="stop-color:#6DB6DE"/>
		</linearGradient>
		<path class="st17" d="M28.1,115.9c-0.7,0.7-0.7,1.9,0,2.6c0.7,0.7,1.9,0.7,2.6,0c0.7-0.7,0.7-1.9,0-2.6
			C30,115.2,28.8,115.2,28.1,115.9z"/>
		<linearGradient id="SVGID_10_" gradientUnits="userSpaceOnUse" x1="34.3768" y1="110.3261" x2="38.0524" y2="110.3261">
			<stop  offset="3.645748e-02" style="stop-color:#6981C0"/>
			<stop  offset="0.6738" style="stop-color:#6DB6DE"/>
		</linearGradient>
		<path class="st18" d="M34.9,109c-0.7,0.7-0.7,1.9,0,2.6c0.7,0.7,1.9,0.7,2.6,0c0.7-0.7,0.7-1.9,0-2.6
			C36.8,108.3,35.6,108.3,34.9,109z"/>
	</g>
	<polygon class="st19" points="193.5,255.1 252.3,255.1 286.4,233.2 281,224.2 268.7,217.9 260.3,194.5 243.8,206.8 226.7,237.4 
		207.7,240.7 	"/>
	<polygon class="st20" points="260.3,194.5 253.3,208.1 243.8,206.8 	"/>
	<polygon class="st21" points="226.7,237.4 245.2,227.9 253.3,208.1 243.8,206.8 	"/>
	<polygon class="st20" points="193.5,255.1 208.4,250 207.7,240.7 	"/>
	<polygon class="st21" points="226.7,237.4 222,246.2 208.4,250 207.7,240.7 	"/>
	<polygon class="st19" points="70.1,241.7 112.9,253.8 149.4,251.9 154.1,247.8 129.7,233.9 119.9,233.9 92.9,204.8 80.2,213.9 	"/>
	<polygon class="st21" points="92.9,204.8 95,218.3 119.9,233.9 	"/>
	<polygon class="st21" points="154.1,247.8 134.9,246 119.9,233.9 129.7,233.9 	"/>
	<linearGradient id="SVGID_11_" gradientUnits="userSpaceOnUse" x1="210.7767" y1="42.2631" x2="210.7767" y2="55.6918">
		<stop  offset="5.949491e-02" style="stop-color:#5D3A7E"/>
		<stop  offset="1" style="stop-color:#EE74A7"/>
	</linearGradient>
	<circle class="st22" cx="210.8" cy="49" r="6.7"/>
	<circle class="st14" cx="273.3" cy="160.2" r="6.7"/>
	<circle class="st13" cx="54" cy="177.1" r="10.4"/>
	<circle class="st14" cx="125.8" cy="125.9" r="3.7"/>
	<linearGradient id="SVGID_12_" gradientUnits="userSpaceOnUse" x1="155.299" y1="43.2919" x2="155.299" y2="73.7496">
		<stop  offset="0.3371" style="stop-color:#F78F20"/>
		<stop  offset="1" style="stop-color:#FFC713"/>
	</linearGradient>
	<polygon class="st23" points="152.4,43.3 150,64.7 160.2,73.7 160.6,60.9 	"/>
	<linearGradient id="SVGID_13_" gradientUnits="userSpaceOnUse" x1="168.7196" y1="152.0594" x2="178.8242" y2="152.0594">
		<stop  offset="9.725609e-02" style="stop-color:#1D224C"/>
		<stop  offset="0.4203" style="stop-color:#2C326E"/>
	</linearGradient>
	<path class="st24" d="M174.7,146.3c0,0-4.2-4.8-5.7-0.6s3.7,12.1,9.8,14.5L174.7,146.3z"/>
	<linearGradient id="SVGID_14_" gradientUnits="userSpaceOnUse" x1="147.5223" y1="122.1588" x2="220.6407" y2="122.1588">
		<stop  offset="0.7713" style="stop-color:#EF4679"/>
		<stop  offset="1" style="stop-color:#342B52;stop-opacity:0"/>
	</linearGradient>
	<path class="st25" d="M220.6,130.5c0,0-5.4,4.2-24.7,4.2s-46.5-10.5-48.4-27.1c0,0,4.7,21.3,28.3,26.3
		C199.6,138.9,207.7,137.1,220.6,130.5z"/>
	<linearGradient id="SVGID_15_" gradientUnits="userSpaceOnUse" x1="183.274" y1="129.3042" x2="222.8025" y2="129.3042">
		<stop  offset="0.7713" style="stop-color:#EF4679"/>
		<stop  offset="1" style="stop-color:#342B52;stop-opacity:0"/>
	</linearGradient>
	<path class="st26" d="M222.8,125.9c0,0-20.7,9.2-39.5,2.6C183.3,128.5,207.8,139.6,222.8,125.9z"/>
	<linearGradient id="SVGID_16_" gradientUnits="userSpaceOnUse" x1="151.4702" y1="115.7227" x2="178.8242" y2="115.7227">
		<stop  offset="0.7713" style="stop-color:#EF4679"/>
		<stop  offset="1" style="stop-color:#342B52;stop-opacity:0"/>
	</linearGradient>
	<path class="st27" d="M178.8,129.6c0,0-15.1-1.9-22.1-11.2s-4.9-16.5-4.9-16.5S153.9,122.8,178.8,129.6z"/>
	<linearGradient id="SVGID_17_" gradientUnits="userSpaceOnUse" x1="149.384" y1="125.9956" x2="250.9376" y2="125.9956">
		<stop  offset="0" style="stop-color:#63C7D3"/>
		<stop  offset="0.827" style="stop-color:#342B52"/>
	</linearGradient>
	<path class="st28" d="M250.9,170c-0.5,0.9-1,1.8-1.5,2.7c-13.6-7.9-9.1-22.8-6.3-29.9c3.3-8.3-1.9-18.5-7.2-18.9
		c-5.2-0.4-2.1-2.1-2-5.5c0-3.4-1.1-10.8-13.4-10.8c-12.2-0.1-23.8-14.8-43.7-23c-18-7.5-26.1,3.8-27.5,6.1
		c6.8-11.9,22-15.6,41.1-5.5c1.5,0.8,3.1,1.7,4.7,2.7c27.4,17.1,25.3,14.1,32.7,16.6c7.4,2.5,11.1,11.9,8.3,16.2
		c-2.8,4.2,4.2-2.6,8.8,10c4.6,12.6-8.5,24.8,1.2,34.9C247.7,167.1,249.3,168.6,250.9,170z"/>
	<polygon class="st2" points="119.9,233.9 112.9,253.8 134.9,246 	"/>
	<polygon class="st20" points="100.9,222 112.9,253.8 119.9,233.9 	"/>
	<polygon class="st20" points="95,218.3 70.1,241.7 80.2,213.9 92.9,204.8 	"/>
	<polygon class="st2" points="245.2,227.9 243.8,250 226.7,237.4 	"/>
</g>
</svg>
