<?xml version="1.0" encoding="utf-8"?>
<!-- Generator: Adobe Illustrator 23.1.0, SVG Export Plug-In . SVG Version: 6.00 Build 0)  -->
<svg version="1.1" id="Layer_1" xmlns="http://www.w3.org/2000/svg" xmlns:xlink="http://www.w3.org/1999/xlink" x="0px" y="0px"
	 viewBox="0 0 500 500" style="enable-background:new 0 0 500 500;" xml:space="preserve">
<style type="text/css">
	.st0{opacity:0.28;fill:#6981C0;}
	.st1{opacity:0.42;fill:url(#SVGID_1_);}
	.st2{opacity:0.42;fill:url(#SVGID_2_);}
	.st3{fill:#1D224C;}
	.st4{fill:#1B3B6C;}
	.st5{fill:url(#SVGID_3_);}
	.st6{fill:#F38083;}
	.st7{fill:url(#SVGID_4_);}
	.st8{fill:#151A32;}
	.st9{fill:none;stroke:#1D224C;stroke-miterlimit:10;}
	.st10{fill:url(#SVGID_5_);}
	.st11{fill:#FFFFFF;}
	.st12{opacity:0.43;fill:url(#SVGID_6_);}
	.st13{opacity:0.43;fill:url(#SVGID_7_);}
	.st14{fill:#AF1E47;}
	.st15{fill:url(#SVGID_8_);}
	.st16{fill:#6981C0;}
	.st17{fill:url(#SVGID_9_);}
	.st18{fill:url(#SVGID_10_);}
	.st19{fill:#A2DBE1;}
	.st20{fill:url(#SVGID_11_);}
	.st21{fill:url(#SVGID_12_);}
	.st22{opacity:0.42;fill:url(#SVGID_13_);}
	.st23{fill:url(#SVGID_14_);}
	.st24{fill:#214184;}
	.st25{fill:#8196CC;}
	.st26{opacity:0.74;fill:url(#SVGID_15_);}
	.st27{fill:url(#SVGID_16_);}
	.st28{opacity:0.33;fill:url(#SVGID_17_);}
	.st29{opacity:0.33;fill:url(#SVGID_18_);}
</style>
<g>
	
		<ellipse transform="matrix(2.823904e-02 -0.9996 0.9996 2.823904e-02 -116.0035 601.4693)" class="st0" cx="251.3" cy="360.4" rx="16.5" ry="122.1"/>
	<linearGradient id="SVGID_1_" gradientUnits="userSpaceOnUse" x1="95.1573" y1="255.1384" x2="380.2889" y2="255.1384">
		<stop  offset="3.794483e-02" style="stop-color:#51B8DC"/>
		<stop  offset="1" style="stop-color:#FFFFFF"/>
	</linearGradient>
	<polygon class="st1" points="380.3,291.7 269.5,316.5 267,317.1 258.9,318.9 244.3,322.2 125.1,348.9 118.6,320.6 95.2,218.6 
		226.1,189.2 242.2,185.6 277.1,177.8 350.3,161.4 372.6,258.2 376.7,276 	"/>
	<linearGradient id="SVGID_2_" gradientUnits="userSpaceOnUse" x1="204.7721" y1="240.1589" x2="380.2889" y2="240.1589">
		<stop  offset="3.794483e-02" style="stop-color:#51B8DC"/>
		<stop  offset="1" style="stop-color:#FFFFFF"/>
	</linearGradient>
	<path class="st2" d="M380.3,291.7l-110.8,24.8l-2.6,0.6l-8.1,1.8l-11-43.7l-19.5,4.3c-1.4,0.3-2.8,0.5-4.2,0.5
		c-8.9,0-17-6.2-19-15.3c-2.3-10.5,4.3-20.9,14.8-23.2l18.3-4l-12.2-48.3l16.1-3.6l34.8-7.8l73.3-16.4l22.2,96.7c0,0,0,0,0,0
		l4.1,17.8L380.3,291.7z"/>
	<path class="st3" d="M380.3,291.7l-110.8,24.8l-2.6,0.6c-1.6-9.2,0.5-19.2,6.2-26c13.5-16.1,7.7-42.6,7.7-42.6l-6.4-5.6
		c0,0-20.7,3.8-30.2-15.4c-0.9-1.8-1.7-3.7-2.4-5.7c-4.3-11.9-5-26.5,0.4-36.1c3.3-5.8,8.8-9.9,17.2-10.4c6.4-0.4,12.3,0.7,17.7,2.6
		c15.2,5.4,26.8,17.2,37.9,18.2c0.8,0.1,1.5,0.2,2.2,0.2c14.2,1.8,26.4,8.8,24.5,22.8c-2,14.7-6.3,26,0.2,31.6
		c4,3.4,16.9,2.2,30.7,7.4c0,0,0,0,0,0l4.1,17.8L380.3,291.7z"/>
	<polygon class="st4" points="284.6,351.2 269.5,351.2 277.1,338.9 286.6,332.3 289.4,318.9 295.7,307.6 341.8,289.9 351.4,307.6 
		334.6,329.8 	"/>
	<linearGradient id="SVGID_3_" gradientUnits="userSpaceOnUse" x1="269.5323" y1="294.8649" x2="380.2889" y2="294.8649">
		<stop  offset="0" style="stop-color:#FFFFFF"/>
		<stop  offset="0.8464" style="stop-color:#EB97C1"/>
	</linearGradient>
	<path class="st5" d="M380.3,291.7l-110.8,24.8c0,0,5.5-18.8,23-27.7c17.5-8.9,32.8-15.4,51.7-15.6c9.3-0.1,22,1.3,32.5,2.8
		L380.3,291.7z"/>
	<path class="st6" d="M334.6,274.7c0,0-1.7,3.8-4.5,8.7c-4.4,7.8-11.5,18.5-18.9,21.6c-12,4.9-13.7,3.3-9.1-7.3
		c1.5-3.5,2.6-6,3.4-7.7c1.6-3.6,1.9-4.1,1.9-4.1l-2.1-7.4l-0.8-2.9l20.4-18.6l2.9-2.7L334.6,274.7z"/>
	<linearGradient id="SVGID_4_" gradientUnits="userSpaceOnUse" x1="181.4411" y1="300.2245" x2="181.4411" y2="348.8523">
		<stop  offset="4.927099e-02" style="stop-color:#51B8DC"/>
		<stop  offset="1" style="stop-color:#FFFFFF"/>
	</linearGradient>
	<path class="st7" d="M244.3,322.2l-119.2,26.7l-6.5-28.3c18.4-8.2,51.4-21.1,74.5-20.3c33.5,1.2,29.8,4.6,33.5,7.2
		C229.3,309.3,239,317.4,244.3,322.2z"/>
	<path class="st6" d="M194.5,323c0,6.7-19.7,10-32.2,2.8c-12.5-7.2-18.1-14.7-18.1-14.7l-1.1-12.2c0,0-22.5-8.9-23.9-22.2
		c-1.4-13.3,16.4-47.5,16.4-47.5l37.5-12.5l11.4,17.2l8.6,40.6l-8.6,20.3l-10.8,2.5v7.2c0,0,0.1,0,0.2,0.1
		C175.7,305.6,194.5,316.7,194.5,323z"/>
	<path class="st8" d="M185.3,237.7l-20.3-10.5l-8.2-11.9l11.3-10.8c0,0,19.7,10,19.7,15.3S185.3,237.7,185.3,237.7z"/>
	<path class="st3" d="M133.9,289.7c8.3,5.8,9.3,10.3,9.3,10.3l0.5,5l-35.3-20.5c0,0-1.7-16.1,2-22c3.6-5.8,3.6-5.8,3.6-5.8l-29.7,7
		c0,0-4.7-4.7,8.9-13.9c13.6-9.2,16.4-12,16.4-12s-18.5-0.3-26.8-2.5c-2.7-0.7-4.3-1.6-3.8-2.8c1.5-3.6,17.4-10.6,30.5-13.9
		c4.1-1.1,7.9-1.8,10.9-1.9c0,0-27.8-7.8-32.5-8.9c-3.4-0.8-5.9-5.3,1.8-10.1c0,0,0,0,0,0c0,0,0,0,0.1-0.1c3.1-1.9,8-3.9,15.1-5.7
		c24.7-6.1,35.3-5.3,46.1,0c10.8,5.3,23.3,11.7,24.4,28.1L144,259.6c0,0,0,0,0,0l0,0l3.3,25c0,0-10.3-14.5-17.8-14.2
		C122,270.8,125.6,283.8,133.9,289.7z"/>
	<path class="st9" d="M160.1,250.9c0,0-6.8-2.9-7.1,13.3"/>
	<path class="st9" d="M176.9,243.4c0,0,5.7-3.1,8.3,5"/>
	
		<ellipse transform="matrix(0.9961 -8.874573e-02 8.874573e-02 0.9961 -22.813 15.3888)" class="st3" cx="161.7" cy="264.2" rx="2.2" ry="5.7"/>
	
		<ellipse transform="matrix(0.9961 -8.874573e-02 8.874573e-02 0.9961 -21.8321 17.1366)" class="st3" cx="181.8" cy="254.1" rx="1.5" ry="4"/>
	<linearGradient id="SVGID_5_" gradientUnits="userSpaceOnUse" x1="173.9451" y1="263.6227" x2="181.8002" y2="263.6227">
		<stop  offset="0.5621" style="stop-color:#B73D67"/>
		<stop  offset="1" style="stop-color:#342B52;stop-opacity:0"/>
	</linearGradient>
	<path class="st10" d="M173.9,256.6l7.9,9.2l-4.9,4.9c0,0,1.6-3.1,1-5.8S173.9,256.6,173.9,256.6z"/>
	<path class="st11" d="M177.9,279.1c0,0-5.9,1.2-11.4,0c0,0-0.8,8.5,2.8,10c3.6,1.5,6,0.8,6.9-1.8S177.9,279.1,177.9,279.1z"/>
	<linearGradient id="SVGID_6_" gradientUnits="userSpaceOnUse" x1="161.6573" y1="300.2646" x2="173.8319" y2="300.2646">
		<stop  offset="9.725609e-02" style="stop-color:#1D224C"/>
		<stop  offset="0.4203" style="stop-color:#2C326E"/>
	</linearGradient>
	<path class="st12" d="M173.8,304.5c-6.6-1.9-12.2-8.4-12.2-8.4l12,1.1v7.2C173.7,304.4,173.7,304.4,173.8,304.5z"/>
	<linearGradient id="SVGID_7_" gradientUnits="userSpaceOnUse" x1="304.5897" y1="267.6102" x2="324.9745" y2="267.6102">
		<stop  offset="9.725609e-02" style="stop-color:#1D224C"/>
		<stop  offset="0.4203" style="stop-color:#2C326E"/>
	</linearGradient>
	<path class="st13" d="M325,256.8c-1.2,4.6-3.4,11.1-7.8,16.5c-4,4.9-8.5,5.6-11.8,5.1l-0.8-2.9L325,256.8z"/>
	<path class="st6" d="M331.8,240.2c-2.2,8.2-4.6,8.3-4.6,8.3l0.7,5.7c-2.2,3.6-4.7,7.1-7.2,10.4c-8.9,11.7-15.4,10.9-18.3,10.9
		c-3,0-15.1-7.4-19.5-11.8c-3.1-3.1-7.4-17.3-9.6-25.3c20.6,0.3,39.3-21.7,39.3-21.7s-3.9,14.4-8.1,18.7c1.1-1.1,12.7-13.2,15-20.7
		c0,0-3.1,14.4-6.3,18.7c0,0,8.9-10,9.6-16.8v21.7c0,0,2.6-14.6,5.9-16.2C332,220.4,334,231.9,331.8,240.2z"/>
	<path class="st14" d="M330.1,283.4c-4.4,7.8-11.5,18.5-18.9,21.6c-12,4.9-13.7,3.3-9.1-7.3c1.5-3.5,2.6-6,3.4-7.7
		C305.6,289.9,309.2,301.1,330.1,283.4z"/>
	<path class="st9" d="M295.7,237.7c0,0,5-7.9,14.4,0"/>
	<path class="st9" d="M282.7,242.8c0,0-6-0.5-3.3,7.9"/>
	
		<ellipse transform="matrix(0.9548 -0.2973 0.2973 0.9548 -58.7815 100.3437)" class="st3" cx="300.5" cy="243.4" rx="1.5" ry="3.3"/>
	<ellipse transform="matrix(0.9548 -0.2973 0.2973 0.9548 -61.7421 95.9622)" class="st3" cx="284.6" cy="251" rx="1.2" ry="2.6"/>
	<linearGradient id="SVGID_8_" gradientUnits="userSpaceOnUse" x1="289.3998" y1="254.04" x2="297.9177" y2="254.04">
		<stop  offset="0.5621" style="stop-color:#B73D67"/>
		<stop  offset="1" style="stop-color:#342B52;stop-opacity:0"/>
	</linearGradient>
	<path class="st15" d="M289.4,248.4l3.1,11.2l5.4-2C297.9,257.7,292.4,259.4,289.4,248.4z"/>
	<path class="st9" d="M301.8,263.6c0,0,6.7,0.1,8.3-8.5"/>
	<polygon class="st16" points="278.7,360.4 342.5,364.8 380.3,348.9 378.5,338.2 363.7,327.8 361.1,307.6 352.9,283.4 336.6,312.6 
		334.6,322.3 321.4,324.5 309.3,335.6 293.7,337.1 	"/>
	<polygon class="st16" points="130,364.8 167.7,368.2 213.3,368.2 211.1,355.6 202.6,350.4 204.8,340 193.1,329.8 156.8,333.7 
		132.9,324.1 136.3,353.7 	"/>
	
		<linearGradient id="SVGID_9_" gradientUnits="userSpaceOnUse" x1="154.0415" y1="335.5345" x2="154.0415" y2="382.4904" gradientTransform="matrix(0.6092 0.7931 -0.7931 0.6092 427.6564 -201.0548)">
		<stop  offset="0" style="stop-color:#5D3A7E"/>
		<stop  offset="1" style="stop-color:#EE74A7"/>
	</linearGradient>
	<polygon class="st17" points="252.7,122 224.2,139.1 222.7,160.1 238.8,148.6 	"/>
	
		<linearGradient id="SVGID_10_" gradientUnits="userSpaceOnUse" x1="642.7552" y1="266.1835" x2="658.7792" y2="266.1835" gradientTransform="matrix(0.3847 -0.9231 0.9231 0.3847 -110.0683 708.9911)">
		<stop  offset="0" style="stop-color:#F78F20"/>
		<stop  offset="1" style="stop-color:#FFC713"/>
	</linearGradient>
	<polygon class="st18" points="375.4,197.6 383.6,218.4 397.3,221.7 391.5,209.8 	"/>
	<circle class="st19" cx="276.6" cy="155.3" r="8"/>
	<linearGradient id="SVGID_11_" gradientUnits="userSpaceOnUse" x1="150.9248" y1="163.2587" x2="181.8002" y2="163.2587">
		<stop  offset="0" style="stop-color:#F78F20"/>
		<stop  offset="1" style="stop-color:#FFC713"/>
	</linearGradient>
	<circle class="st20" cx="166.4" cy="163.3" r="15.4"/>
	<linearGradient id="SVGID_12_" gradientUnits="userSpaceOnUse" x1="95.1573" y1="311.6931" x2="95.1573" y2="336.5074">
		<stop  offset="5.949491e-02" style="stop-color:#5D3A7E"/>
		<stop  offset="1" style="stop-color:#EE74A7"/>
	</linearGradient>
	<circle class="st21" cx="95.2" cy="324.1" r="12.4"/>
	<circle class="st19" cx="247" cy="336.5" r="4.4"/>
	<circle class="st11" cx="204.8" cy="232.3" r="4.4"/>
	<circle class="st11" cx="338.9" cy="181.2" r="10"/>
	<linearGradient id="SVGID_13_" gradientUnits="userSpaceOnUse" x1="260.0452" y1="329.8351" x2="275.4241" y2="329.8351">
		<stop  offset="3.794483e-02" style="stop-color:#51B8DC"/>
		<stop  offset="1" style="stop-color:#FFFFFF"/>
	</linearGradient>
	<circle class="st22" cx="267.7" cy="329.8" r="7.7"/>
	<linearGradient id="SVGID_14_" gradientUnits="userSpaceOnUse" x1="415.1315" y1="264.6411" x2="415.1315" y2="276.631">
		<stop  offset="5.949491e-02" style="stop-color:#5D3A7E"/>
		<stop  offset="1" style="stop-color:#EE74A7"/>
	</linearGradient>
	<circle class="st23" cx="415.1" cy="270.6" r="6"/>
	<polygon class="st4" points="156.8,333.7 173.8,340.9 193.1,329.8 	"/>
	<polygon class="st4" points="202.6,350.4 189.6,346.1 204.8,340 	"/>
	<polygon class="st24" points="198.9,368.2 189.6,346.1 202.6,350.4 211.1,355.6 213.3,368.2 	"/>
	<polygon class="st25" points="132.9,324.1 145.5,337.5 173.8,340.9 	"/>
	<polygon class="st25" points="173.8,340.9 204.8,340 193.1,329.8 	"/>
	<polygon class="st25" points="278.7,360.4 309.3,335.6 293.7,337.1 	"/>
	<polygon class="st25" points="352.9,283.4 347.7,307.6 336.6,312.6 	"/>
	<polygon class="st24" points="347.7,307.6 351.4,324.5 334.6,322.3 336.6,312.6 	"/>
	<polygon class="st25" points="351.4,324.5 321.1,335.6 309.3,348 321.4,324.5 334.6,322.3 	"/>
	<linearGradient id="SVGID_15_" gradientUnits="userSpaceOnUse" x1="105.8843" y1="198.4141" x2="177.8965" y2="244.8762">
		<stop  offset="0" style="stop-color:#63C7D3"/>
		<stop  offset="0.827" style="stop-color:#342B52"/>
	</linearGradient>
	<path class="st26" d="M144,259.6c1-1.4,25.3-34.9,24.7-45c-0.6-10.3-19.4-22.6-38.1-23.5c-18.4-0.9-40.2,6.2-41,6.5
		c0,0,0,0,0.1-0.1c3.1-1.9,8-3.9,15.1-5.7c24.7-6.1,35.3-5.3,46.1,0c10.8,5.3,23.3,11.7,24.4,28.1L144,259.6z"/>
	<linearGradient id="SVGID_16_" gradientUnits="userSpaceOnUse" x1="92.041" y1="220.1909" x2="114.4662" y2="234.6596">
		<stop  offset="0" style="stop-color:#63C7D3"/>
		<stop  offset="0.827" style="stop-color:#342B52"/>
	</linearGradient>
	<path class="st27" d="M120.3,216.6c-1.3,0.5-35.8,13.9-37.5,18.6c-2.7-0.7-4.3-1.6-3.8-2.8c1.5-3.6,17.4-10.6,30.5-13.9
		C115.5,217.4,119.9,216.7,120.3,216.6z"/>
	<linearGradient id="SVGID_17_" gradientUnits="userSpaceOnUse" x1="251.5713" y1="192.3505" x2="310.4805" y2="230.3585">
		<stop  offset="0.7713" style="stop-color:#EF4679"/>
		<stop  offset="1" style="stop-color:#342B52;stop-opacity:0"/>
	</linearGradient>
	<path class="st28" d="M317.2,196.3c0,0-4.5,3.1-14.3-1.4c0,0-9.5-3.4-18.3-7.3c-8.8-3.8-19.1-11-31.9-4.3
		c-12.8,6.7-23.6,43.7,20.5,55c0,0-21.5-2.4-31.3-16.6c-4.3-11.9-5-26.5,0.4-36.1c3.3-5.8,8.8-9.9,17.2-10.4
		c6.4-0.4,12.3,0.7,17.7,2.6c15.2,5.4,26.8,17.2,37.9,18.2C315.7,196.1,316.5,196.2,317.2,196.3z"/>
	<linearGradient id="SVGID_18_" gradientUnits="userSpaceOnUse" x1="275.4446" y1="214.9555" x2="305.6572" y2="234.4486">
		<stop  offset="0.7713" style="stop-color:#EF4679"/>
		<stop  offset="1" style="stop-color:#342B52;stop-opacity:0"/>
	</linearGradient>
	<path class="st29" d="M310.5,214.7c0,0-17.7,24.8-50.4,13.2C260,227.9,294.3,243.9,310.5,214.7z"/>
</g>
</svg>
