<?xml version="1.0" encoding="utf-8"?>
<!-- Generator: Adobe Illustrator 23.1.0, SVG Export Plug-In . SVG Version: 6.00 Build 0)  -->
<svg version="1.1" id="Layer_1" xmlns="http://www.w3.org/2000/svg" xmlns:xlink="http://www.w3.org/1999/xlink" x="0px" y="0px"
	 viewBox="0 0 300 300" style="enable-background:new 0 0 300 300;" xml:space="preserve">
<style type="text/css">
	.st0{opacity:0.42;fill:url(#SVGID_1_);}
	.st1{opacity:0.28;fill:#6981C0;}
	.st2{fill:#1B3B6C;}
	.st3{fill:url(#SVGID_2_);}
	.st4{fill:url(#SVGID_3_);}
	.st5{fill:url(#SVGID_4_);}
	.st6{fill:#CD7B29;}
	.st7{fill:#6981C0;}
	.st8{opacity:0.42;fill:url(#SVGID_5_);}
	.st9{fill:url(#SVGID_6_);}
	.st10{fill:#FFFFFF;}
	.st11{fill:url(#SVGID_7_);}
	.st12{fill:url(#SVGID_8_);}
	.st13{fill:url(#SVGID_9_);}
	.st14{fill:url(#SVGID_10_);}
	.st15{fill:#A2DBE1;}
	.st16{fill:url(#SVGID_11_);}
	.st17{fill:#1D224C;}
	.st18{fill:#8196CC;}
	.st19{fill:#214184;}
</style>
<linearGradient id="SVGID_1_" gradientUnits="userSpaceOnUse" x1="139.0006" y1="252.2914" x2="139.0006" y2="93.5299">
	<stop  offset="0.3183" style="stop-color:#51B8DC"/>
	<stop  offset="1" style="stop-color:#FFFFFF"/>
</linearGradient>
<circle class="st0" cx="139" cy="172.9" r="79.4"/>
<g>
	<ellipse class="st1" cx="146.9" cy="278.6" rx="112.4" ry="15.2"/>
	<path class="st2" d="M57.5,280h83.7l-8.7-11.4l-20.2-7l-9.6-10.6l-28-21.4c0,0-9.6,0.4-9.6,3.2c0,2.8-1.2,20.7-0.8,21.7
		c0.4,1.1-17.2,11.9-17.2,11.9L39.8,280H57.5z"/>
	<linearGradient id="SVGID_2_" gradientUnits="userSpaceOnUse" x1="146.9099" y1="135.7581" x2="146.9099" y2="274.0215">
		<stop  offset="0" style="stop-color:#F78F20"/>
		<stop  offset="1" style="stop-color:#FFC713"/>
	</linearGradient>
	<path class="st3" d="M203.7,150.2l19.4,75c2.7,10.3-3.5,20.9-13.9,23.5l-95.5,24.7c-10.3,2.7-20.9-3.5-23.5-13.9l-19.4-75
		c-2.7-10.3,3.5-20.9,13.9-23.5l95.5-24.7C190.5,133.7,201,139.9,203.7,150.2z"/>
	<linearGradient id="SVGID_3_" gradientUnits="userSpaceOnUse" x1="141.1065" y1="217.0274" x2="141.1065" y2="135.7581">
		<stop  offset="0" style="stop-color:#F78F20"/>
		<stop  offset="1" style="stop-color:#FFC713"/>
	</linearGradient>
	<path class="st4" d="M203.7,150.2l8.4,32.4L79.2,217l-8.4-32.4c-2.7-10.3,3.5-20.9,13.9-23.5l95.5-24.7
		C190.5,133.7,201,139.9,203.7,150.2z"/>
	<linearGradient id="SVGID_4_" gradientUnits="userSpaceOnUse" x1="144.5951" y1="174.8351" x2="144.5951" y2="217.0274">
		<stop  offset="5.949491e-02" style="stop-color:#5D3A7E"/>
		<stop  offset="1" style="stop-color:#EE74A7"/>
	</linearGradient>
	<polygon class="st5" points="210,174.8 212,182.7 79.2,217 77.1,209.2 	"/>
	<g>
		
			<rect x="81" y="214.3" transform="matrix(0.9682 -0.2502 0.2502 0.9682 -49.1065 44.283)" class="st6" width="137.2" height="1.8"/>
		
			<rect x="86.7" y="236.4" transform="matrix(0.9682 -0.2502 0.2502 0.9682 -54.4509 46.414)" class="st6" width="137.2" height="1.8"/>
		
			<rect x="95.4" y="253.3" transform="matrix(0.9682 -0.2502 0.2502 0.9682 -58.5368 48.0424)" class="st6" width="128.5" height="1.8"/>
		
			<rect x="70.4" y="173.4" transform="matrix(0.9682 -0.2502 0.2502 0.9682 -39.1916 40.3296)" class="st6" width="137.2" height="1.8"/>
		
			<rect x="70.9" y="153" transform="matrix(0.9682 -0.2501 0.2501 0.9682 -34.2249 38.4902)" class="st6" width="126.8" height="1.8"/>
	</g>
	<polygon class="st7" points="175.9,276.5 233.5,281.3 264.7,263 260.2,248.3 252.4,244.4 252.4,229.4 226.9,206.3 212,217.4 
		207.7,234.8 193.6,239 	"/>
	
		<linearGradient id="SVGID_5_" gradientUnits="userSpaceOnUse" x1="255.6135" y1="-88.1306" x2="307.0404" y2="-201.5703" gradientTransform="matrix(0.9108 -0.4129 0.4129 0.9108 -49.4697 323.7015)">
		<stop  offset="3.794483e-02" style="stop-color:#51B8DC"/>
		<stop  offset="1" style="stop-color:#FFFFFF"/>
	</linearGradient>
	<path class="st8" d="M130,19.5c0,0-23.2,9.9-18.5,36.3c4.7,26.3,16.4,31.9,6.9,47.1s-2.5,27.2,6,32.9c8.5,5.7,34.2,0.3,33.9-20.3
		c-0.3-20.6,5.5-35.4,15.9-44.4c10.4-9,12.7-27.2,0.8-46.2S137.1,15,130,19.5z"/>
	<g>
		
			<linearGradient id="SVGID_6_" gradientUnits="userSpaceOnUse" x1="244.5914" y1="-143.0848" x2="305.7476" y2="-143.0848" gradientTransform="matrix(0.9108 -0.4129 0.4129 0.9108 -49.4697 323.7015)">
			<stop  offset="0" style="stop-color:#F78F20"/>
			<stop  offset="1" style="stop-color:#FFC713"/>
		</linearGradient>
		<path class="st9" d="M133.6,118.4l0,0.2l-8.6-2.6l16.2-54.9c-4.1-3.1-5.9-8.6-4.4-13.6c1.6-5.3,6.6-9,12.1-9
			c1.2,0,2.4,0.2,3.6,0.5c6.7,2,10.5,9,8.5,15.7c-1.5,5-6,8.6-11.1,9l-9.7,33l6.1,1.8l-2.8,9.5l-6.1-1.8l-0.8,2.8l6.1,1.8l-2.8,9.5
			L133.6,118.4z M148.8,46.8c-1.9,0-3.7,1.3-4.2,3.1c-0.7,2.3,0.6,4.8,3,5.4c0.4,0.1,0.8,0.2,1.2,0.2c1.9,0,3.7-1.3,4.2-3.1
			c0.3-1.1,0.2-2.3-0.4-3.3c-0.6-1-1.5-1.8-2.6-2.1C149.6,46.8,149.2,46.8,148.8,46.8z"/>
		<path class="st10" d="M148.8,40c1,0,2.1,0.1,3.2,0.5c5.9,1.7,9.3,7.9,7.5,13.8c-1.4,4.8-5.9,8-10.7,8c-0.1,0-0.1,0-0.2,0
			l-10.5,35.4l6.1,1.8l-2,6.6l-6.1-1.8l-1.7,5.6l6.1,1.8l-2,6.6l-6.1-1.8l0,0.2l-5.8-1.7l16.1-54.5c-4.1-2.6-6.2-7.7-4.8-12.6
			C139.6,43.1,144,40,148.8,40 M148.8,57c2.5,0,4.9-1.7,5.6-4.2c0.9-3.1-0.9-6.4-4-7.3c-0.6-0.2-1.1-0.2-1.7-0.2
			c-2.5,0-4.9,1.7-5.6,4.2c-0.9,3.1,0.9,6.4,4,7.3C147.7,56.9,148.3,57,148.8,57 M148.8,37L148.8,37c-6.2,0-11.8,4.2-13.5,10.1
			c-1.6,5.3,0.1,11,4.2,14.6l-15.5,52.5l-0.9,2.9l2.9,0.9l5.8,1.7l2.9,0.9l0-0.2l3.3,1l2.9,0.9l0.9-2.9l2-6.6l0.8-2.8h0l0.9-2.9
			l2-6.6l0.9-2.9l-2.9-0.9l-3.3-1l9-30.6c5.3-0.8,9.9-4.7,11.4-9.9c2.2-7.5-2.1-15.3-9.5-17.5C151.5,37.2,150.2,37,148.8,37
			L148.8,37z M148.8,54c-0.3,0-0.5,0-0.8-0.1c-0.7-0.2-1.3-0.7-1.7-1.4c-0.4-0.7-0.4-1.5-0.2-2.2c0.4-1.2,1.5-2.1,2.8-2.1
			c0.3,0,0.5,0,0.8,0.1c0.7,0.2,1.3,0.7,1.7,1.4s0.4,1.5,0.2,2.2C151.2,53.2,150.1,54,148.8,54L148.8,54z"/>
	</g>
	<linearGradient id="SVGID_7_" gradientUnits="userSpaceOnUse" x1="202.3014" y1="91.6661" x2="202.3014" y2="114.7739">
		<stop  offset="5.949491e-02" style="stop-color:#5D3A7E"/>
		<stop  offset="1" style="stop-color:#EE74A7"/>
	</linearGradient>
	<circle class="st11" cx="202.3" cy="103.2" r="11.6"/>
	<linearGradient id="SVGID_8_" gradientUnits="userSpaceOnUse" x1="88.2695" y1="83.0572" x2="103.1508" y2="83.0572">
		<stop  offset="0" style="stop-color:#F78F20"/>
		<stop  offset="1" style="stop-color:#FFC713"/>
	</linearGradient>
	<circle class="st12" cx="95.7" cy="83.1" r="7.4"/>
	<linearGradient id="SVGID_9_" gradientUnits="userSpaceOnUse" x1="42.253" y1="166.2717" x2="42.253" y2="176.5978">
		<stop  offset="5.949491e-02" style="stop-color:#5D3A7E"/>
		<stop  offset="1" style="stop-color:#EE74A7"/>
	</linearGradient>
	<circle class="st13" cx="42.3" cy="171.4" r="5.2"/>
	<linearGradient id="SVGID_10_" gradientUnits="userSpaceOnUse" x1="249.2249" y1="210.0528" x2="259.551" y2="210.0528">
		<stop  offset="0" style="stop-color:#F78F20"/>
		<stop  offset="1" style="stop-color:#FFC713"/>
	</linearGradient>
	<circle class="st14" cx="254.4" cy="210.1" r="5.2"/>
	<circle class="st10" cx="95.7" cy="142.3" r="5.2"/>
	<polygon class="st15" points="34.5,108.3 53.7,136.7 75.4,137.2 62.6,121.2 	"/>
	<polygon class="st15" points="239.1,135.3 220.7,148.4 220.8,162.7 231.1,154 	"/>
	<linearGradient id="SVGID_11_" gradientUnits="userSpaceOnUse" x1="150.5412" y1="180.7393" x2="150.5412" y2="230.7178">
		<stop  offset="5.949491e-02" style="stop-color:#5D3A7E"/>
		<stop  offset="1" style="stop-color:#EE74A7"/>
	</linearGradient>
	<path class="st16" d="M160.5,228.9l-6.1,1.6c-4.7,1.2-9.6-1.6-10.8-6.4l-9.6-37.3l23.2-6l9.6,37.3
		C168.1,222.8,165.2,227.6,160.5,228.9z"/>
	<path class="st17" d="M154,197.9c-0.6-2.5-3.2-4-5.7-3.3c-2.5,0.6-4,3.2-3.3,5.7c0.4,1.5,1.5,2.6,2.8,3.2l3.5,13.5
		c0.4,1.4,1.8,2.3,3.3,1.9c1.4-0.4,2.3-1.8,1.9-3.3l-3.5-13.5C154,200.9,154.4,199.4,154,197.9z"/>
	<polygon class="st18" points="175.9,276.5 197.8,255.4 193.6,239 	"/>
	<polygon class="st2" points="197.8,255.4 212,255.4 207.7,234.8 193.6,239 	"/>
	<polygon class="st19" points="212,255.4 218.3,234.8 212,217.4 207.7,234.8 	"/>
	<polygon class="st18" points="218.3,234.8 229.9,225.6 226.9,206.3 212,217.4 	"/>
	<polygon class="st2" points="207.7,279.2 227.9,254.2 240.7,233.3 252.4,229.4 252.4,244.4 260.2,248.3 264.7,263 233.5,281.3 	"/>
	<polygon class="st18" points="228.3,215.2 252.4,229.4 226.9,206.3 	"/>
	<circle class="st10" cx="80.8" cy="239.4" r="14.9"/>
</g>
</svg>
