<?xml version="1.0" encoding="UTF-8"?>
<svg width="352px" height="492px" viewBox="0 0 352 492" version="1.1" xmlns="http://www.w3.org/2000/svg" xmlns:xlink="http://www.w3.org/1999/xlink">
    <!-- Generator: Sketch 52.6 (67491) - http://www.bohemiancoding.com/sketch -->
    <title>Problem 2</title>
    <desc>Created with Sketch.</desc>
    <defs>
        <linearGradient x1="0.0177781474%" y1="50.0196632%" x2="99.9960156%" y2="50.0196632%" id="linearGradient-1">
            <stop stop-color="#B63C65" offset="1%"></stop>
            <stop stop-color="#342A51" stop-opacity="0" offset="100%"></stop>
        </linearGradient>
        <linearGradient x1="49.9950685%" y1="100.014214%" x2="49.9950685%" y2="0%" id="linearGradient-2">
            <stop stop-color="#FFFFFF" offset="0%"></stop>
            <stop stop-color="#EB97C1" offset="85%"></stop>
        </linearGradient>
        <linearGradient x1="0%" y1="50.0656585%" x2="100%" y2="50.0656585%" id="linearGradient-3">
            <stop stop-color="#802146" offset="27%"></stop>
            <stop stop-color="#342A51" stop-opacity="0" offset="100%"></stop>
        </linearGradient>
        <linearGradient x1="100%" y1="50%" x2="-3.1401734e-14%" y2="50%" id="linearGradient-4">
            <stop stop-color="#2B1339" offset="0%"></stop>
            <stop stop-color="#3C1A4C" offset="23%"></stop>
            <stop stop-color="#3B1A4B" offset="25%"></stop>
            <stop stop-color="#401B50" offset="35%"></stop>
            <stop stop-color="#342A51" stop-opacity="0" offset="100%"></stop>
        </linearGradient>
        <linearGradient x1="-0.0396825397%" y1="50%" x2="100%" y2="50%" id="linearGradient-5">
            <stop stop-color="#652B7D" offset="36%"></stop>
            <stop stop-color="#342A51" stop-opacity="0" offset="100%"></stop>
        </linearGradient>
        <linearGradient x1="6.53147407e-14%" y1="50.0170648%" x2="100%" y2="50.0170648%" id="linearGradient-6">
            <stop stop-color="#2B1339" offset="0%"></stop>
            <stop stop-color="#3C1A4C" offset="23%"></stop>
            <stop stop-color="#3B1A4B" offset="25%"></stop>
            <stop stop-color="#401B50" offset="35%"></stop>
            <stop stop-color="#342A51" stop-opacity="0" offset="100%"></stop>
        </linearGradient>
        <linearGradient x1="0.00965076122%" y1="50.0242319%" x2="100.010839%" y2="50.0242319%" id="linearGradient-7">
            <stop stop-color="#652B7D" offset="36%"></stop>
            <stop stop-color="#342A51" stop-opacity="0" offset="100%"></stop>
        </linearGradient>
        <linearGradient x1="0%" y1="50.0859202%" x2="100%" y2="50.0859202%" id="linearGradient-8">
            <stop stop-color="#381422" offset="10%"></stop>
            <stop stop-color="#721433" offset="100%"></stop>
        </linearGradient>
        <linearGradient x1="-0.0750046878%" y1="50%" x2="100%" y2="50%" id="linearGradient-9">
            <stop stop-color="#F78F1E" offset="34%"></stop>
            <stop stop-color="#FFC709" offset="100%"></stop>
        </linearGradient>
        <linearGradient x1="0%" y1="50.0276702%" x2="100%" y2="50.0276702%" id="linearGradient-10">
            <stop stop-color="#2B1339" offset="0%"></stop>
            <stop stop-color="#3C1A4C" offset="23%"></stop>
            <stop stop-color="#3B1A4B" offset="25%"></stop>
            <stop stop-color="#401B50" offset="35%"></stop>
            <stop stop-color="#342A51" stop-opacity="0" offset="100%"></stop>
        </linearGradient>
        <linearGradient x1="0.0300520449%" y1="50%" x2="100.02471%" y2="50%" id="linearGradient-11">
            <stop stop-color="#50B8DC" offset="4%"></stop>
            <stop stop-color="#FFFFFF" offset="100%"></stop>
        </linearGradient>
        <linearGradient x1="0.0373151482%" y1="50%" x2="100.024709%" y2="50%" id="linearGradient-12">
            <stop stop-color="#50B8DC" offset="4%"></stop>
            <stop stop-color="#FFFFFF" offset="100%"></stop>
        </linearGradient>
        <linearGradient x1="-0.00241016455%" y1="49.9302666%" x2="100%" y2="49.9302666%" id="linearGradient-13">
            <stop stop-color="#1E1241" offset="0%"></stop>
            <stop stop-color="#342A51" stop-opacity="0" offset="100%"></stop>
        </linearGradient>
        <linearGradient x1="0.0782440568%" y1="49.9654154%" x2="99.9959046%" y2="49.9654154%" id="linearGradient-14">
            <stop stop-color="#1E1241" offset="0%"></stop>
            <stop stop-color="#342A51" stop-opacity="0" offset="100%"></stop>
        </linearGradient>
        <linearGradient x1="0.00033901199%" y1="49.9566963%" x2="100%" y2="49.9566963%" id="linearGradient-15">
            <stop stop-color="#B63C65" offset="56%"></stop>
            <stop stop-color="#342A51" stop-opacity="0" offset="100%"></stop>
        </linearGradient>
        <linearGradient x1="-1.05676555e-13%" y1="49.8042008%" x2="100%" y2="49.8042008%" id="linearGradient-16">
            <stop stop-color="#381422" offset="10%"></stop>
            <stop stop-color="#721433" offset="100%"></stop>
        </linearGradient>
        <linearGradient x1="56.5903249%" y1="110.931536%" x2="43.5609607%" y2="14.1062246%" id="linearGradient-17">
            <stop stop-color="#FFC709" offset="0%"></stop>
            <stop stop-color="#F78F1E" offset="66%"></stop>
        </linearGradient>
        <linearGradient x1="519.818884%" y1="1014.76326%" x2="576.994722%" y2="930.648106%" id="linearGradient-18">
            <stop stop-color="#FFC709" offset="0%"></stop>
            <stop stop-color="#F78F1E" offset="66%"></stop>
        </linearGradient>
        <linearGradient x1="0%" y1="49.9589828%" x2="100%" y2="49.9589828%" id="linearGradient-19">
            <stop stop-color="#652B7D" offset="36%"></stop>
            <stop stop-color="#342A51" stop-opacity="0" offset="100%"></stop>
        </linearGradient>
        <linearGradient x1="0%" y1="50.0064842%" x2="100%" y2="50.0064842%" id="linearGradient-20">
            <stop stop-color="#652B7D" offset="36%"></stop>
            <stop stop-color="#342A51" stop-opacity="0" offset="100%"></stop>
        </linearGradient>
        <linearGradient x1="0%" y1="50%" x2="100%" y2="50%" id="linearGradient-21">
            <stop stop-color="#62C8D4" offset="0%"></stop>
            <stop stop-color="#342A51" offset="88%"></stop>
        </linearGradient>
        <linearGradient x1="0%" y1="49.9883259%" x2="100.312133%" y2="49.9883259%" id="linearGradient-22">
            <stop stop-color="#62C8D4" offset="0%"></stop>
            <stop stop-color="#342A51" offset="88%"></stop>
        </linearGradient>
        <linearGradient x1="-0.0353385822%" y1="50.012655%" x2="100%" y2="50.012655%" id="linearGradient-23">
            <stop stop-color="#62C8D4" offset="0%"></stop>
            <stop stop-color="#342A51" offset="88%"></stop>
        </linearGradient>
        <linearGradient x1="-0.00204472611%" y1="50.0052085%" x2="100%" y2="50.0052085%" id="linearGradient-24">
            <stop stop-color="#B63C65" offset="56%"></stop>
            <stop stop-color="#342A51" stop-opacity="0" offset="100%"></stop>
        </linearGradient>
        <linearGradient x1="-7.66786528e-15%" y1="49.997589%" x2="100%" y2="49.997589%" id="linearGradient-25">
            <stop stop-color="#B63C65" offset="56%"></stop>
            <stop stop-color="#342A51" stop-opacity="0" offset="100%"></stop>
        </linearGradient>
        <linearGradient x1="49.9792229%" y1="0%" x2="49.9792229%" y2="100.020446%" id="linearGradient-26">
            <stop stop-color="#2B1339" offset="0%"></stop>
            <stop stop-color="#3C1A4C" offset="23%"></stop>
            <stop stop-color="#3B1A4B" offset="25%"></stop>
            <stop stop-color="#401B50" offset="35%"></stop>
            <stop stop-color="#342A51" stop-opacity="0" offset="100%"></stop>
        </linearGradient>
        <linearGradient x1="50.0147798%" y1="0%" x2="50.0147798%" y2="99.9927427%" id="linearGradient-27">
            <stop stop-color="#2B1339" offset="0%"></stop>
            <stop stop-color="#3C1A4C" offset="23%"></stop>
            <stop stop-color="#3B1A4B" offset="25%"></stop>
            <stop stop-color="#401B50" offset="35%"></stop>
            <stop stop-color="#342A51" stop-opacity="0" offset="100%"></stop>
        </linearGradient>
        <linearGradient x1="0.0550547873%" y1="50%" x2="100.007021%" y2="50%" id="linearGradient-28">
            <stop stop-color="#652B7D" offset="36%"></stop>
            <stop stop-color="#342A51" stop-opacity="0" offset="100%"></stop>
        </linearGradient>
    </defs>
    <g id="Page-1" stroke="none" stroke-width="1" fill="none" fill-rule="evenodd">
        <g id="Problem-2">
            <path d="M350.14,421.81 C340.14,465.21 272.04,481.23 182.58,465.87 C93.12,450.51 33.7,387.77 67.04,345.71 C100.38,303.65 99.29,235.24 92.51,219.71 C92.51,219.71 72.05,226.19 45.34,200.83 C30.96,187.15 25.87,161.47 32.86,139.43 C38.86,120.58 53.65,104.43 79.04,100.72 C131.9,93.04 149.71,127.72 178.22,130.27 C177.96,128.68 175.39,115.46 160.8,113.57 C160.8,113.57 177.22,113.98 180.05,127.35 C182.87,113.98 199.29,113.57 199.29,113.57 C183.76,115.57 181.84,130.43 181.84,130.43 C193.69,130.31 203.99,133.27 211.63,139.43 C212.01,139.06 212.4,138.71 212.78,138.43 C224.78,128.35 237.65,140.63 238.22,141.18 C226.03,131.38 213.99,140.26 213.99,140.26 C213.99,140.26 213.72,140.5 213.27,140.87 C215.070438,142.52482 216.683464,144.37259 218.08,146.38 L218.19,146.54 C224.08,154.98 226.8,166.82 225.19,182.2 C240.35,178.91 246.06,195.46 246.37,196.4 C240.12,182.11 225.37,184.4 225.37,184.4 L224.94,184.49 C224.54,187.59 223.976667,190.823333 223.25,194.19 C213.56,237.93 219.25,262.29 266.63,292.99 C314.01,323.69 360.15,378.43 350.14,421.81 Z" id="Path" fill="#342A51"></path>
            <path d="M194.29,221.11 C194.29,221.11 199.73,264.33 226.49,286.74 C253.25,309.15 315.69,345.3 327.78,393.61 C339.87,441.92 261.04,459.88 261.04,459.88 L177.78,297.31 L194.29,221.11 Z" id="Path" fill="#1E1241"></path>
            <path d="M244.33,295.3 C244.33,295.3 278.71,308.3 292.06,351.72 C305.41,395.14 290.06,427.15 298.74,453.19 C307.42,479.23 320.1,491.88 320.1,491.88 L263.7,491.88 L232.65,380.76 L244.33,295.3 Z" id="Path" fill="#AF1D46"></path>
            <path d="M103.42,219.52 C103.42,219.52 120.3,290.67 92.78,322.68 C65.26,354.69 164.61,311.23 166.88,306.86 C169.15,302.49 142.54,247.58 142.54,247.58 L103.42,219.52 Z" id="Path" fill="#1E1241"></path>
            <path d="M186.04,322.34 C186.04,322.34 191.55,323.01 202.73,310.83 C213.91,298.65 224.2,294.27 243.42,301.63 C262.64,308.99 282.84,325.35 283.68,359.39 C284.52,393.43 284.01,404.79 279.5,429.66 C274.99,454.53 288.22,491.88 288.22,491.88 L263.7,491.88 C263.7,491.88 191.23,376.88 190.7,374.88 C190.17,372.88 186.04,322.34 186.04,322.34 Z" id="Path" fill="#89173F"></path>
            <path d="M187.74,242.57 C180.83,257.83 168.36,269.97 159.2,276.57 C154.36,280.09 148.51,281.18 142.54,280.64 C132.05,279.74 121.2,273.82 114.82,267.23 C106.52,258.65 94.32,224.87 90.38,213.54 C98.14,211.54 110.32,205.54 120.83,187.79 C120.83,187.79 114.02,209.13 103.42,219.48 C104.28,218.92 131.91,201.16 136.84,181.78 C136.84,181.78 134.51,203.78 124.84,216.43 C126.23,215.31 148.76,197.1 151.15,185.43 C151.15,185.43 154.31,198.94 151.82,206.21 C153.51,202.21 157.76,191.33 157.49,185.43 C157.49,185.43 159.49,205.79 161.83,211.13 C161.83,211.13 160.49,195.43 161.83,189.13 L170.83,219.5 C170.83,219.5 169.49,202.5 176.5,197.14 C183.35,191.91 187.34,205.84 186.26,215.2 C186.26,215.41 186.21,215.63 186.18,215.83 C185.35,222.21 186.74,235.01 187.74,242.57 Z" id="Path" fill="#F48184"></path>
            <path d="M175.82,222.67 C175.82,222.67 173.98,210.17 179.71,206.93 C179.71,206.93 183.49,205.66 183.45,210.8 C183.45,210.8 182.7,208.8 181.32,209.31 C181.32,209.31 183.7,211.06 182.45,217.95 C181.2,224.84 180.82,229.46 180.82,229.46 C180.82,229.46 174.94,226.64 175.82,222.67 Z" id="Path" fill="url(#linearGradient-1)"></path>
            <path d="M268.69,407.46 L263.69,414.77 L263.69,491.88 L36.38,491.88 C36.38,491.88 57.56,343.05 82.04,320.67 C106.52,298.29 190.79,280.82 190.79,280.82 C190.79,280.82 250.95,300.06 268.72,322.35 C275.34,330.63 279.02,340.85 280.28,351.79 C282.4,370.25 277.7,390.72 268.69,407.46 Z" id="Path" fill="url(#linearGradient-2)"></path>
            <path d="M190.66,266.67 L190.76,280.82 C190.76,280.82 183.26,293.05 177.76,297.31 C172.26,301.57 164.28,298.81 164.28,298.81 C164.28,298.81 188.23,267.33 190.66,266.67 Z" id="Path" fill="#D77077"></path>
            <path d="M187.74,242.57 C180.83,257.83 168.36,269.97 159.2,276.57 C154.36,280.09 148.51,281.18 142.54,280.64 C143.71,276.51 146.54,268.15 151.27,262.91 C157.79,255.71 168.27,235.58 169.15,231.51 C170.03,227.44 177.52,227.91 177.52,227.91 C177.52,227.91 178.65,216.34 182.44,216.08 C184.07,215.97 185.22,214.91 186.33,215.19 C186.33,215.4 186.28,215.62 186.25,215.82 C185.35,222.21 186.74,235.01 187.74,242.57 Z" id="Path" fill="url(#linearGradient-3)" opacity="0.34"></path>
            <path d="M263.7,414.8 L263.7,428.36 C234.4,457.73 175.53,466.2 173.19,466.52 C216.27,456.98 263.7,414.8 263.7,414.8 Z" id="Path" fill="url(#linearGradient-4)" opacity="0.83"></path>
            <polygon id="Path" fill="url(#linearGradient-5)" opacity="0.14" points="47.83 425.44 62.07 425.44 62.07 488.58 36.87 488.58"></polygon>
            <path d="M256.18,332.36 C256.18,332.36 211.6,364.36 197.59,378.92 C183.58,393.48 173.19,404.92 173.19,404.92 C173.19,404.92 169,311.04 170.81,299.52 L169.15,302.45 L169.15,416.72 C169.15,416.72 228.89,347.88 256.18,332.36 Z" id="Path" fill="url(#linearGradient-6)" opacity="0.83"></path>
            <path d="M268.69,407.46 L263.69,414.77 L263.69,428.58 C243.52,453.26 204.29,454.98 204.29,454.98 L177.13,451.49 C177.13,451.49 203.59,444.99 242.13,421.95 C279.53,399.61 280.22,354.48 280.22,351.81 C282.4,370.25 277.7,390.72 268.69,407.46 Z" id="Path" fill="url(#linearGradient-7)" opacity="0.14"></path>
            <path d="M253.24,309.15 C233.79,295.93 215.62,300.98 205.94,311.33 C199.94,317.69 192.26,322.79 186.24,322.33 C182.49,322.05 179.4,319.62 177.81,313.98 C173.7,299.29 190.81,280.8 190.81,280.8 C197.98,269.66 210.32,273.26 218.48,280.8 C220.95158,283.050582 223.653122,285.034841 226.54,286.72 C230.564419,289.064769 234.740297,291.139346 239.04,292.93 C240.95,293.76 242.73,294.53 244.33,295.3 C248.71,297.39 251.11,302.3 252.33,305.66 C252.715134,306.800454 253.019225,307.96669 253.24,309.15 Z" id="Path" fill="#AF1D46"></path>
            <path d="M141.9,288.03 C141.9,288.03 123.16,291.72 116.82,306.86 C110.48,322 127.5,322.01 132.17,315.33 C136.84,308.65 140.76,302.33 140.76,302.33 C140.76,302.33 141.04,292.03 141.9,288.03 Z" id="Path" fill="#AF1D46"></path>
            <path d="M130.3,309.62 C130.3,309.62 133.39,297.01 142.54,293.62 C142.54,293.62 134.54,292.93 122.49,304.78 L130.3,309.62 Z" id="Path" fill="url(#linearGradient-8)"></path>
            <path d="M53.37,432.27 L53.37,473.79 C53.37,483.057338 45.8573381,490.57 36.59,490.57 L16.79,490.57 C7.53894848,490.542473 0.0509722529,483.041086 0.04,473.79 L0.04,432.27 L53.37,432.27 Z" id="Path" fill="url(#linearGradient-9)"></path>
            <rect id="Rectangle" fill="url(#linearGradient-10)" opacity="0.83" x="0" y="451.16" width="53.37" height="18.07"></rect>
            <path d="M197.35,229.34 C196.09,241.34 195.84,261.87 185.82,275.21 C175.8,288.55 171.56,294.05 170.82,299.56 C170.08,305.07 155.54,311.33 140.77,302.32 C140.77,302.32 139.45,279.78 151.88,266.51 C164.31,253.24 166.44,246.99 169.45,240.23 C172.46,233.47 173.45,231.47 175.32,231.84 C175.700472,231.929519 176.022306,232.181866 176.2,232.53 C177.1,234.12 176.73,238.2 175.32,243.35 C174.515308,246.519832 173.413775,249.606804 172.03,252.57 C172.62,251.57 175.55,246.24 177.79,235.87 C177.785404,235.816766 177.785404,235.763234 177.79,235.71 C180.29,224.08 180.41,220.71 182.79,219.33 C183.6,218.85 184.2,219.41 184.57,220.58 C185.34,222.82 185.32,227.34 184.66,231.32 C183.91,235.84 183.72,236.97 183.66,237.25 C183.78,236.87 184.23,235.33 184.78,233.25 C186.008127,228.837191 186.976456,224.356168 187.68,219.83 C188.41,213.83 192.28,213.07 192.28,218.2 C192.28,219.2 192.28,220.2 192.2,221.14 C192.083416,223.818708 191.823041,226.489221 191.42,229.14 C191.42,229.14 191.36,229.59 191.25,230.35 C191.05,231.54 190.83,232.75 190.6,234.01 L190.79,233.44 C191.43,231.25 193.79,223.32 194.23,221.16 C194.23,221.04 194.23,220.95 194.28,220.87 C194.6,218.95 198.59,217.32 197.35,229.34 Z" id="Path" fill="#F48184"></path>
            <path d="M177.78,235.88 C177.49,237.38 174.99,249.8 168.43,260.02 C168.43,260.02 176.25,243.39 176.19,232.54 C177.09,234.13 176.72,238.21 175.31,243.36 C174.509385,246.586937 173.380152,249.723324 171.94,252.72 C172.21,252.28 175.39,246.93 177.78,235.88 Z" id="Path" fill="#D77077"></path>
            <path d="M183.7,237.34 C183.7,237.34 184.19,235.65 184.84,233.24 C183.69634,239.778052 181.979723,246.202818 179.71,252.44 C179.98,251.22 184.45,231.89 184.61,220.58 C185.38,222.82 185.36,227.34 184.7,231.32 L183.7,237.34 Z" id="Path" fill="#D77077"></path>
            <path d="M194.29,221.11 C193.61,235.91 187.62,250.02 187.22,250.94 C188.739418,245.158289 189.95112,239.300061 190.85,233.39 C191.49,231.2 193.88,223.27 194.29,221.11 Z" id="Path" fill="#D77077"></path>
            <path d="M10.16,427.53 C10.16,427.53 18.79,420.26 11.39,412.25 C3.99,404.24 1.85,398.39 10.16,389.77 C10.16,389.77 1.23,396.85 11.39,405.77 C21.55,414.69 10.16,427.53 10.16,427.53 Z" id="Path" fill="url(#linearGradient-11)"></path>
            <path d="M30.84,427.53 C30.84,427.53 39.46,420.26 32.07,412.25 C24.68,404.24 22.52,398.39 30.84,389.77 C30.84,389.77 21.91,396.85 32.07,405.77 C42.23,414.69 30.84,427.53 30.84,427.53 Z" id="Path" fill="url(#linearGradient-12)"></path>
            <path d="M134.68,216.53 C134.68,216.53 144.52,213.53 153.03,214.78 L161.55,216.03 C161.55,216.03 152.37,210.19 144.69,210.85 C137.01,211.51 135.18,212.14 134.01,213.66 C132.84,215.18 134.68,216.53 134.68,216.53 Z" id="Path" fill="url(#linearGradient-13)"></path>
            <path d="M133.62,232.53 C133.62,232.53 143.69,231.02 148.7,225.11 C148.7,225.11 149.81,226.43 147.58,228.82 C147.58,228.82 150.03,233.82 145.69,236.03 C141.35,238.24 139.04,233.88 139.04,233.88 C139.04,233.88 135.23,234.88 133.62,232.53 Z" id="Path" fill="#1E1241"></path>
            <path d="M114.21,228.23 C110.934525,229.489462 107.89261,231.287571 105.21,233.55 C104.025992,234.648731 102.784229,235.683534 101.49,236.65 C102.455037,233.689391 104.361998,231.125704 106.92,229.35 C111.04,226.64 112.2,226.22 113.4,226.52 C114.6,226.82 114.21,228.23 114.21,228.23 Z" id="Path" fill="url(#linearGradient-14)"></path>
            <path d="M118.57,237.78 C118.57,237.78 112.44,242.78 106.41,242.6 C106.41,242.6 106.59,243.93 109.13,243.9 C109.13,243.9 110.75,247.9 114.28,246.57 C117.81,245.24 116.51,241.63 116.51,241.63 C116.51,241.63 119.04,239.88 118.57,237.78 Z" id="Path" fill="#1E1241"></path>
            <path d="M124.58,241.81 C124.58,241.81 123.74,254.81 126.33,255.58 C128.92,256.35 133.17,255.58 133.17,255.58 C133.17,255.58 124.83,255.88 124.58,241.81 Z" id="Path" fill="url(#linearGradient-15)" opacity="0.67"></path>
            <path d="M136.18,267.52 C136.18,267.52 137.18,260.76 146.86,263.68" id="Path" stroke="#1E1241"></path>
            <path d="M239.09,292.96 C223.49,288.61 209.61,291.3 202.85,302.12 C196.09,312.94 190.76,314.88 190.76,314.88 L185.3,299.61 C191.3,288.02 216.68,286.82 226.49,286.79 C230.532474,289.112843 234.725074,291.164043 239.04,292.93 L239.09,292.96 Z" id="Path" fill="url(#linearGradient-16)"></path>
            <path d="M184.04,301.88 C183.807782,302.407515 183.607422,302.948487 183.44,303.5 C183.44,303.5 183.44,303.5 183.44,303.5 C181.83,308.5 183,313.38 186.34,314.85 C190.04,316.47 195.01,313.29 197.46,307.73 C198.479595,305.488383 198.916441,303.025537 198.73,300.57 C198.48,297.83 197.25,295.63 195.18,294.72 C191.47,293.12 186.5,296.31 184.04,301.88 Z" id="Path" fill="#FFC709"></path>
            <path d="M184.04,301.88 C183.807782,302.407515 183.607422,302.948487 183.44,303.5 C183.44,303.5 183.44,303.5 183.44,303.5 C182.14,311.07 187.18,315.11 193.44,310.81 C196.63,308.62 198.07,304.29 198.71,300.57 C198.46,297.83 197.23,295.63 195.16,294.72 C191.47,293.12 186.5,296.31 184.04,301.88 Z" id="Path" fill="url(#linearGradient-17)"></path>
            <path d="M192.95,299.2 C192.894703,299.316463 192.847914,299.436777 192.81,299.56 C192.45,300.68 192.71,301.77 193.46,302.09 C194.21,302.41 195.39,301.75 195.94,300.51 C196.167676,300.009093 196.264038,299.458457 196.22,298.91 C196.215852,298.361775 195.912944,297.859485 195.43,297.6 C194.6,297.25 193.49,297.96 192.95,299.2 Z" id="Path" fill="#FEE292"></path>
            <path d="M189.89,300.88 L189.83,301.06 C189.65,301.62 189.78,302.16 190.15,302.32 C190.52,302.48 191.15,302.15 191.39,301.53 C191.500615,301.278561 191.548653,301.004061 191.53,300.73 C191.531495,300.457528 191.38112,300.206902 191.14,300.08 C190.72,299.88 190.17,300.24 189.89,300.88 Z" id="Path" fill="#FEE292"></path>
            <path d="M120.5,305.31 C120.331493,305.69484 120.184598,306.088787 120.06,306.49 C120.06,306.49 120.06,306.49 120.06,306.49 C118.88,310.15 119.73,313.71 122.17,314.78 C124.88,315.97 128.52,313.64 130.3,309.58 C131.049291,307.940444 131.36932,306.137268 131.23,304.34 C131.219923,302.548018 130.224539,300.90698 128.64,300.07 C125.93,298.88 122.29,301.24 120.5,305.31 Z" id="Path" fill="#FFC709"></path>
            <path d="M120.5,305.31 C120.331493,305.69484 120.184598,306.088787 120.06,306.49 C120.06,306.49 120.06,306.49 120.06,306.49 C119.06,312.02 122.79,314.97 127.38,311.83 C129.72,310.23 130.76,307.06 131.23,304.34 C131.219923,302.548018 130.224539,300.90698 128.64,300.07 C125.93,298.88 122.29,301.24 120.5,305.31 Z" id="Path" fill="url(#linearGradient-18)"></path>
            <path d="M127.04,303.36 C126.999692,303.44382 126.966249,303.530772 126.94,303.62 C126.67,304.44 126.86,305.23 127.41,305.47 C127.96,305.71 128.82,305.22 129.22,304.31 C129.392222,303.945429 129.464685,303.541708 129.43,303.14 C129.425106,302.741048 129.202631,302.37665 128.85,302.19 C128.22,301.93 127.4,302.45 127.04,303.36 Z" id="Path" fill="#FEE292"></path>
            <path d="M124.77,304.57 L124.77,304.71 C124.64,305.12 124.77,305.51 125.01,305.63 C125.25,305.75 125.72,305.51 125.92,305.05 C125.999779,304.867608 126.034095,304.668577 126.02,304.47 C126.016182,304.269636 125.905589,304.086585 125.73,303.99 C125.38,303.88 124.97,304.12 124.77,304.57 Z" id="Path" fill="#FEE292"></path>
            <path d="M253.24,309.15 C233.79,295.93 215.62,300.98 205.94,311.33 C199.94,317.69 192.26,322.79 186.24,322.33 C187.24,322.33 192.68,321.79 202.77,310.8 C213.95,298.63 224.24,294.25 243.47,301.61 C246.492977,302.752232 249.439098,304.088341 252.29,305.61 C252.690973,306.765746 253.008455,307.948786 253.24,309.15 Z" id="Path" fill="#89173F"></path>
            <path d="M215.19,363.45 C215.19,363.45 227.04,336.36 239.09,326.88 C239.09,326.88 230.14,338.75 232.65,349.88 L215.19,363.45 Z" id="Path" fill="url(#linearGradient-19)" opacity="0.14"></path>
            <path d="M246.66,427.49 C246.66,427.49 249.8,480.73 218.44,491.91 L263.7,491.91 L263.7,414.8 L246.66,427.49 Z" id="Path" fill="url(#linearGradient-20)" opacity="0.14"></path>
            <path d="M126.75,178.12 C123.061294,193.854972 114.969237,208.214646 103.42,219.52 C103.42,219.52 114.48,208.14 126.75,178.12 Z" id="Path" fill="url(#linearGradient-21)"></path>
            <path d="M138.18,173.64 C139.703758,189.124373 134.911618,204.568117 124.89,216.47 C124.89,216.47 136.34,204.18 138.18,173.64 Z" id="Path" fill="url(#linearGradient-22)"></path>
            <path d="M164.3,180.02 C164.3,180.02 167.77,210.9 170.9,219.53 C170.9,219.53 158.79,187.4 164.3,180.02 Z" id="Path" fill="url(#linearGradient-23)"></path>
            <path d="M138.5,163.12 C138.5,163.12 109.78,206.26 84.09,208.73 C80.9689604,209.01236 77.8261487,208.945278 74.72,208.53 C51.43,205.47 27.65,183.98 32.87,157.02 C32.87,157.02 26.69,197.4 65.08,210.8 C65.04,210.8 109.45,234.22 138.5,163.12 Z" id="Path" fill="url(#linearGradient-24)"></path>
            <path d="M218.25,146.51 C206.86,133.41 189.59,134.57 173.11,135.59 C156.63,136.61 135.01,106.54 92.78,103.54 C51.19,100.54 33.44,138.28 32.92,139.41 C38.92,120.56 53.71,104.41 79.1,100.7 C131.96,93.02 149.77,127.7 178.28,130.25 C178.02,128.66 175.45,115.44 160.86,113.55 C160.86,113.55 177.28,113.96 180.11,127.33 C182.93,113.96 199.35,113.55 199.35,113.55 C183.82,115.55 181.9,130.41 181.9,130.41 C193.75,130.29 204.05,133.25 211.69,139.41 C212.07,139.04 212.46,138.69 212.84,138.41 L214.05,140.24 L218.14,146.36 L218.25,146.51 Z" id="Path" fill="url(#linearGradient-25)"></path>
            <path d="M10.62,69.66 C8.88420081,69.6599913 7.47551047,71.0642096 7.47,72.8 L7.47,175 C7.5641001,176.668122 8.94422577,177.972588 10.615,177.972588 C12.2857742,177.972588 13.6658999,176.668122 13.76,175 L13.76,72.8 C13.76,71.0658259 12.3541741,69.66 10.62,69.66 Z" id="Path" fill="#50B8DC"></path>
            <path d="M57.26,21.59 C55.520303,21.59 54.11,23.000303 54.11,24.74 L54.11,126.93 C54.11,128.669697 55.520303,130.08 57.26,130.08 C58.999697,130.08 60.41,128.669697 60.41,126.93 L60.41,24.74 C60.41,23.000303 58.999697,21.59 57.26,21.59 Z" id="Path" fill="#50B8DC"></path>
            <path d="M87.24,75.88 C85.500303,75.88 84.09,77.290303 84.09,79.03 L84.09,147.17 C84.0242296,148.335919 84.6088641,149.44255 85.6090393,150.045328 C86.6092145,150.648107 87.8607855,150.648107 88.8609607,150.045328 C89.8611359,149.44255 90.4457704,148.335919 90.38,147.17 L90.38,78.98 C90.3527624,77.2637455 88.9564626,75.885233 87.24,75.88 Z" id="Path" fill="#50B8DC"></path>
            <path d="M200.73,43.88 C198.99421,43.8855105 197.589991,45.2942008 197.59,47.03 L197.59,103.69 C197.6841,105.358122 199.064226,106.662588 200.735,106.662588 C202.405774,106.662588 203.7859,105.358122 203.88,103.69 L203.88,47.07 C203.890697,46.2276591 203.563552,45.4161298 202.971649,44.8167106 C202.379746,44.2172914 201.572409,43.8799321 200.73,43.88 Z" id="Path" fill="#50B8DC"></path>
            <rect id="Rectangle" fill="#50B8DC" x="131.88" y="54.14" width="6.29" height="74.44" rx="3.145"></rect>
            <path d="M224.16,69.66 C222.43592,69.6764121 221.045395,71.0758506 221.04,72.8 L221.04,140.95 C221.1341,142.618122 222.514226,143.922588 224.185,143.922588 C225.855774,143.922588 227.2359,142.618122 227.33,140.95 L227.33,72.8 C227.330038,71.9619962 226.995103,71.1587447 226.399734,70.5690104 C225.804365,69.9792762 224.997966,69.6519936 224.16,69.66 Z" id="Path" fill="#50B8DC"></path>
            <path d="M111.19,0 C109.454201,-8.74680549e-06 108.04551,1.40420956 108.04,3.14 L108.04,84.7 C107.97423,85.8659187 108.558864,86.9725498 109.559039,87.5753282 C110.559215,88.1781065 111.810785,88.1781065 112.810961,87.5753282 C113.811136,86.9725498 114.39577,85.8659187 114.33,84.7 L114.33,3.14 C114.324511,1.40810477 112.921895,0.00548940814 111.19,0 Z" id="Path" fill="#50B8DC"></path>
            <path d="M90.38,345.15 L80.93,455.01 C80.93,455.01 146.78,461.49 173.19,466.52 L173.19,491.88 L177.19,491.88 L177.19,463.88 C177.19,463.88 111.19,451.7 87.49,452.03 L90.38,345.15 Z" id="Path" fill="url(#linearGradient-26)"></path>
            <path d="M177.14,463.88 C177.14,463.88 206.42,467.26 215.14,471.58 C223.86,475.9 232.65,491.88 232.65,491.88 L177.14,491.88 L177.14,463.88 Z" id="Path" fill="#F48184"></path>
            <path d="M140.76,302.32 C140.76,302.32 120.91,407.79 119.53,434.16 C118.15,460.53 141.9,459.881435 141.9,459.881435 C141.9,459.881435 120.23,458.76 115.42,456.21 C110.61,453.66 108.07,453.37 108.07,453.37 L140.76,302.32 Z" id="Path" fill="url(#linearGradient-27)"></path>
            <path d="M90.38,345.15 C90.38,345.15 87.15,421.03 108.07,432.27 C128.99,443.51 115.42,454.21 115.42,454.21 L83.42,451.16 L90.38,345.15 Z" id="Path" fill="url(#linearGradient-28)" opacity="0.14"></path>
        </g>
    </g>
</svg>