<?xml version="1.0" encoding="UTF-8"?>
<svg width="352px" height="454px" viewBox="0 0 352 454" version="1.1" xmlns="http://www.w3.org/2000/svg" xmlns:xlink="http://www.w3.org/1999/xlink">
    <!-- Generator: Sketch 52.6 (67491) - http://www.bohemiancoding.com/sketch -->
    <title>big change 2</title>
    <desc>Created with Sketch.</desc>
    <defs>
        <linearGradient x1="50%" y1="0%" x2="50%" y2="100%" id="linearGradient-1">
            <stop stop-color="#50B8DC" offset="5%"></stop>
            <stop stop-color="#FFFFFF" offset="82%"></stop>
        </linearGradient>
        <linearGradient x1="50.0098016%" y1="1.98578352e-14%" x2="50.0098016%" y2="99.9818898%" id="linearGradient-2">
            <stop stop-color="#50B8DC" offset="5%"></stop>
            <stop stop-color="#FFFFFF" offset="82%"></stop>
        </linearGradient>
        <linearGradient x1="0%" y1="50.028245%" x2="99.9922335%" y2="50.028245%" id="linearGradient-3">
            <stop stop-color="#973058" offset="56%"></stop>
            <stop stop-color="#342A51" stop-opacity="0" offset="100%"></stop>
        </linearGradient>
        <linearGradient x1="-0.00188431694%" y1="50.0008952%" x2="100%" y2="50.0008952%" id="linearGradient-4">
            <stop stop-color="#62C8D4" offset="0%"></stop>
            <stop stop-color="#342A51" offset="65%"></stop>
        </linearGradient>
        <linearGradient x1="0%" y1="49.9825751%" x2="100%" y2="49.9825751%" id="linearGradient-5">
            <stop stop-color="#62C8D4" offset="0%"></stop>
            <stop stop-color="#342A51" offset="65%"></stop>
        </linearGradient>
        <linearGradient x1="0%" y1="50.0155065%" x2="100.014621%" y2="50.0155065%" id="linearGradient-6">
            <stop stop-color="#1E1241" offset="0%"></stop>
            <stop stop-color="#342A51" stop-opacity="0" offset="100%"></stop>
        </linearGradient>
        <linearGradient x1="0.014319376%" y1="50.0034778%" x2="100.034573%" y2="50.0034778%" id="linearGradient-7">
            <stop stop-color="#973058" offset="56%"></stop>
            <stop stop-color="#342A51" stop-opacity="0" offset="100%"></stop>
        </linearGradient>
        <linearGradient x1="0%" y1="50.0101812%" x2="100%" y2="50.0101812%" id="linearGradient-8">
            <stop stop-color="#1E1241" offset="0%"></stop>
            <stop stop-color="#342A51" stop-opacity="0" offset="100%"></stop>
        </linearGradient>
        <linearGradient x1="49.9559277%" y1="0%" x2="49.9559277%" y2="100%" id="linearGradient-9">
            <stop stop-color="#1D214C" offset="10%"></stop>
            <stop stop-color="#2D306D" offset="42%"></stop>
        </linearGradient>
        <linearGradient x1="0.0259931218%" y1="49.9774456%" x2="100%" y2="49.9774456%" id="linearGradient-10">
            <stop stop-color="#B63C65" offset="56%"></stop>
            <stop stop-color="#342A51" stop-opacity="0" offset="100%"></stop>
        </linearGradient>
        <linearGradient x1="49.9850587%" y1="-0.0099501314%" x2="49.9850587%" y2="99.9857031%" id="linearGradient-11">
            <stop stop-color="#50B8DC" offset="5%"></stop>
            <stop stop-color="#FFFFFF" offset="82%"></stop>
        </linearGradient>
        <linearGradient x1="50%" y1="0%" x2="50%" y2="100%" id="linearGradient-12">
            <stop stop-color="#50B8DC" offset="34%"></stop>
            <stop stop-color="#FFFFFF" offset="100%"></stop>
        </linearGradient>
        <linearGradient x1="0%" y1="50%" x2="100%" y2="50%" id="linearGradient-13">
            <stop stop-color="#F78F1E" offset="34%"></stop>
            <stop stop-color="#FFC709" offset="100%"></stop>
        </linearGradient>
        <linearGradient x1="-0.205215866%" y1="49.4478953%" x2="99.6572735%" y2="49.4478953%" id="linearGradient-14">
            <stop stop-color="#F78F1E" offset="34%"></stop>
            <stop stop-color="#FFC709" offset="100%"></stop>
        </linearGradient>
        <linearGradient x1="-0.273804024%" y1="49.9999834%" x2="99.9363629%" y2="49.9999834%" id="linearGradient-15">
            <stop stop-color="#F78F1E" offset="34%"></stop>
            <stop stop-color="#FFC709" offset="100%"></stop>
        </linearGradient>
        <linearGradient x1="0.0687552979%" y1="49.4477345%" x2="99.9312447%" y2="49.4477345%" id="linearGradient-16">
            <stop stop-color="#F78F1E" offset="34%"></stop>
            <stop stop-color="#FFC709" offset="100%"></stop>
        </linearGradient>
        <linearGradient x1="0.0687552979%" y1="49.4477747%" x2="99.9312447%" y2="49.4477747%" id="linearGradient-17">
            <stop stop-color="#F78F1E" offset="34%"></stop>
            <stop stop-color="#FFC709" offset="100%"></stop>
        </linearGradient>
        <linearGradient x1="-0.0165358121%" y1="49.9555346%" x2="100.194906%" y2="49.9555346%" id="linearGradient-18">
            <stop stop-color="#F78F1E" offset="34%"></stop>
            <stop stop-color="#FFC709" offset="100%"></stop>
        </linearGradient>
        <linearGradient x1="-0.118618591%" y1="50.0000137%" x2="100.039758%" y2="50.0000137%" id="linearGradient-19">
            <stop stop-color="#F78F1E" offset="34%"></stop>
            <stop stop-color="#FFC709" offset="100%"></stop>
        </linearGradient>
        <linearGradient x1="-0.0508692577%" y1="49.9871106%" x2="99.9920042%" y2="49.9871106%" id="linearGradient-20">
            <stop stop-color="#62C8D4" offset="0%"></stop>
            <stop stop-color="#342A51" offset="65%"></stop>
        </linearGradient>
        <linearGradient x1="0%" y1="49.9812614%" x2="100.007247%" y2="49.9812614%" id="linearGradient-21">
            <stop stop-color="#62C8D4" offset="0%"></stop>
            <stop stop-color="#342A51" offset="65%"></stop>
        </linearGradient>
        <linearGradient x1="50.0132232%" y1="0%" x2="50.0132232%" y2="100.015736%" id="linearGradient-22">
            <stop stop-color="#1D214C" offset="10%"></stop>
            <stop stop-color="#2D306D" offset="42%"></stop>
        </linearGradient>
        <linearGradient x1="5.12011059%" y1="36.6016947%" x2="93.6180055%" y2="64.8993967%" id="linearGradient-23">
            <stop stop-color="#F78F1E" offset="34%"></stop>
            <stop stop-color="#FFC709" offset="100%"></stop>
        </linearGradient>
        <linearGradient x1="50.0548847%" y1="-0.022068235%" x2="50.0548847%" y2="99.8411087%" id="linearGradient-24">
            <stop stop-color="#1D214C" offset="10%"></stop>
            <stop stop-color="#2D306D" offset="42%"></stop>
        </linearGradient>
        <linearGradient x1="0.268569648%" y1="-0.149195828%" x2="99.7367198%" y2="100.150612%" id="linearGradient-25">
            <stop stop-color="#FFC713" offset="0%"></stop>
            <stop stop-color="#F78F20" offset="66%"></stop>
        </linearGradient>
        <linearGradient x1="-122.471124%" y1="14.0534936%" x2="222.532716%" y2="85.9551399%" id="linearGradient-26">
            <stop stop-color="#50B8DC" offset="4%"></stop>
            <stop stop-color="#FFFFFF" offset="100%"></stop>
        </linearGradient>
        <linearGradient x1="52.2377388%" y1="99.9633626%" x2="48.1798822%" y2="0.000469205532%" id="linearGradient-27">
            <stop stop-color="#31357C" offset="27%"></stop>
            <stop stop-color="#5C397D" offset="51%"></stop>
            <stop stop-color="#F175A8" offset="100%"></stop>
        </linearGradient>
        <linearGradient x1="52.2444292%" y1="99.9435013%" x2="48.1854049%" y2="-0.0481583779%" id="linearGradient-28">
            <stop stop-color="#31357C" offset="27%"></stop>
            <stop stop-color="#5C397D" offset="51%"></stop>
            <stop stop-color="#F175A8" offset="100%"></stop>
        </linearGradient>
        <linearGradient x1="-0.0249241607%" y1="49.9999505%" x2="100.048808%" y2="49.9999505%" id="linearGradient-29">
            <stop stop-color="#1D214C" offset="10%"></stop>
            <stop stop-color="#2D306D" offset="42%"></stop>
        </linearGradient>
        <linearGradient x1="0.0267134721%" y1="49.9999505%" x2="100.100446%" y2="49.9999505%" id="linearGradient-30">
            <stop stop-color="#1D214C" offset="10%"></stop>
            <stop stop-color="#2D306D" offset="42%"></stop>
        </linearGradient>
        <linearGradient x1="-0.286233181%" y1="49.9777181%" x2="100.152638%" y2="49.9777181%" id="linearGradient-31">
            <stop stop-color="#1D214C" offset="10%"></stop>
            <stop stop-color="#2D306D" offset="42%"></stop>
        </linearGradient>
    </defs>
    <g id="Page-1" stroke="none" stroke-width="1" fill="none" fill-rule="evenodd">
        <g id="big-change-2">
            <polygon id="Path" fill="url(#linearGradient-1)" points="152.08 307.95 152.08 341.03 288.16 341.03 288.16 261.91 164.61 288.39"></polygon>
            <path d="M186.97,170.74 C186.97,170.74 148.02,186.5 143.97,190.19 C139.92,193.88 133.91,193.87 124.86,215.67 C115.81,237.47 108.43,275.67 118.86,296.13 C129.29,316.59 143.67,311.55 158.42,305.51 C173.17,299.47 186.98,288.27 186.98,288.27 L208.38,181.7 L196.5,167.7 L186.97,170.74 Z" id="Path" fill="url(#linearGradient-2)"></path>
            <path d="M214.47,158.97 C214.62,165.09 200.62,181.12 200.62,181.12 C190.21,184.12 187.24,174.12 187.24,174.12 L185.9,157.34 L208.37,148.97 C209.563032,152.126955 211.433599,154.984008 213.85,157.34 C214.263561,157.780295 214.486405,158.36616 214.47,158.97 Z" id="Path" fill="#E57A82"></path>
            <path d="M214.47,158.97 C211.134486,161.563581 207.337414,163.50114 203.28,164.68 C191.38,168.52 185.9,157.3 185.9,157.3 L208.37,148.93 C209.563032,152.086955 211.433599,154.944008 213.85,157.3 C214.273584,157.750176 214.49719,158.352471 214.47,158.97 Z" id="Path" fill="url(#linearGradient-3)" opacity="0.73"></path>
            <path d="M227.81,115.74 C227.81,115.74 204.34,86.58 182.55,90.59 C165.09,93.79 158.61,105.87 156.73,110.59 C156.470758,111.203284 156.247054,111.83099 156.06,112.47 C156.06,112.47 122.21,81.55 119.53,73.85 C116.85,66.15 141.98,16.52 148.02,12.49 C150.86,10.59 152.74,11.15 153.72,13.23 C154.81,15.55 154.78,19.78 153.72,24.56 C151.86,32.9 151.14,35 151.06,35.26 L151.11,35.21 L151.21,35.1 C153.93,32.53 184.46,3.66 196.63,1.42 C204.99,-0.12 207.73,0.95 206.54,5.36 C205.92,7.68 204.23,10.92 201.68,15.18 C194.76,26.8 194.33,27.53 194.32,27.56 C194.32,27.56 224.7,18.86 227.95,22.56 C228.56,23.23 228.48,24.28 227.95,25.56 C225.65,31.03 214.78,40.35 214.78,40.35 C214.78,40.35 244.96,60.46 248.65,71.19 C252.34,81.92 227.81,115.74 227.81,115.74 Z" id="Path" fill="#1D214C"></path>
            <path d="M156.73,110.58 C156.470758,111.193284 156.247054,111.82099 156.06,112.46 C156.06,112.46 122.21,81.54 119.53,73.84 C116.85,66.14 141.98,16.51 148.02,12.48 C150.86,10.58 152.74,11.14 153.72,13.22 C149.58,9.29 143.77,23.04 138.23,31.75 C132.69,40.46 121.47,65.75 124.84,75 C128.21,84.25 154.84,106.15 154.84,106.15 L156.73,110.58 Z" id="Path" fill="url(#linearGradient-4)"></path>
            <path d="M166.89,83.04 C166.89,83.04 151.48,72.82 147.8,64.1 C147.8,64.1 157.31,77.68 184.15,85.73 C210.99,93.78 221.78,95.29 221.78,95.29 C211.433828,96.5045664 200.957723,95.9908994 190.78,93.77 C174.28,90.09 166.89,83.04 166.89,83.04 Z" id="Path" fill="url(#linearGradient-5)" opacity="0.47"></path>
            <path d="M153.72,99.65 C153.72,99.65 160.42,139.21 164.11,142.22 C167.8,145.23 183.89,159.99 194.28,158.99 C204.67,157.99 214.73,149.94 214.73,149.94 C214.73,149.94 226.8,127.81 227.81,115.74 C228.357927,108.421085 226.225389,101.152686 221.81,95.29 C221.81,95.29 179.66,90.09 166.92,83.04 C166.89,83.04 159.75,98.64 153.72,99.65 Z" id="Path" fill="#F48184"></path>
            <path d="M171.49,105.18 C171.49,105.18 167.49,113.8 162.27,115.74 C162.27,115.74 171.99,117.74 171.49,105.18 Z" id="Path" fill="url(#linearGradient-6)"></path>
            <ellipse id="Oval" fill="#1D214C" transform="translate(171.500529, 124.232761) rotate(-9.350000) translate(-171.500529, -124.232761) " cx="171.500529" cy="124.232761" rx="2.35" ry="5.44"></ellipse>
            <path d="M209.78,153.28 C209.78,153.28 205.35,156.5 203.08,156.67 C203.08,156.67 198.54,157.22 205.08,147.54 C211.62,137.86 218.66,126.04 220.8,114.73 C222.181521,107.730345 225.000999,101.093676 229.08,95.24 L230.47,117.87 L220.91,149.68 L209.78,153.28 Z" id="Path" fill="url(#linearGradient-7)" opacity="0.15"></path>
            <path d="M196.49,100.59 C196.49,100.59 202.86,107.67 208.37,108.03 C208.37,108.03 199.65,112.74 196.49,100.59 Z" id="Path" fill="url(#linearGradient-8)"></path>
            <path d="M261.08,165.08 C261.08,165.08 310.08,178.74 314.59,217.2 C319.1,255.66 297.53,285.2 318.65,335 C339.77,384.8 351.84,452.67 351.84,452.67 L286.08,452.67 L261.08,165.08 Z" id="Path" fill="url(#linearGradient-9)"></path>
            <ellipse id="Oval" fill="#1D214C" transform="translate(201.986454, 118.808819) rotate(-7.460000) translate(-201.986454, -118.808819) " cx="201.986454" cy="118.808819" rx="2.35" ry="5.44"></ellipse>
            <path d="M182.72,123.28 C182.72,123.28 180.89,137.2 184.15,136.86 C186.059884,136.681637 187.912123,136.109622 189.59,135.18 C189.59,135.18 181.71,140.74 182.72,123.28 Z" id="Path" fill="url(#linearGradient-10)"></path>
            <path d="M192.65,146.36 L191.26,145.69 C191.26,145.63 194.36,139.37 201.26,141.82 L200.75,143.27 C197.657587,142.004677 194.113941,143.356512 192.65,146.36 Z" id="Path" fill="#1D214C"></path>
            <path d="M251.24,105.27 C251.92,107.57 250.96,116.52 246.65,131.27 C241.92,147.52 227.36,156.77 216.25,151.98 C216.25,151.98 211.71,143.54 215.15,136.68 C218.59,129.82 224.29,117.84 224.41,112.26 C224.489257,111.550429 224.849406,110.902161 225.41,110.46 C225.83,106.35 226.66,97.69 226.66,95.46 C226.66,92.46 228.18,89.92 229.86,92.95 C231.31,95.57 231.66,105.08 231.73,107.47 L231.79,107.47 C231.96,104.81 232.68,93.22 232.53,90.1 C232.36,86.58 233.7,83.85 235.53,83.37 C236.86,83.03 239.05,91.68 239.05,99.97 C239.58,93.14 240.34,82.85 240.23,80.21 C240.06,76.21 244.09,75.79 245.09,83.37 C245.487862,82.807892 246.208887,82.5756972 246.86,82.8 C247.48,83.05 248.21,83.8 248.98,85.41 C251.12,89.93 251.45,105.18 251.45,105.18 L251.24,105.27 Z" id="Path" fill="#F48184"></path>
            <path d="M271.08,285.74 C247.45,308.88 222.08,317.67 202.44,305.11 C182.8,292.55 180.81,275.44 183.82,245 C186.83,214.56 208.97,159.77 209.82,153.31 C210.67,146.85 213.9,144.05 213.9,144.05 C213.9,144.05 228.9,142.17 235.41,142.05 C241.92,141.93 242.68,145.19 240.68,150.2 C238.68,155.21 239.08,163.01 239.08,163.01 C239.08,163.01 241.16,163.8 244.4,165.01 C253.83,168.55 273.02,175.68 278.62,177.36 C286.17,179.61 301.27,193.44 308.31,215.82 C315.35,238.2 294.69,262.59 271.08,285.74 Z" id="Path" fill="url(#linearGradient-11)"></path>
            <path d="M266.55,207.87 L274.83,194.94 C274.83,194.94 270.4,204.5 263.83,192.94 C257.26,181.38 245.16,184.14 245.16,184.14 L240.94,202.74 L244.99,217.19 L266.55,207.87 Z" id="Path" fill="#328BA3" opacity="0.52"></path>
            <path d="M244.16,226.42 C242.21,240.62 238.51,260.73 236.48,271.42 C237.23,265.8 238.15,255.96 239.05,238.73 C240.98,202.02 239.05,163.05 239.05,163.05 C239.05,163.05 241.13,163.84 244.37,165.05 C244.97,176.48 246.43,209.89 244.16,226.42 Z" id="Path" fill="#328BA3"></path>
            <path d="M268.08,236.68 C267.543146,237.178028 267.045037,237.716254 266.59,238.29 C265.48,239.67 264.41,241.29 263.22,242.79 C262.577827,243.672585 261.865518,244.50194 261.09,245.27 C260.207331,246.148481 259.195667,246.886996 258.09,247.46 C257.41,247.8 256.78,248.11 256.2,248.46 C254.879762,249.07522 253.612184,249.797639 252.41,250.62 C251.367978,251.340398 250.466483,252.245282 249.75,253.29 C247.99,255.8 247.65,255.8 245.06,255.56 C243.963112,255.373366 242.950446,254.853065 242.16,254.07 C241.404228,253.400483 240.732637,252.641584 240.16,251.81 L240.16,251.74 L240.74,247.64 L245.08,217.2 C245.08,217.2 259.84,207.27 263.08,206.76 C266.32,206.25 270.36,211.04 270.87,213.56 C271.38,216.08 271.31,233.66 268.08,236.68 Z" id="Path" fill="#F48184"></path>
            <path d="M268.08,236.68 C267.543146,237.178028 267.045037,237.716254 266.59,238.29 C268.150382,232.761147 268.894906,227.03404 268.8,221.29 C268.95,224.74 269.21,232.74 268.08,236.68 Z" id="Path" fill="#CC707C"></path>
            <path d="M263.17,242.8 C262.527827,243.682585 261.815518,244.51194 261.04,245.28 C261.04,245.28 263.14,231.41 262.76,223.61 C262.76,223.61 264.82,236.51 263.17,242.8 Z" id="Path" fill="#CC707C"></path>
            <path d="M256.13,248.45 C254.809762,249.06522 253.542184,249.787639 252.34,250.61 C252.52,249.82 255.52,237.29 255.56,228.5 C255.56,228.5 256.94,241.65 256.13,248.45 Z" id="Path" fill="#CC707C"></path>
            <path d="M246.18,238.29 C245.71974,243.741517 244.3332,249.074625 242.08,254.06 C241.324228,253.390483 240.652637,252.631584 240.08,251.8 L240.08,251.74 C240.127721,250.356661 240.322143,248.982295 240.66,247.64 C242.83,246.89 246.18,238.29 246.18,238.29 Z" id="Path" fill="#CC707C"></path>
            <path d="M153.72,252.23 C153.72,252.23 155.72,229.39 150.03,213.63 C150.03,213.63 158.79,234.52 171.51,226.42 C179.566872,221.115661 186.639068,214.449524 192.41,206.72 L185.9,231.86 L153.72,252.23 Z" id="Path" fill="#328BA3" opacity="0.52"></path>
            <path d="M184.15,239.56 C184.15,239.56 153.05,252.56 143.33,261.91 C143.33,261.91 161.75,242.04 185.9,231.86 L184.15,239.56 Z" id="Path" fill="#328BA3"></path>
            <rect id="Rectangle" fill="url(#linearGradient-12)" x="0" y="70.03" width="65.04" height="58.45" rx="6.56"></rect>
            <rect id="Rectangle" fill="#FFFFFF" x="11.76" y="80.6" width="41.53" height="37.32" rx="6.86"></rect>
            <path d="M21.33,59.29 C19.3180595,59.2899924 17.6855122,60.918067 17.68,62.93 L17.68,72.74 C17.68,74.7558393 19.3141607,76.39 21.33,76.39 C23.3458393,76.39 24.98,74.7558393 24.98,72.74 L24.98,62.93 C24.9744878,60.918067 23.3419405,59.2899924 21.33,59.29 Z" id="Path" fill="url(#linearGradient-13)"></path>
            <path d="M43.71,59.29 C41.7035899,59.2955121 40.0799924,60.9235823 40.08,62.93 L40.08,72.74 C40.009381,74.0877872 40.6882565,75.3645426 41.845123,76.0596522 C43.0019896,76.7547617 44.4480104,76.7547617 45.604877,76.0596522 C46.7617435,75.3645426 47.440619,74.0877872 47.37,72.74 L47.37,62.93 C47.3700146,61.9611367 46.9837715,61.0322446 46.2968074,60.3490344 C45.6098432,59.6658241 44.6788486,59.2846766 43.71,59.29 Z" id="Path" fill="url(#linearGradient-14)"></path>
            <path d="M27.29,88.63 C28.1610514,88.6295573 28.9673927,89.0897804 29.41,89.84 L30.9,92.36 C31.54,93.51 32.14,94.66 32.74,95.71 L32.83,95.71 C33.43,94.52 33.98,93.37 34.58,92.26 L35.85,89.92 C36.2871683,89.1295498 37.1167355,88.636397 38.02,88.63 L39.44,88.63 C40.3511294,88.6428205 41.1811938,89.1562438 41.5995444,89.9657522 C42.0178951,90.7752607 41.9565709,91.7493499 41.44,92.5 L37.64,98 C37.0850367,98.8217445 37.0850367,99.8982555 37.64,100.72 L41.84,107.32 C42.320355,108.079716 42.3500919,109.040406 41.9176435,109.828377 C41.4851951,110.616348 40.6588336,111.1072 39.76,111.11 L37.76,111.11 C36.8678807,111.11092 36.0451799,110.628779 35.61,109.85 L34.08,107.07 C33.44,105.97 32.89,104.82 32.33,103.67 L32.2,103.67 C31.65,104.86 31.05,105.97 30.5,107.07 L29.08,109.79 C28.6573639,110.603056 27.8163383,111.112301 26.9,111.11 L25.3,111.11 C24.3993505,111.09427 23.5793225,110.587541 23.1623642,109.789066 C22.7454059,108.990591 22.798205,108.028077 23.3,107.28 L27.46,101.04 C28.0157223,100.2112 28.0157223,99.1288003 27.46,98.3 L23.53,92.48 C23.0244717,91.7299424 22.9693558,90.7635549 23.3863275,89.9608844 C23.8032992,89.1582139 24.6256585,88.6476578 25.53,88.63 L27.29,88.63 Z" id="Path" fill="url(#linearGradient-15)"></path>
            <rect id="Rectangle" fill="url(#linearGradient-12)" x="72.84" y="123.96" width="65.04" height="58.45" rx="6.56"></rect>
            <rect id="Rectangle" fill="#FFFFFF" x="84.6" y="134.53" width="41.53" height="37.32" rx="6.86"></rect>
            <path d="M94.17,113.22 C92.1580595,113.219992 90.5255122,114.848067 90.52,116.86 L90.52,126.67 C90.449381,128.017787 91.1282565,129.294543 92.285123,129.989652 C93.4419896,130.684762 94.8880104,130.684762 96.044877,129.989652 C97.2017435,129.294543 97.880619,128.017787 97.81,126.67 L97.81,116.86 C97.81,114.849684 96.1803165,113.22 94.17,113.22 Z" id="Path" fill="url(#linearGradient-16)"></path>
            <path d="M116.55,113.22 C115.582881,113.217343 114.654461,113.599669 113.969664,114.282589 C113.284868,114.96551 112.899996,115.892877 112.9,116.86 L112.9,126.67 C112.829381,128.017787 113.508256,129.294543 114.665123,129.989652 C115.82199,130.684762 117.26801,130.684762 118.424877,129.989652 C119.581744,129.294543 120.260619,128.017787 120.19,126.67 L120.19,116.86 C120.19,114.849684 118.560316,113.22 116.55,113.22 Z" id="Path" fill="url(#linearGradient-17)"></path>
            <path d="M100.13,142.56 C101.000517,142.56157 101.805931,143.021264 102.25,143.77 L103.74,146.29 C104.38,147.44 104.98,148.58 105.58,149.64 L105.67,149.64 C106.27,148.45 106.82,147.3 107.42,146.19 L108.69,143.85 C109.123987,143.056474 109.955553,142.562133 110.86,142.56 L112.28,142.56 C113.191129,142.57282 114.021194,143.086244 114.439544,143.895752 C114.857895,144.705261 114.796571,145.67935 114.28,146.43 L110.48,151.93 C109.909819,152.741506 109.890029,153.818086 110.43,154.65 L114.63,161.25 C115.110355,162.009716 115.140092,162.970406 114.707644,163.758377 C114.275195,164.546348 113.448834,165.0372 112.55,165.04 L110.55,165.04 C109.657881,165.04092 108.83518,164.558779 108.4,163.78 L106.85,161 C106.21,159.89 105.65,158.75 105.1,157.6 L105.08,157.6 C104.52,158.79 103.93,159.89 103.37,161 L101.9,163.74 C101.475648,164.551446 100.635707,165.060034 99.72,165.06 L98.14,165.06 C97.2303712,165.062514 96.3935977,164.562866 95.9643405,163.760888 C95.5350832,162.95891 95.5834127,161.985513 96.09,161.23 L100.25,154.99 C100.80477,154.157271 100.80477,153.072729 100.25,152.24 L96.32,146.43 C95.8144717,145.679942 95.7593558,144.713555 96.1763275,143.910884 C96.5932992,143.108214 97.4156585,142.597658 98.32,142.58 L100.13,142.56 Z" id="Path" fill="url(#linearGradient-18)"></path>
            <rect id="Rectangle" fill="url(#linearGradient-12)" x="281.81" y="106.22" width="65.04" height="58.45" rx="6.56"></rect>
            <rect id="Rectangle" fill="#FFFFFF" x="293.57" y="116.79" width="41.53" height="37.32" rx="6.86"></rect>
            <path d="M303.14,95.48 C301.128059,95.4799924 299.495512,97.108067 299.49,99.12 L299.49,108.93 C299.49,110.945839 301.124161,112.58 303.14,112.58 C305.155839,112.58 306.79,110.945839 306.79,108.93 L306.79,99.12 C306.784488,97.108067 305.151941,95.4799924 303.14,95.48 Z" id="Path" fill="url(#linearGradient-13)"></path>
            <path d="M325.52,95.48 C324.552881,95.4773431 323.624461,95.8596687 322.939664,96.5425893 C322.254868,97.2255099 321.869996,98.1528769 321.87,99.12 L321.87,108.93 C321.799381,110.277787 322.478256,111.554543 323.635123,112.249652 C324.79199,112.944762 326.23801,112.944762 327.394877,112.249652 C328.551744,111.554543 329.230619,110.277787 329.16,108.93 L329.16,99.12 C329.16,97.1096835 327.530316,95.48 325.52,95.48 Z" id="Path" fill="url(#linearGradient-17)"></path>
            <path d="M309.08,124.82 C309.950517,124.82157 310.755931,125.281264 311.2,126.03 L312.69,128.54 C313.33,129.69 313.93,130.84 314.53,131.9 L314.62,131.9 C315.22,130.71 315.77,129.56 316.37,128.45 L317.64,126.11 C318.070732,125.31334 318.904356,124.817776 319.81,124.82 L321.23,124.82 C322.141129,124.83282 322.971194,125.346244 323.389544,126.155752 C323.807895,126.965261 323.746571,127.93935 323.23,128.69 L319.43,134.19 C318.875037,135.011745 318.875037,136.088255 319.43,136.91 L323.63,143.51 C324.110355,144.269716 324.140092,145.230406 323.707644,146.018377 C323.275195,146.806348 322.448834,147.2972 321.55,147.3 L319.55,147.3 C318.657881,147.30092 317.83518,146.818779 317.4,146.04 L315.85,143.26 C315.21,142.15 314.66,141 314.1,139.85 L313.97,139.85 C313.42,141.05 312.82,142.15 312.26,143.26 L310.84,145.98 C310.415648,146.791446 309.575707,147.300034 308.66,147.3 L307.08,147.3 C306.179351,147.28427 305.359323,146.777541 304.942364,145.979066 C304.525406,145.180591 304.578205,144.218077 305.08,143.47 L309.24,137.23 C309.79477,136.397271 309.79477,135.312729 309.24,134.48 L305.31,128.67 C304.804472,127.919942 304.749356,126.953555 305.166328,126.150884 C305.583299,125.348214 306.405659,124.837658 307.31,124.82 L309.08,124.82 Z" id="Path" fill="url(#linearGradient-19)"></path>
            <path d="M246.19,98.74 C246.543135,93.5866469 246.169473,88.4092377 245.08,83.36 C245.477862,82.797892 246.198887,82.5656972 246.85,82.79 C247.24,88.1 246.35,97.3 246.19,98.74 Z" id="Path" fill="#CC707C"></path>
            <path d="M206.54,5.35 C206.54,5.35 206.54,5.35 206.54,5.35 C206.54,5.35 202.64,0.75 190.83,5.94 C179.22,11.05 148.83,38.09 147.83,38.94 L151.08,35.26 L151.13,35.21 L151.23,35.1 C153.95,32.53 184.48,3.66 196.65,1.42 C204.99,-0.13 207.73,0.94 206.54,5.35 Z" id="Path" fill="url(#linearGradient-20)"></path>
            <path d="M227.9,25.52 C223.95,20.52 185.68,31.42 185.68,31.42 L194.28,27.56 C194.28,27.56 224.66,18.86 227.91,22.56 C228.52,23.22 228.44,24.27 227.9,25.52 Z" id="Path" fill="url(#linearGradient-21)"></path>
            <path d="M186.36,163.01 C186.36,163.01 162.55,170.79 160.2,183.74 C157.85,196.69 174.45,195.19 176.79,190.49 C179.13,185.79 181.43,177.11 187.24,174.08 L186.36,163.01 Z" id="Path" fill="url(#linearGradient-22)"></path>
            <path d="M172.74,187.54 C170.53,190.33 167.33,190.94 165.58,188.9 C163.83,186.86 164.23,182.9 166.43,180.15 C167.310438,178.968301 168.553896,178.107716 169.97,177.7 C171.284047,177.319372 172.699308,177.741605 173.59,178.78 C175.33,180.82 174.95,184.74 172.74,187.54 Z" id="Path" fill="#FFC709"></path>
            <path d="M172.74,187.54 C167.74,191.93 165.79,186.36 166.83,182.49 C167.87,178.62 169.97,177.71 169.97,177.71 C171.284047,177.329372 172.699308,177.751605 173.59,178.79 C175.33,180.82 174.95,184.74 172.74,187.54 Z" id="Path" fill="url(#linearGradient-23)"></path>
            <path d="M172.42,183.48 C172.73,183.85 173.31,183.74 173.71,183.23 C173.957107,182.922268 174.081759,182.534065 174.06,182.14 C174.047583,181.958194 173.981454,181.784171 173.87,181.64 C173.55,181.27 172.97,181.38 172.57,181.89 C172.171938,182.327652 172.110809,182.975626 172.42,183.48 Z" id="Path" fill="#FEF59B"></path>
            <path d="M170.68,182.17 C170.89,182.41 171.26,182.34 171.52,182.01 C171.679382,181.812972 171.758013,181.562781 171.74,181.31 C171.733672,181.19357 171.691789,181.081882 171.62,180.99 C171.42,180.75 171.04,180.82 170.78,181.15 C170.525587,181.430837 170.484973,181.8451 170.68,182.17 Z" id="Path" fill="#FEF59B"></path>
            <path d="M239.71,183.74 C239.71,183.74 248.03,169.94 266.35,173.15 C266.35,173.15 264.07,164.06 256.35,163.05 C248.63,162.04 245.79,160.14 243.08,159.05 C240.37,157.96 239.02,159.05 239.02,159.05 L239.71,183.74 Z" id="Path" fill="url(#linearGradient-24)"></path>
            <rect id="Rectangle" fill="url(#linearGradient-25)" transform="translate(184.167331, 372.773828) rotate(-89.260000) translate(-184.167331, -372.773828) " x="105.277331" y="267.313828" width="157.78" height="210.92"></rect>
            <rect id="Rectangle" fill="url(#linearGradient-26)" transform="translate(184.962948, 310.190541) rotate(-89.260000) translate(-184.962948, -310.190541) " x="168.657948" y="204.730541" width="32.61" height="210.92"></rect>
            <rect id="Rectangle" fill="#FFFFFF" transform="translate(119.102028, 360.723532) rotate(0.740000) translate(-119.102028, -360.723532) " x="101.217028" y="342.838532" width="35.77" height="35.77"></rect>
            <rect id="Rectangle" fill="#FFFFFF" transform="translate(118.396019, 415.389932) rotate(0.740000) translate(-118.396019, -415.389932) " x="100.511019" y="397.504932" width="35.77" height="35.77"></rect>
            <rect id="Rectangle" fill="#FFFFFF" transform="translate(184.335738, 361.566042) rotate(0.740000) translate(-184.335738, -361.566042) " x="166.450738" y="343.681042" width="35.77" height="35.77"></rect>
            <rect id="Rectangle" fill="#FFFFFF" transform="translate(183.629729, 416.232441) rotate(0.740000) translate(-183.629729, -416.232441) " x="165.744729" y="398.347441" width="35.77" height="35.77"></rect>
            <rect id="Rectangle" fill="#FFFFFF" transform="translate(248.929631, 362.400157) rotate(0.740000) translate(-248.929631, -362.400157) " x="231.044631" y="344.515157" width="35.77" height="35.77"></rect>
            <rect id="Rectangle" fill="#FFFFFF" transform="translate(248.223622, 417.066557) rotate(0.740000) translate(-248.223622, -417.066557) " x="230.338622" y="399.181557" width="35.77" height="35.77"></rect>
            <rect id="Rectangle" fill="url(#linearGradient-27)" transform="translate(120.018119, 289.396298) rotate(0.740000) translate(-120.018119, -289.396298) " x="114.488119" y="272.016298" width="11.06" height="34.76" rx="5.53"></rect>
            <rect id="Rectangle" fill="url(#linearGradient-28)" transform="translate(249.845723, 291.072923) rotate(0.740000) translate(-249.845723, -291.072923) " x="244.315723" y="273.692923" width="11.06" height="34.76" rx="5.53"></rect>
            <path d="M114.96,349.48 C115.828492,349.479469 116.633448,349.935104 117.08,350.68 L118.57,353.2 C119.22,354.35 119.81,355.5 120.41,356.56 L120.5,356.56 C121.1,355.36 121.65,354.21 122.25,353.11 L123.53,350.76 C123.961672,349.970362 124.790073,349.479458 125.69,349.48 L127.08,349.48 C127.990836,349.488404 128.822474,349.999416 129.241521,350.808176 C129.660567,351.616936 129.598423,352.591047 129.08,353.34 L125.28,358.84 C124.734066,359.66812 124.734066,360.74188 125.28,361.57 L129.48,368.17 C129.967526,368.928568 130.000954,369.893075 129.567117,370.683576 C129.13328,371.474077 128.301716,371.963866 127.4,371.96 L125.4,371.96 C124.503357,371.958269 123.677474,371.47268 123.24,370.69 L121.7,367.91 C121.05,366.81 120.5,365.66 119.95,364.51 L119.81,364.51 C119.26,365.71 118.66,366.81 118.11,367.91 L116.69,370.63 C116.264993,371.446903 115.420848,371.959557 114.5,371.96 L112.92,371.96 C112.019021,371.939994 111.200449,371.430875 110.784154,370.631587 C110.367858,369.832299 110.419921,368.869723 110.92,368.12 L115.08,361.89 C115.640204,361.058923 115.640204,359.971077 115.08,359.14 L111.16,353.32 C110.652711,352.571605 110.596832,351.605252 111.014477,350.803374 C111.432123,350.001495 112.255976,349.493336 113.16,349.48 L114.96,349.48 Z" id="Path" fill="url(#linearGradient-29)"></path>
            <path d="M178.92,405.82 C179.788492,405.819469 180.593448,406.275104 181.04,407.02 L182.53,409.54 C183.17,410.69 183.77,411.84 184.37,412.9 L184.46,412.9 C185.06,411.7 185.61,410.55 186.21,409.45 L187.49,407.1 C187.921672,406.310362 188.750073,405.819458 189.65,405.82 L191.08,405.82 C191.990836,405.828404 192.822474,406.339416 193.241521,407.148176 C193.660567,407.956936 193.598423,408.931047 193.08,409.68 L189.28,415.18 C188.71879,415.998086 188.699123,417.071912 189.23,417.91 L193.43,424.51 C193.917526,425.268568 193.950954,426.233075 193.517117,427.023576 C193.08328,427.814077 192.251716,428.303866 191.35,428.3 L189.35,428.3 C188.453357,428.298269 187.627474,427.81268 187.19,427.03 L185.64,424.25 C185,423.15 184.45,422 183.9,420.85 L183.76,420.85 C183.21,422.05 182.61,423.15 182.06,424.25 L180.63,426.97 C180.211853,427.78856 179.369174,428.302672 178.45,428.3 L176.87,428.3 C175.969021,428.279994 175.150449,427.770875 174.734154,426.971587 C174.317858,426.172299 174.369921,425.209723 174.87,424.46 L179.03,418.23 C179.590204,417.398923 179.590204,416.311077 179.03,415.48 L175.08,409.66 C174.572711,408.911605 174.516832,407.945252 174.934477,407.143374 C175.352123,406.341495 176.175976,405.833336 177.08,405.82 L178.92,405.82 Z" id="Path" fill="url(#linearGradient-30)"></path>
            <path d="M243.02,351.14 C243.891051,351.139557 244.697393,351.59978 245.14,352.35 L246.63,354.87 C247.28,356.02 247.88,357.17 248.47,358.22 L248.56,358.22 C249.16,357.03 249.71,355.88 250.31,354.78 L251.59,352.43 C252.020652,351.638055 252.848543,351.14362 253.75,351.14 L255.17,351.14 C256.081129,351.15282 256.911194,351.666244 257.329544,352.475752 C257.747895,353.285261 257.686571,354.25935 257.17,355.01 L253.37,360.51 C252.80879,361.328086 252.789123,362.401912 253.32,363.24 L257.52,369.84 C258.007526,370.598568 258.040954,371.563075 257.607117,372.353576 C257.17328,373.144077 256.341716,373.633866 255.44,373.63 L253.44,373.63 C252.543357,373.628269 251.717474,373.14268 251.28,372.36 L249.74,369.58 C249.09,368.48 248.54,367.33 247.99,366.18 L247.85,366.18 C247.3,367.37 246.7,368.48 246.15,369.58 L244.73,372.3 C244.304993,373.116903 243.460848,373.629557 242.54,373.63 L241.08,373.63 C240.170039,373.628072 239.334837,373.125977 238.906293,372.323242 C238.47775,371.520507 238.525282,370.547161 239.03,369.79 L243.19,363.55 C243.751221,362.722881 243.751221,361.637119 243.19,360.81 L239.27,354.99 C238.757169,354.241313 238.698175,353.271094 239.116516,352.465788 C239.534857,351.660481 240.362581,351.150895 241.27,351.14 L243.02,351.14 Z" id="Path" fill="url(#linearGradient-31)"></path>
        </g>
    </g>
</svg>